<mxfile host="app.diagrams.net" modified="2021-12-05T03:30:05.193Z" agent="5.0 (Windows NT 10.0; Win64; x64) AppleWebKit/537.36 (KHTML, like Gecko) Chrome/96.0.4664.45 Safari/537.36" etag="Hl28MF8vLSv53m0cFUap" version="15.9.1" type="github">
  <diagram id="C5RBs43oDa-KdzZeNtuy" name="Page-1">
    <mxGraphModel dx="4784" dy="797" grid="1" gridSize="10" guides="1" tooltips="1" connect="1" arrows="1" fold="1" page="1" pageScale="1" pageWidth="827" pageHeight="1169" math="0" shadow="0">
      <root>
        <mxCell id="WIyWlLk6GJQsqaUBKTNV-0" />
        <mxCell id="WIyWlLk6GJQsqaUBKTNV-1" parent="WIyWlLk6GJQsqaUBKTNV-0" />
        <mxCell id="eFTnabdDzmHTs7a5SszN-231" value="" style="strokeWidth=1;shadow=0;dashed=0;align=center;html=1;shape=mxgraph.mockup.containers.window;align=left;verticalAlign=top;spacingLeft=8;strokeColor2=#008cff;strokeColor3=#c4c4c4;fontColor=#666666;mainText=;fontSize=17;labelBackgroundColor=none;rounded=0;" parent="WIyWlLk6GJQsqaUBKTNV-1" vertex="1">
          <mxGeometry x="-140" y="1240" width="430" height="518.323702750955" as="geometry" />
        </mxCell>
        <mxCell id="WIyWlLk6GJQsqaUBKTNV-2" value="" style="rounded=0;html=1;jettySize=auto;orthogonalLoop=1;fontSize=11;endArrow=classic;endFill=1;endSize=8;strokeWidth=1;shadow=0;labelBackgroundColor=none;edgeStyle=orthogonalEdgeStyle;entryX=0;entryY=0.5;entryDx=0;entryDy=0;" parent="WIyWlLk6GJQsqaUBKTNV-1" source="WIyWlLk6GJQsqaUBKTNV-3" target="WIyWlLk6GJQsqaUBKTNV-6" edge="1">
          <mxGeometry relative="1" as="geometry">
            <Array as="points">
              <mxPoint y="260" />
            </Array>
          </mxGeometry>
        </mxCell>
        <mxCell id="WIyWlLk6GJQsqaUBKTNV-3" value="Landing page" style="rounded=0;whiteSpace=wrap;html=1;fontSize=12;glass=0;strokeWidth=1;shadow=0;" parent="WIyWlLk6GJQsqaUBKTNV-1" vertex="1">
          <mxGeometry x="-60" y="160" width="120" height="40" as="geometry" />
        </mxCell>
        <mxCell id="WIyWlLk6GJQsqaUBKTNV-5" value="" style="edgeStyle=orthogonalEdgeStyle;rounded=0;html=1;jettySize=auto;orthogonalLoop=1;fontSize=11;endArrow=block;endFill=0;endSize=8;strokeWidth=1;shadow=0;labelBackgroundColor=none;entryX=0.5;entryY=1;entryDx=0;entryDy=0;exitX=0.5;exitY=0;exitDx=0;exitDy=0;" parent="WIyWlLk6GJQsqaUBKTNV-1" source="WIyWlLk6GJQsqaUBKTNV-6" target="eFTnabdDzmHTs7a5SszN-0" edge="1">
          <mxGeometry x="-0.1429" y="10" relative="1" as="geometry">
            <mxPoint as="offset" />
          </mxGeometry>
        </mxCell>
        <mxCell id="eFTnabdDzmHTs7a5SszN-3" value="" style="edgeStyle=orthogonalEdgeStyle;rounded=0;orthogonalLoop=1;jettySize=auto;html=1;" parent="WIyWlLk6GJQsqaUBKTNV-1" source="WIyWlLk6GJQsqaUBKTNV-6" target="eFTnabdDzmHTs7a5SszN-2" edge="1">
          <mxGeometry relative="1" as="geometry" />
        </mxCell>
        <mxCell id="WIyWlLk6GJQsqaUBKTNV-6" value="Logged in?" style="rhombus;whiteSpace=wrap;html=1;shadow=0;fontFamily=Helvetica;fontSize=12;align=center;strokeWidth=1;spacing=6;spacingTop=-4;" parent="WIyWlLk6GJQsqaUBKTNV-1" vertex="1">
          <mxGeometry x="170" y="220" width="100" height="80" as="geometry" />
        </mxCell>
        <mxCell id="WIyWlLk6GJQsqaUBKTNV-7" value="Auth0 login page" style="rounded=0;whiteSpace=wrap;html=1;fontSize=12;glass=0;strokeWidth=1;shadow=0;" parent="WIyWlLk6GJQsqaUBKTNV-1" vertex="1">
          <mxGeometry x="380" y="90" width="120" height="40" as="geometry" />
        </mxCell>
        <mxCell id="WIyWlLk6GJQsqaUBKTNV-9" value="" style="edgeStyle=orthogonalEdgeStyle;rounded=0;html=1;jettySize=auto;orthogonalLoop=1;fontSize=11;endArrow=block;endFill=0;endSize=8;strokeWidth=1;shadow=0;labelBackgroundColor=none;exitX=0.5;exitY=0;exitDx=0;exitDy=0;entryX=0;entryY=0.5;entryDx=0;entryDy=0;" parent="WIyWlLk6GJQsqaUBKTNV-1" source="eFTnabdDzmHTs7a5SszN-0" target="WIyWlLk6GJQsqaUBKTNV-12" edge="1">
          <mxGeometry x="0.2999" relative="1" as="geometry">
            <mxPoint as="offset" />
            <mxPoint x="270" y="400" as="sourcePoint" />
          </mxGeometry>
        </mxCell>
        <mxCell id="pPHWL7X7k9nsCpByzbIq-71" value="YES" style="edgeLabel;html=1;align=center;verticalAlign=middle;resizable=0;points=[];" vertex="1" connectable="0" parent="WIyWlLk6GJQsqaUBKTNV-9">
          <mxGeometry x="0.1154" relative="1" as="geometry">
            <mxPoint x="20" as="offset" />
          </mxGeometry>
        </mxCell>
        <mxCell id="WIyWlLk6GJQsqaUBKTNV-12" value="Auth0 sign up" style="rounded=0;whiteSpace=wrap;html=1;fontSize=12;glass=0;strokeWidth=1;shadow=0;" parent="WIyWlLk6GJQsqaUBKTNV-1" vertex="1">
          <mxGeometry x="380" y="10" width="120" height="40" as="geometry" />
        </mxCell>
        <mxCell id="eFTnabdDzmHTs7a5SszN-1" value="" style="edgeStyle=orthogonalEdgeStyle;rounded=0;orthogonalLoop=1;jettySize=auto;html=1;endArrow=block;endFill=0;" parent="WIyWlLk6GJQsqaUBKTNV-1" source="eFTnabdDzmHTs7a5SszN-0" target="WIyWlLk6GJQsqaUBKTNV-7" edge="1">
          <mxGeometry relative="1" as="geometry" />
        </mxCell>
        <mxCell id="eFTnabdDzmHTs7a5SszN-11" value="NO" style="edgeLabel;html=1;align=center;verticalAlign=middle;resizable=0;points=[];" parent="eFTnabdDzmHTs7a5SszN-1" vertex="1" connectable="0">
          <mxGeometry x="-0.4143" y="-4" relative="1" as="geometry">
            <mxPoint x="10" y="-4" as="offset" />
          </mxGeometry>
        </mxCell>
        <mxCell id="eFTnabdDzmHTs7a5SszN-0" value="Signed in?" style="rhombus;whiteSpace=wrap;html=1;shadow=0;fontFamily=Helvetica;fontSize=12;align=center;strokeWidth=1;spacing=6;spacingTop=-4;" parent="WIyWlLk6GJQsqaUBKTNV-1" vertex="1">
          <mxGeometry x="170" y="70" width="100" height="80" as="geometry" />
        </mxCell>
        <mxCell id="eFTnabdDzmHTs7a5SszN-8" value="" style="edgeStyle=orthogonalEdgeStyle;rounded=0;orthogonalLoop=1;jettySize=auto;html=1;entryX=0.5;entryY=0;entryDx=0;entryDy=0;" parent="WIyWlLk6GJQsqaUBKTNV-1" source="eFTnabdDzmHTs7a5SszN-2" target="eFTnabdDzmHTs7a5SszN-56" edge="1">
          <mxGeometry relative="1" as="geometry" />
        </mxCell>
        <mxCell id="pPHWL7X7k9nsCpByzbIq-35" value="GO TO MEMBER" style="edgeLabel;html=1;align=center;verticalAlign=middle;resizable=0;points=[];" vertex="1" connectable="0" parent="eFTnabdDzmHTs7a5SszN-8">
          <mxGeometry x="-0.4101" relative="1" as="geometry">
            <mxPoint x="22" as="offset" />
          </mxGeometry>
        </mxCell>
        <mxCell id="pPHWL7X7k9nsCpByzbIq-34" style="edgeStyle=orthogonalEdgeStyle;rounded=0;orthogonalLoop=1;jettySize=auto;html=1;exitX=0;exitY=0.5;exitDx=0;exitDy=0;entryX=0.5;entryY=0;entryDx=0;entryDy=0;startArrow=none;startFill=0;endArrow=classic;endFill=1;strokeWidth=1;" edge="1" parent="WIyWlLk6GJQsqaUBKTNV-1" source="eFTnabdDzmHTs7a5SszN-2" target="pPHWL7X7k9nsCpByzbIq-47">
          <mxGeometry relative="1" as="geometry">
            <mxPoint x="-290" y="430.0000000000002" as="targetPoint" />
          </mxGeometry>
        </mxCell>
        <mxCell id="pPHWL7X7k9nsCpByzbIq-36" value="GO TO APPRENTICE" style="edgeLabel;html=1;align=center;verticalAlign=middle;resizable=0;points=[];" vertex="1" connectable="0" parent="pPHWL7X7k9nsCpByzbIq-34">
          <mxGeometry x="-0.605" relative="1" as="geometry">
            <mxPoint x="66" as="offset" />
          </mxGeometry>
        </mxCell>
        <mxCell id="eFTnabdDzmHTs7a5SszN-2" value="Member or Apprentice" style="rhombus;whiteSpace=wrap;html=1;shadow=0;fontFamily=Helvetica;fontSize=12;align=center;strokeWidth=1;spacing=6;spacingTop=-4;" parent="WIyWlLk6GJQsqaUBKTNV-1" vertex="1">
          <mxGeometry x="170" y="360" width="100" height="80" as="geometry" />
        </mxCell>
        <mxCell id="eFTnabdDzmHTs7a5SszN-105" style="edgeStyle=orthogonalEdgeStyle;rounded=0;orthogonalLoop=1;jettySize=auto;html=1;entryX=0.75;entryY=0;entryDx=0;entryDy=0;" parent="WIyWlLk6GJQsqaUBKTNV-1" source="eFTnabdDzmHTs7a5SszN-7" target="eFTnabdDzmHTs7a5SszN-58" edge="1">
          <mxGeometry relative="1" as="geometry">
            <Array as="points">
              <mxPoint x="710" y="665" />
              <mxPoint x="454" y="665" />
            </Array>
          </mxGeometry>
        </mxCell>
        <mxCell id="pPHWL7X7k9nsCpByzbIq-41" value="MEMBER PROFILE CREATION SUCCESS" style="edgeLabel;html=1;align=center;verticalAlign=middle;resizable=0;points=[];" vertex="1" connectable="0" parent="eFTnabdDzmHTs7a5SszN-105">
          <mxGeometry x="-0.2402" relative="1" as="geometry">
            <mxPoint x="-18" y="-1" as="offset" />
          </mxGeometry>
        </mxCell>
        <mxCell id="pPHWL7X7k9nsCpByzbIq-38" style="edgeStyle=orthogonalEdgeStyle;rounded=0;orthogonalLoop=1;jettySize=auto;html=1;startArrow=none;startFill=0;endArrow=block;endFill=0;strokeWidth=1;entryX=1;entryY=0.5;entryDx=0;entryDy=0;" edge="1" parent="WIyWlLk6GJQsqaUBKTNV-1" source="eFTnabdDzmHTs7a5SszN-7" target="WIyWlLk6GJQsqaUBKTNV-6">
          <mxGeometry relative="1" as="geometry">
            <Array as="points">
              <mxPoint x="710" y="260" />
            </Array>
          </mxGeometry>
        </mxCell>
        <mxCell id="pPHWL7X7k9nsCpByzbIq-40" value="&lt;span style=&quot;font-size: 12px ; background-color: rgb(248 , 249 , 250)&quot;&gt;MEMBER PROFILE CREATION CANCELLED&lt;/span&gt;" style="edgeLabel;html=1;align=center;verticalAlign=middle;resizable=0;points=[];" vertex="1" connectable="0" parent="pPHWL7X7k9nsCpByzbIq-38">
          <mxGeometry x="0.1358" y="1" relative="1" as="geometry">
            <mxPoint x="1" y="-1" as="offset" />
          </mxGeometry>
        </mxCell>
        <mxCell id="eFTnabdDzmHTs7a5SszN-7" value="Member Profile creation" style="whiteSpace=wrap;html=1;shadow=0;strokeWidth=1;spacing=6;spacingTop=-4;" parent="WIyWlLk6GJQsqaUBKTNV-1" vertex="1">
          <mxGeometry x="680" y="490" width="120" height="60" as="geometry" />
        </mxCell>
        <mxCell id="eFTnabdDzmHTs7a5SszN-16" style="edgeStyle=orthogonalEdgeStyle;rounded=0;orthogonalLoop=1;jettySize=auto;html=1;entryX=1;entryY=0.5;entryDx=0;entryDy=0;dashed=1;" parent="WIyWlLk6GJQsqaUBKTNV-1" source="eFTnabdDzmHTs7a5SszN-12" target="WIyWlLk6GJQsqaUBKTNV-12" edge="1">
          <mxGeometry relative="1" as="geometry" />
        </mxCell>
        <mxCell id="eFTnabdDzmHTs7a5SszN-12" value="Auth0 site sign up" style="text;html=1;strokeColor=none;fillColor=none;align=center;verticalAlign=middle;whiteSpace=wrap;rounded=0;" parent="WIyWlLk6GJQsqaUBKTNV-1" vertex="1">
          <mxGeometry x="640" y="15" width="60" height="30" as="geometry" />
        </mxCell>
        <mxCell id="eFTnabdDzmHTs7a5SszN-15" style="edgeStyle=orthogonalEdgeStyle;rounded=0;orthogonalLoop=1;jettySize=auto;html=1;entryX=1;entryY=0.5;entryDx=0;entryDy=0;dashed=1;" parent="WIyWlLk6GJQsqaUBKTNV-1" source="eFTnabdDzmHTs7a5SszN-13" target="WIyWlLk6GJQsqaUBKTNV-7" edge="1">
          <mxGeometry relative="1" as="geometry" />
        </mxCell>
        <mxCell id="eFTnabdDzmHTs7a5SszN-13" value="Auth0 site login" style="text;html=1;strokeColor=none;fillColor=none;align=center;verticalAlign=middle;whiteSpace=wrap;rounded=0;" parent="WIyWlLk6GJQsqaUBKTNV-1" vertex="1">
          <mxGeometry x="640" y="95" width="60" height="30" as="geometry" />
        </mxCell>
        <mxCell id="eFTnabdDzmHTs7a5SszN-19" value="" style="strokeWidth=1;shadow=0;dashed=0;align=center;html=1;shape=mxgraph.mockup.forms.rrect;rSize=0;strokeColor=#999999;fillColor=#ffffff;rounded=0;" parent="WIyWlLk6GJQsqaUBKTNV-1" vertex="1">
          <mxGeometry x="740" y="15" width="190" height="270" as="geometry" />
        </mxCell>
        <mxCell id="eFTnabdDzmHTs7a5SszN-20" value="Welcome" style="strokeWidth=1;shadow=0;dashed=0;align=center;html=1;shape=mxgraph.mockup.forms.anchor;fontSize=12;fontColor=#666666;align=left;resizeWidth=1;spacingLeft=0;rounded=0;" parent="eFTnabdDzmHTs7a5SszN-19" vertex="1">
          <mxGeometry width="95" height="20" relative="1" as="geometry">
            <mxPoint x="60" y="10" as="offset" />
          </mxGeometry>
        </mxCell>
        <mxCell id="eFTnabdDzmHTs7a5SszN-21" value="" style="shape=line;strokeColor=#ddeeff;strokeWidth=2;html=1;resizeWidth=1;rounded=0;" parent="eFTnabdDzmHTs7a5SszN-19" vertex="1">
          <mxGeometry width="171" height="10" relative="1" as="geometry">
            <mxPoint x="10" y="30" as="offset" />
          </mxGeometry>
        </mxCell>
        <mxCell id="eFTnabdDzmHTs7a5SszN-23" value="Email address" style="strokeWidth=1;shadow=0;dashed=0;align=center;html=1;shape=mxgraph.mockup.forms.rrect;rSize=0;strokeColor=#999999;fontColor=#666666;align=left;spacingLeft=5;resizeWidth=1;rounded=0;" parent="eFTnabdDzmHTs7a5SszN-19" vertex="1">
          <mxGeometry width="142.5" height="25" relative="1" as="geometry">
            <mxPoint x="20" y="70" as="offset" />
          </mxGeometry>
        </mxCell>
        <mxCell id="eFTnabdDzmHTs7a5SszN-24" value="" style="strokeWidth=1;shadow=0;dashed=0;align=center;html=1;shape=mxgraph.mockup.forms.anchor;fontSize=12;fontColor=#666666;align=left;resizeWidth=1;spacingLeft=0;rounded=0;" parent="eFTnabdDzmHTs7a5SszN-19" vertex="1">
          <mxGeometry width="95" height="20" relative="1" as="geometry">
            <mxPoint x="10" y="95" as="offset" />
          </mxGeometry>
        </mxCell>
        <mxCell id="eFTnabdDzmHTs7a5SszN-25" value="Password" style="strokeWidth=1;shadow=0;dashed=0;align=center;html=1;shape=mxgraph.mockup.forms.rrect;rSize=0;strokeColor=#999999;fontColor=#666666;align=left;spacingLeft=5;resizeWidth=1;rounded=0;" parent="eFTnabdDzmHTs7a5SszN-19" vertex="1">
          <mxGeometry width="142.5" height="25" relative="1" as="geometry">
            <mxPoint x="20" y="100" as="offset" />
          </mxGeometry>
        </mxCell>
        <mxCell id="eFTnabdDzmHTs7a5SszN-26" value="Continue" style="strokeWidth=1;shadow=0;dashed=0;align=center;html=1;shape=mxgraph.mockup.forms.rrect;rSize=5;strokeColor=none;fontColor=#ffffff;fillColor=#66bbff;fontSize=16;fontStyle=1;rounded=0;" parent="eFTnabdDzmHTs7a5SszN-19" vertex="1">
          <mxGeometry y="1" width="150" height="30" relative="1" as="geometry">
            <mxPoint x="20" y="-120" as="offset" />
          </mxGeometry>
        </mxCell>
        <mxCell id="eFTnabdDzmHTs7a5SszN-27" value="Forgot Password?" style="strokeWidth=1;shadow=0;dashed=0;align=center;html=1;shape=mxgraph.mockup.forms.anchor;fontSize=12;fontColor=#9999ff;align=left;spacingLeft=0;fontStyle=4;resizeWidth=1;rounded=0;" parent="eFTnabdDzmHTs7a5SszN-19" vertex="1">
          <mxGeometry y="1" width="142.5" height="20" relative="1" as="geometry">
            <mxPoint x="24" y="-145" as="offset" />
          </mxGeometry>
        </mxCell>
        <mxCell id="eFTnabdDzmHTs7a5SszN-28" value="" style="shape=line;strokeColor=#ddeeff;strokeWidth=2;html=1;resizeWidth=1;rounded=0;" parent="eFTnabdDzmHTs7a5SszN-19" vertex="1">
          <mxGeometry y="1" width="171" height="10" relative="1" as="geometry">
            <mxPoint x="10" y="-70" as="offset" />
          </mxGeometry>
        </mxCell>
        <mxCell id="eFTnabdDzmHTs7a5SszN-31" value="Continue with Google" style="strokeWidth=1;shadow=0;dashed=0;align=center;html=1;shape=mxgraph.mockup.text.textBox;fontColor=#666666;align=left;fontSize=17;spacingLeft=4;spacingTop=-3;strokeColor=#666666;mainText=;rounded=0;" parent="eFTnabdDzmHTs7a5SszN-19" vertex="1">
          <mxGeometry x="11.176470588235293" y="220" width="167.64705882352942" height="27" as="geometry" />
        </mxCell>
        <mxCell id="eFTnabdDzmHTs7a5SszN-42" value="" style="group" parent="WIyWlLk6GJQsqaUBKTNV-1" vertex="1" connectable="0">
          <mxGeometry x="-520" y="15" width="370" height="225" as="geometry" />
        </mxCell>
        <mxCell id="eFTnabdDzmHTs7a5SszN-32" value="" style="strokeWidth=1;shadow=0;dashed=0;align=center;html=1;shape=mxgraph.mockup.containers.window;align=left;verticalAlign=top;spacingLeft=8;strokeColor2=#008cff;strokeColor3=#c4c4c4;fontColor=#666666;mainText=;fontSize=17;labelBackgroundColor=none;rounded=0;" parent="eFTnabdDzmHTs7a5SszN-42" vertex="1">
          <mxGeometry width="370" height="225" as="geometry" />
        </mxCell>
        <mxCell id="eFTnabdDzmHTs7a5SszN-33" value="Our Story" style="fillColor=none;strokeColor=none;fontSize=14;fontColor=#0085FC;rounded=0;" parent="eFTnabdDzmHTs7a5SszN-42" vertex="1">
          <mxGeometry x="136.73913043478262" y="34.090909090909086" width="64.34782608695652" height="20.454545454545457" as="geometry" />
        </mxCell>
        <mxCell id="eFTnabdDzmHTs7a5SszN-34" value="Hire Now" style="fillColor=none;strokeColor=none;fontSize=14;fontColor=#0085FC;rounded=0;" parent="eFTnabdDzmHTs7a5SszN-42" vertex="1">
          <mxGeometry x="201.08695652173915" y="34.090909090909086" width="48.26086956521739" height="20.454545454545457" as="geometry" />
        </mxCell>
        <mxCell id="eFTnabdDzmHTs7a5SszN-35" value="Find Jobs" style="fillColor=none;strokeColor=none;fontSize=14;fontColor=#0085FC;rounded=0;" parent="eFTnabdDzmHTs7a5SszN-42" vertex="1">
          <mxGeometry x="259" y="34.090909090909086" width="48.26086956521739" height="20.454545454545457" as="geometry" />
        </mxCell>
        <mxCell id="eFTnabdDzmHTs7a5SszN-36" value="Login" style="fillColor=none;strokeColor=none;fontSize=14;fontColor=#7D868C;rounded=0;" parent="eFTnabdDzmHTs7a5SszN-42" vertex="1">
          <mxGeometry x="297.60869565217394" y="34.090909090909086" width="64.34782608695652" height="20.454545454545457" as="geometry" />
        </mxCell>
        <mxCell id="eFTnabdDzmHTs7a5SszN-37" value="Home" style="fillColor=none;strokeColor=none;fontSize=14;fontColor=#0085FC;rounded=0;" parent="eFTnabdDzmHTs7a5SszN-42" vertex="1">
          <mxGeometry x="80.43478260869566" y="34.090909090909086" width="64.34782608695652" height="20.454545454545457" as="geometry" />
        </mxCell>
        <mxCell id="eFTnabdDzmHTs7a5SszN-38" value="Get Started" style="strokeWidth=1;shadow=0;dashed=0;align=center;html=1;shape=mxgraph.mockup.forms.rrect;rSize=5;strokeColor=none;fontColor=#ffffff;fillColor=#66bbff;fontSize=16;fontStyle=1;rounded=0;" parent="eFTnabdDzmHTs7a5SszN-42" vertex="1">
          <mxGeometry x="-295.0652173913044" y="205" width="120.65217391304348" height="20.454545454545457" as="geometry" />
        </mxCell>
        <mxCell id="eFTnabdDzmHTs7a5SszN-39" value="Get Started" style="strokeWidth=1;shadow=0;dashed=0;align=center;html=1;shape=mxgraph.mockup.forms.rrect;rSize=5;strokeColor=none;fontColor=#ffffff;fillColor=#66bbff;fontSize=16;fontStyle=1;rounded=0;" parent="eFTnabdDzmHTs7a5SszN-42" vertex="1">
          <mxGeometry x="-151.08695652173913" y="205" width="120.65217391304348" height="20.454545454545457" as="geometry" />
        </mxCell>
        <mxCell id="eFTnabdDzmHTs7a5SszN-40" value="Apprentice" style="text;html=1;strokeColor=none;fillColor=none;align=center;verticalAlign=middle;whiteSpace=wrap;rounded=0;" parent="eFTnabdDzmHTs7a5SszN-42" vertex="1">
          <mxGeometry x="32.97826086956522" y="115.9090909090909" width="48.26086956521739" height="20.454545454545457" as="geometry" />
        </mxCell>
        <mxCell id="eFTnabdDzmHTs7a5SszN-41" value="Community Meber" style="text;html=1;strokeColor=none;fillColor=none;align=center;verticalAlign=middle;whiteSpace=wrap;rounded=0;" parent="eFTnabdDzmHTs7a5SszN-42" vertex="1">
          <mxGeometry x="168.91304347826087" y="115.9090909090909" width="88.47826086956522" height="20.454545454545457" as="geometry" />
        </mxCell>
        <mxCell id="eFTnabdDzmHTs7a5SszN-43" style="edgeStyle=orthogonalEdgeStyle;rounded=0;orthogonalLoop=1;jettySize=auto;html=1;entryX=0.5;entryY=0;entryDx=0;entryDy=0;dashed=1;" parent="WIyWlLk6GJQsqaUBKTNV-1" source="eFTnabdDzmHTs7a5SszN-32" target="WIyWlLk6GJQsqaUBKTNV-3" edge="1">
          <mxGeometry relative="1" as="geometry">
            <Array as="points">
              <mxPoint y="100" />
            </Array>
          </mxGeometry>
        </mxCell>
        <mxCell id="eFTnabdDzmHTs7a5SszN-57" value="" style="edgeStyle=orthogonalEdgeStyle;rounded=0;orthogonalLoop=1;jettySize=auto;html=1;" parent="WIyWlLk6GJQsqaUBKTNV-1" source="eFTnabdDzmHTs7a5SszN-56" target="eFTnabdDzmHTs7a5SszN-7" edge="1">
          <mxGeometry relative="1" as="geometry">
            <Array as="points">
              <mxPoint x="620" y="520" />
              <mxPoint x="620" y="520" />
            </Array>
          </mxGeometry>
        </mxCell>
        <mxCell id="pPHWL7X7k9nsCpByzbIq-6" value="YES" style="edgeLabel;html=1;align=center;verticalAlign=middle;resizable=0;points=[];" vertex="1" connectable="0" parent="eFTnabdDzmHTs7a5SszN-57">
          <mxGeometry x="-0.1345" y="-1" relative="1" as="geometry">
            <mxPoint x="3" y="-1" as="offset" />
          </mxGeometry>
        </mxCell>
        <mxCell id="eFTnabdDzmHTs7a5SszN-59" value="" style="edgeStyle=orthogonalEdgeStyle;rounded=0;orthogonalLoop=1;jettySize=auto;html=1;exitX=0;exitY=0.5;exitDx=0;exitDy=0;" parent="WIyWlLk6GJQsqaUBKTNV-1" source="eFTnabdDzmHTs7a5SszN-56" target="eFTnabdDzmHTs7a5SszN-58" edge="1">
          <mxGeometry relative="1" as="geometry" />
        </mxCell>
        <mxCell id="pPHWL7X7k9nsCpByzbIq-4" value="NO" style="edgeLabel;html=1;align=center;verticalAlign=middle;resizable=0;points=[];" vertex="1" connectable="0" parent="eFTnabdDzmHTs7a5SszN-59">
          <mxGeometry x="-0.2524" y="3" relative="1" as="geometry">
            <mxPoint x="30" y="-91" as="offset" />
          </mxGeometry>
        </mxCell>
        <mxCell id="eFTnabdDzmHTs7a5SszN-56" value="New Member?" style="rhombus;whiteSpace=wrap;html=1;shadow=0;fontFamily=Helvetica;fontSize=12;align=center;strokeWidth=1;spacing=6;spacingTop=-4;" parent="WIyWlLk6GJQsqaUBKTNV-1" vertex="1">
          <mxGeometry x="470" y="480" width="100" height="80" as="geometry" />
        </mxCell>
        <mxCell id="eFTnabdDzmHTs7a5SszN-121" value="GO TO MY PROFILE" style="edgeStyle=orthogonalEdgeStyle;rounded=0;orthogonalLoop=1;jettySize=auto;html=1;entryX=0;entryY=0.5;entryDx=0;entryDy=0;startArrow=classic;startFill=1;" parent="WIyWlLk6GJQsqaUBKTNV-1" source="eFTnabdDzmHTs7a5SszN-58" target="eFTnabdDzmHTs7a5SszN-120" edge="1">
          <mxGeometry relative="1" as="geometry">
            <Array as="points">
              <mxPoint x="740" y="910" />
            </Array>
          </mxGeometry>
        </mxCell>
        <mxCell id="eFTnabdDzmHTs7a5SszN-180" style="edgeStyle=orthogonalEdgeStyle;rounded=0;orthogonalLoop=1;jettySize=auto;html=1;startArrow=classic;startFill=1;entryX=0.5;entryY=0;entryDx=0;entryDy=0;" parent="WIyWlLk6GJQsqaUBKTNV-1" edge="1">
          <mxGeometry relative="1" as="geometry">
            <mxPoint x="692" y="1008.01" as="targetPoint" />
            <mxPoint x="500" y="978.0626315789475" as="sourcePoint" />
            <Array as="points">
              <mxPoint x="692" y="978.01" />
            </Array>
          </mxGeometry>
        </mxCell>
        <mxCell id="pPHWL7X7k9nsCpByzbIq-43" value="GO TO JOB CREATION" style="edgeLabel;html=1;align=center;verticalAlign=middle;resizable=0;points=[];" vertex="1" connectable="0" parent="eFTnabdDzmHTs7a5SszN-180">
          <mxGeometry x="0.0625" y="-2" relative="1" as="geometry">
            <mxPoint x="-8" as="offset" />
          </mxGeometry>
        </mxCell>
        <mxCell id="pPHWL7X7k9nsCpByzbIq-11" style="edgeStyle=orthogonalEdgeStyle;rounded=0;orthogonalLoop=1;jettySize=auto;html=1;startArrow=classic;startFill=1;endArrow=classic;endFill=1;strokeWidth=1;entryX=0.417;entryY=0;entryDx=0;entryDy=0;entryPerimeter=0;" edge="1" parent="WIyWlLk6GJQsqaUBKTNV-1" source="eFTnabdDzmHTs7a5SszN-58" target="eFTnabdDzmHTs7a5SszN-228">
          <mxGeometry relative="1" as="geometry">
            <mxPoint x="240.00000000000045" y="1050" as="targetPoint" />
          </mxGeometry>
        </mxCell>
        <mxCell id="pPHWL7X7k9nsCpByzbIq-44" value="VIEW JOB APPLICANT DETAILS" style="edgeLabel;html=1;align=center;verticalAlign=middle;resizable=0;points=[];" vertex="1" connectable="0" parent="pPHWL7X7k9nsCpByzbIq-11">
          <mxGeometry x="-0.0081" y="1" relative="1" as="geometry">
            <mxPoint x="30" y="-1" as="offset" />
          </mxGeometry>
        </mxCell>
        <mxCell id="eFTnabdDzmHTs7a5SszN-58" value="&lt;font style=&quot;font-size: 20px&quot;&gt;Member landing page/job listing&lt;/font&gt;" style="whiteSpace=wrap;html=1;shadow=0;strokeWidth=1;spacing=6;spacingTop=-4;" parent="WIyWlLk6GJQsqaUBKTNV-1" vertex="1">
          <mxGeometry x="314" y="870" width="186" height="130" as="geometry" />
        </mxCell>
        <mxCell id="eFTnabdDzmHTs7a5SszN-67" value="" style="group" parent="WIyWlLk6GJQsqaUBKTNV-1" vertex="1" connectable="0">
          <mxGeometry x="950" y="1050" width="490" height="540" as="geometry" />
        </mxCell>
        <mxCell id="eFTnabdDzmHTs7a5SszN-46" value="" style="strokeWidth=1;shadow=0;dashed=0;align=center;html=1;shape=mxgraph.mockup.containers.window;align=left;verticalAlign=top;spacingLeft=8;strokeColor2=#008cff;strokeColor3=#c4c4c4;fontColor=#666666;mainText=;fontSize=17;labelBackgroundColor=none;rounded=0;" parent="eFTnabdDzmHTs7a5SszN-67" vertex="1">
          <mxGeometry x="-530" y="185" width="430" height="518.323702750955" as="geometry" />
        </mxCell>
        <mxCell id="eFTnabdDzmHTs7a5SszN-50" value="Log out" style="fillColor=none;strokeColor=none;fontSize=14;fontColor=#7D868C;rounded=0;" parent="eFTnabdDzmHTs7a5SszN-67" vertex="1">
          <mxGeometry x="-184.1304347826087" y="221.6824812898031" width="74.78260869565217" height="43.35070968462535" as="geometry" />
        </mxCell>
        <mxCell id="eFTnabdDzmHTs7a5SszN-53" value="Create Job Listing" style="strokeWidth=1;shadow=0;dashed=0;align=center;html=1;shape=mxgraph.mockup.forms.rrect;rSize=5;strokeColor=none;fontColor=#ffffff;fillColor=#66bbff;fontSize=16;fontStyle=1;rounded=0;" parent="eFTnabdDzmHTs7a5SszN-67" vertex="1">
          <mxGeometry x="-313.12652173913045" y="441.76367465058803" width="140.21739130434784" height="43.35070968462535" as="geometry" />
        </mxCell>
        <mxCell id="eFTnabdDzmHTs7a5SszN-60" value="" style="strokeWidth=1;shadow=0;dashed=0;align=center;html=1;shape=mxgraph.mockup.forms.rrect;rSize=0;strokeColor=#999999;fillColor=#ffffff;rounded=0;" parent="eFTnabdDzmHTs7a5SszN-67" vertex="1">
          <mxGeometry x="-501.9586956521739" y="257.25229436436746" width="140.21739130434784" height="245.6540215462103" as="geometry" />
        </mxCell>
        <mxCell id="eFTnabdDzmHTs7a5SszN-61" value="Job list" style="strokeWidth=1;shadow=0;dashed=0;align=center;html=1;shape=mxgraph.mockup.forms.rrect;rSize=0;strokeColor=#999999;fontColor=#008cff;fontSize=17;fillColor=#ffffff;resizeWidth=1;rounded=0;" parent="eFTnabdDzmHTs7a5SszN-60" vertex="1">
          <mxGeometry width="140.21739130434784" height="30" relative="1" as="geometry" />
        </mxCell>
        <mxCell id="eFTnabdDzmHTs7a5SszN-62" value="#12 Plumbing" style="strokeWidth=1;shadow=0;dashed=0;align=center;html=1;shape=mxgraph.mockup.forms.anchor;fontSize=17;fontColor=#666666;align=left;spacingLeft=5;resizeWidth=1;rounded=0;" parent="eFTnabdDzmHTs7a5SszN-60" vertex="1">
          <mxGeometry width="140.21739130434784" height="20" relative="1" as="geometry">
            <mxPoint y="30" as="offset" />
          </mxGeometry>
        </mxCell>
        <mxCell id="eFTnabdDzmHTs7a5SszN-63" value="#123 ZBCD" style="strokeWidth=1;shadow=0;dashed=0;align=center;html=1;shape=mxgraph.mockup.forms.anchor;fontSize=17;fontColor=#666666;align=left;spacingLeft=5;resizeWidth=1;rounded=0;" parent="eFTnabdDzmHTs7a5SszN-60" vertex="1">
          <mxGeometry width="140.21739130434784" height="20" relative="1" as="geometry">
            <mxPoint y="50" as="offset" />
          </mxGeometry>
        </mxCell>
        <mxCell id="eFTnabdDzmHTs7a5SszN-64" value="#4534&amp;nbsp;" style="strokeWidth=1;shadow=0;dashed=0;align=center;html=1;shape=mxgraph.mockup.forms.rrect;rSize=0;fontSize=17;fontColor=#666666;align=left;spacingLeft=5;fillColor=#ddeeff;strokeColor=none;resizeWidth=1;rounded=0;" parent="eFTnabdDzmHTs7a5SszN-60" vertex="1">
          <mxGeometry width="140.21739130434784" height="20" relative="1" as="geometry">
            <mxPoint y="70" as="offset" />
          </mxGeometry>
        </mxCell>
        <mxCell id="eFTnabdDzmHTs7a5SszN-65" value="#43 ABVD" style="strokeWidth=1;shadow=0;dashed=0;align=center;html=1;shape=mxgraph.mockup.forms.anchor;fontSize=17;fontColor=#666666;align=left;spacingLeft=5;resizeWidth=1;rounded=0;" parent="eFTnabdDzmHTs7a5SszN-60" vertex="1">
          <mxGeometry width="140.21739130434784" height="20" relative="1" as="geometry">
            <mxPoint y="90" as="offset" />
          </mxGeometry>
        </mxCell>
        <mxCell id="eFTnabdDzmHTs7a5SszN-66" value="Job details&lt;br&gt;Title: sdfsdfsdds&lt;br&gt;Location: ....&lt;br&gt;Date : 11/11/2022&lt;br&gt;Status&lt;br&gt;Applications: 5&amp;nbsp;" style="strokeWidth=1;shadow=0;dashed=0;align=center;html=1;shape=mxgraph.mockup.text.bulletedList;textColor=#666666;mainText=,,,,;textSize=17;bulletStyle=none;strokeColor=none;fillColor=none;align=left;verticalAlign=top;fontSize=17;fontColor=#666666;rounded=0;" parent="eFTnabdDzmHTs7a5SszN-67" vertex="1">
          <mxGeometry x="-313.1343478260869" y="265.03874875772135" width="140.21739130434784" height="158.9526021769596" as="geometry" />
        </mxCell>
        <mxCell id="eFTnabdDzmHTs7a5SszN-220" value="" style="strokeWidth=1;shadow=0;dashed=0;align=center;html=1;shape=mxgraph.mockup.forms.rrect;rSize=0;strokeColor=#999999;fillColor=#ffffff;rounded=0;" parent="eFTnabdDzmHTs7a5SszN-67" vertex="1">
          <mxGeometry x="-501.96" y="516.73" width="356.22" height="168.27" as="geometry" />
        </mxCell>
        <mxCell id="eFTnabdDzmHTs7a5SszN-221" value="Applicants" style="strokeWidth=1;shadow=0;dashed=0;align=center;html=1;shape=mxgraph.mockup.forms.rrect;rSize=0;strokeColor=#999999;fontColor=#008cff;fontSize=17;fillColor=#ffffff;resizeWidth=1;rounded=0;" parent="eFTnabdDzmHTs7a5SszN-220" vertex="1">
          <mxGeometry width="356.2200000000001" height="30" relative="1" as="geometry" />
        </mxCell>
        <mxCell id="eFTnabdDzmHTs7a5SszN-222" value="Tommy Yoon&amp;nbsp; - ( - applied date - )" style="strokeWidth=1;shadow=0;dashed=0;align=center;html=1;shape=mxgraph.mockup.forms.anchor;fontSize=17;fontColor=#666666;align=left;spacingLeft=5;resizeWidth=1;rounded=0;" parent="eFTnabdDzmHTs7a5SszN-220" vertex="1">
          <mxGeometry width="356.2200000000001" height="20" relative="1" as="geometry">
            <mxPoint y="30" as="offset" />
          </mxGeometry>
        </mxCell>
        <mxCell id="eFTnabdDzmHTs7a5SszN-223" value="Tommy Yoon&amp;nbsp; - I want to work for you" style="strokeWidth=1;shadow=0;dashed=0;align=center;html=1;shape=mxgraph.mockup.forms.anchor;fontSize=17;fontColor=#666666;align=left;spacingLeft=5;resizeWidth=1;rounded=0;" parent="eFTnabdDzmHTs7a5SszN-220" vertex="1">
          <mxGeometry width="356.2200000000001" height="20" relative="1" as="geometry">
            <mxPoint y="50" as="offset" />
          </mxGeometry>
        </mxCell>
        <mxCell id="eFTnabdDzmHTs7a5SszN-224" value="Tommy Yoon&amp;nbsp; - I want to work for you" style="strokeWidth=1;shadow=0;dashed=0;align=center;html=1;shape=mxgraph.mockup.forms.rrect;rSize=0;fontSize=17;fontColor=#666666;align=left;spacingLeft=5;fillColor=#ddeeff;strokeColor=none;resizeWidth=1;rounded=0;" parent="eFTnabdDzmHTs7a5SszN-220" vertex="1">
          <mxGeometry width="356.2200000000001" height="20" relative="1" as="geometry">
            <mxPoint y="70" as="offset" />
          </mxGeometry>
        </mxCell>
        <mxCell id="eFTnabdDzmHTs7a5SszN-225" value="Tommy Yoon&amp;nbsp; - I want to work for you" style="strokeWidth=1;shadow=0;dashed=0;align=center;html=1;shape=mxgraph.mockup.forms.anchor;fontSize=17;fontColor=#666666;align=left;spacingLeft=5;resizeWidth=1;rounded=0;" parent="eFTnabdDzmHTs7a5SszN-220" vertex="1">
          <mxGeometry width="356.2200000000001" height="20" relative="1" as="geometry">
            <mxPoint y="110" as="offset" />
          </mxGeometry>
        </mxCell>
        <mxCell id="eFTnabdDzmHTs7a5SszN-226" value="Tommy Yoon&amp;nbsp; - I want to work for you" style="strokeWidth=1;shadow=0;dashed=0;align=center;html=1;shape=mxgraph.mockup.forms.anchor;fontSize=17;fontColor=#666666;align=left;spacingLeft=5;resizeWidth=1;rounded=0;" parent="eFTnabdDzmHTs7a5SszN-220" vertex="1">
          <mxGeometry x="-1.9938715638419607e-13" y="94.65424471246476" width="356.2200000000001" height="16.750783933104376" as="geometry" />
        </mxCell>
        <mxCell id="eFTnabdDzmHTs7a5SszN-217" value="" style="group" parent="eFTnabdDzmHTs7a5SszN-67" vertex="1" connectable="0">
          <mxGeometry x="60" y="110" width="430" height="250" as="geometry" />
        </mxCell>
        <mxCell id="eFTnabdDzmHTs7a5SszN-183" value="" style="strokeWidth=1;shadow=0;dashed=0;align=center;html=1;shape=mxgraph.mockup.containers.window;align=left;verticalAlign=top;spacingLeft=8;strokeColor2=#008cff;strokeColor3=#c4c4c4;fontColor=#666666;mainText=;fontSize=17;labelBackgroundColor=none;rounded=0;" parent="eFTnabdDzmHTs7a5SszN-217" vertex="1">
          <mxGeometry width="430" height="250" as="geometry" />
        </mxCell>
        <mxCell id="eFTnabdDzmHTs7a5SszN-189" value="Submit" style="strokeWidth=1;shadow=0;dashed=0;align=center;html=1;shape=mxgraph.mockup.forms.rrect;rSize=5;strokeColor=none;fontColor=#ffffff;fillColor=#66bbff;fontSize=16;fontStyle=1;rounded=0;" parent="eFTnabdDzmHTs7a5SszN-217" vertex="1">
          <mxGeometry x="144.89347826086964" y="209.99818181818182" width="140.21739130434784" height="22.72727272727273" as="geometry" />
        </mxCell>
        <mxCell id="eFTnabdDzmHTs7a5SszN-198" value="Plumber" style="strokeWidth=1;shadow=0;dashed=0;align=center;html=1;shape=mxgraph.mockup.forms.comboBox;strokeColor=#999999;fillColor=#ddeeff;align=left;fillColor2=#aaddff;mainText=;fontColor=#666666;fontSize=17;spacingLeft=3;rounded=0;" parent="eFTnabdDzmHTs7a5SszN-217" vertex="1">
          <mxGeometry x="125.89" y="155.0000000000001" width="134.89" height="20" as="geometry" />
        </mxCell>
        <mxCell id="eFTnabdDzmHTs7a5SszN-199" value="Paid" style="shape=ellipse;fillColor=#eeeeee;strokeColor=#999999;gradientColor=#cccccc;html=1;align=left;spacingLeft=4;fontSize=17;fontColor=#666666;labelPosition=right;shadow=0;rounded=0;" parent="eFTnabdDzmHTs7a5SszN-217" vertex="1">
          <mxGeometry x="126.27999999999999" y="130.0000000000001" width="15" height="15" as="geometry" />
        </mxCell>
        <mxCell id="eFTnabdDzmHTs7a5SszN-200" value="Service type" style="text;html=1;strokeColor=none;fillColor=none;align=center;verticalAlign=middle;whiteSpace=wrap;rounded=0;" parent="eFTnabdDzmHTs7a5SszN-217" vertex="1">
          <mxGeometry x="31.980000000000018" y="147.5" width="76.52" height="30" as="geometry" />
        </mxCell>
        <mxCell id="eFTnabdDzmHTs7a5SszN-202" value="Paid" style="text;html=1;strokeColor=none;fillColor=none;align=center;verticalAlign=middle;whiteSpace=wrap;rounded=0;" parent="eFTnabdDzmHTs7a5SszN-217" vertex="1">
          <mxGeometry x="18.5" y="120" width="60" height="30" as="geometry" />
        </mxCell>
        <mxCell id="eFTnabdDzmHTs7a5SszN-203" value="Unpaid" style="shape=ellipse;fillColor=#eeeeee;strokeColor=#999999;gradientColor=#cccccc;html=1;align=left;spacingLeft=4;fontSize=17;fontColor=#666666;labelPosition=right;shadow=0;rounded=0;" parent="eFTnabdDzmHTs7a5SszN-217" vertex="1">
          <mxGeometry x="196.39" y="130.0000000000001" width="15" height="15" as="geometry" />
        </mxCell>
        <mxCell id="eFTnabdDzmHTs7a5SszN-208" value="Looking for...." style="strokeWidth=1;shadow=0;dashed=0;align=center;html=1;shape=mxgraph.mockup.text.textBox;fontColor=#666666;align=left;fontSize=17;spacingLeft=4;spacingTop=-3;strokeColor=#666666;mainText=;rounded=0;" parent="eFTnabdDzmHTs7a5SszN-217" vertex="1">
          <mxGeometry x="125.88999999999999" y="62.5" width="150" height="15" as="geometry" />
        </mxCell>
        <mxCell id="eFTnabdDzmHTs7a5SszN-209" value="Title" style="text;html=1;strokeColor=none;fillColor=none;align=center;verticalAlign=middle;whiteSpace=wrap;rounded=0;" parent="eFTnabdDzmHTs7a5SszN-217" vertex="1">
          <mxGeometry x="13.5" y="55" width="60" height="30" as="geometry" />
        </mxCell>
        <mxCell id="eFTnabdDzmHTs7a5SszN-210" value="" style="strokeWidth=1;shadow=0;dashed=0;align=center;html=1;shape=mxgraph.mockup.text.textBox;fontColor=#666666;align=left;fontSize=17;spacingLeft=4;spacingTop=-3;strokeColor=#666666;mainText=;rounded=0;" parent="eFTnabdDzmHTs7a5SszN-217" vertex="1">
          <mxGeometry x="125.88999999999999" y="85" width="247.61" height="35" as="geometry" />
        </mxCell>
        <mxCell id="eFTnabdDzmHTs7a5SszN-211" value="Description" style="text;html=1;strokeColor=none;fillColor=none;align=center;verticalAlign=middle;whiteSpace=wrap;rounded=0;" parent="eFTnabdDzmHTs7a5SszN-217" vertex="1">
          <mxGeometry x="33.5" y="85" width="60" height="30" as="geometry" />
        </mxCell>
        <mxCell id="pPHWL7X7k9nsCpByzbIq-284" value="Back" style="strokeWidth=1;shadow=0;dashed=0;align=center;html=1;shape=mxgraph.mockup.forms.rrect;rSize=5;strokeColor=none;fontColor=#ffffff;fillColor=#66bbff;fontSize=16;fontStyle=1;rounded=0;" vertex="1" parent="eFTnabdDzmHTs7a5SszN-217">
          <mxGeometry x="359.8900000000001" y="32.15000000000009" width="50" height="14.18" as="geometry" />
        </mxCell>
        <mxCell id="pPHWL7X7k9nsCpByzbIq-9" value="" style="endArrow=classic;html=1;rounded=0;entryX=0;entryY=0.567;entryDx=0;entryDy=0;entryPerimeter=0;fillColor=#d5e8d4;strokeColor=#82b366;strokeWidth=2;exitX=1;exitY=0.519;exitDx=0;exitDy=0;exitPerimeter=0;dashed=1;" edge="1" parent="eFTnabdDzmHTs7a5SszN-67" source="eFTnabdDzmHTs7a5SszN-53" target="eFTnabdDzmHTs7a5SszN-183">
          <mxGeometry width="50" height="50" relative="1" as="geometry">
            <mxPoint x="-90" y="368" as="sourcePoint" />
            <mxPoint x="60" y="480" as="targetPoint" />
            <Array as="points">
              <mxPoint x="10" y="464" />
              <mxPoint x="10" y="252" />
            </Array>
          </mxGeometry>
        </mxCell>
        <mxCell id="pPHWL7X7k9nsCpByzbIq-113" style="edgeStyle=orthogonalEdgeStyle;rounded=0;orthogonalLoop=1;jettySize=auto;html=1;entryX=1.007;entryY=0.713;entryDx=0;entryDy=0;entryPerimeter=0;dashed=1;startArrow=none;startFill=0;endArrow=classic;endFill=1;strokeWidth=2;fillColor=#d5e8d4;strokeColor=#82b366;" edge="1" parent="eFTnabdDzmHTs7a5SszN-67" source="eFTnabdDzmHTs7a5SszN-189" target="eFTnabdDzmHTs7a5SszN-46">
          <mxGeometry relative="1" as="geometry">
            <Array as="points">
              <mxPoint x="270" y="555" />
            </Array>
          </mxGeometry>
        </mxCell>
        <mxCell id="eFTnabdDzmHTs7a5SszN-83" style="edgeStyle=orthogonalEdgeStyle;rounded=0;orthogonalLoop=1;jettySize=auto;html=1;dashed=1;" parent="WIyWlLk6GJQsqaUBKTNV-1" source="eFTnabdDzmHTs7a5SszN-46" edge="1">
          <mxGeometry relative="1" as="geometry">
            <Array as="points">
              <mxPoint x="440" y="1000" />
            </Array>
            <mxPoint x="440" y="1000" as="targetPoint" />
          </mxGeometry>
        </mxCell>
        <mxCell id="eFTnabdDzmHTs7a5SszN-118" style="edgeStyle=orthogonalEdgeStyle;rounded=0;orthogonalLoop=1;jettySize=auto;html=1;entryX=1;entryY=0.5;entryDx=0;entryDy=0;dashed=1;" parent="WIyWlLk6GJQsqaUBKTNV-1" source="eFTnabdDzmHTs7a5SszN-85" target="eFTnabdDzmHTs7a5SszN-7" edge="1">
          <mxGeometry relative="1" as="geometry" />
        </mxCell>
        <mxCell id="eFTnabdDzmHTs7a5SszN-154" value="" style="edgeStyle=orthogonalEdgeStyle;rounded=0;orthogonalLoop=1;jettySize=auto;html=1;startArrow=classic;startFill=1;" parent="WIyWlLk6GJQsqaUBKTNV-1" source="eFTnabdDzmHTs7a5SszN-120" target="eFTnabdDzmHTs7a5SszN-153" edge="1">
          <mxGeometry relative="1" as="geometry" />
        </mxCell>
        <mxCell id="eFTnabdDzmHTs7a5SszN-120" value="Member profile" style="rounded=0;whiteSpace=wrap;html=1;" parent="WIyWlLk6GJQsqaUBKTNV-1" vertex="1">
          <mxGeometry x="740" y="880" width="120" height="60" as="geometry" />
        </mxCell>
        <mxCell id="eFTnabdDzmHTs7a5SszN-149" style="edgeStyle=orthogonalEdgeStyle;rounded=0;orthogonalLoop=1;jettySize=auto;html=1;entryX=1;entryY=0.5;entryDx=0;entryDy=0;dashed=1;" parent="WIyWlLk6GJQsqaUBKTNV-1" source="eFTnabdDzmHTs7a5SszN-122" target="eFTnabdDzmHTs7a5SszN-120" edge="1">
          <mxGeometry relative="1" as="geometry">
            <Array as="points">
              <mxPoint x="980" y="910" />
              <mxPoint x="980" y="910" />
            </Array>
          </mxGeometry>
        </mxCell>
        <mxCell id="eFTnabdDzmHTs7a5SszN-153" value="Member Profile Edit" style="whiteSpace=wrap;html=1;rounded=0;" parent="WIyWlLk6GJQsqaUBKTNV-1" vertex="1">
          <mxGeometry x="740" y="690" width="120" height="60" as="geometry" />
        </mxCell>
        <mxCell id="eFTnabdDzmHTs7a5SszN-175" value="" style="group" parent="WIyWlLk6GJQsqaUBKTNV-1" vertex="1" connectable="0">
          <mxGeometry x="1010" y="550" width="370" height="220" as="geometry" />
        </mxCell>
        <mxCell id="eFTnabdDzmHTs7a5SszN-155" value="" style="strokeWidth=1;shadow=0;dashed=0;align=center;html=1;shape=mxgraph.mockup.containers.window;align=left;verticalAlign=top;spacingLeft=8;strokeColor2=#008cff;strokeColor3=#c4c4c4;fontColor=#666666;mainText=;fontSize=17;labelBackgroundColor=none;rounded=0;" parent="eFTnabdDzmHTs7a5SszN-175" vertex="1">
          <mxGeometry width="369.99999999999994" height="220" as="geometry" />
        </mxCell>
        <mxCell id="eFTnabdDzmHTs7a5SszN-161" value="Save" style="strokeWidth=1;shadow=0;dashed=0;align=center;html=1;shape=mxgraph.mockup.forms.rrect;rSize=5;strokeColor=none;fontColor=#ffffff;fillColor=#66bbff;fontSize=16;fontStyle=1;rounded=0;" parent="eFTnabdDzmHTs7a5SszN-175" vertex="1">
          <mxGeometry x="64.3478260869565" y="180.71142857142857" width="120.65217391304346" height="20" as="geometry" />
        </mxCell>
        <mxCell id="eFTnabdDzmHTs7a5SszN-162" value="Line 1" style="strokeWidth=1;shadow=0;dashed=0;align=center;html=1;shape=mxgraph.mockup.text.textBox;fontColor=#666666;align=left;fontSize=17;spacingLeft=4;spacingTop=-3;strokeColor=#666666;mainText=;rounded=0;" parent="eFTnabdDzmHTs7a5SszN-175" vertex="1">
          <mxGeometry x="88.4782608695652" y="55" width="108.18478260869564" height="15.714285714285715" as="geometry" />
        </mxCell>
        <mxCell id="eFTnabdDzmHTs7a5SszN-163" value="Name" style="text;html=1;strokeColor=none;fillColor=none;align=center;verticalAlign=middle;whiteSpace=wrap;rounded=0;" parent="eFTnabdDzmHTs7a5SszN-175" vertex="1">
          <mxGeometry x="24.93478260869565" y="55" width="48.260869565217384" height="23.57142857142857" as="geometry" />
        </mxCell>
        <mxCell id="eFTnabdDzmHTs7a5SszN-164" value="Line 1" style="strokeWidth=1;shadow=0;dashed=0;align=center;html=1;shape=mxgraph.mockup.text.textBox;fontColor=#666666;align=left;fontSize=17;spacingLeft=4;spacingTop=-3;strokeColor=#666666;mainText=;rounded=0;" parent="eFTnabdDzmHTs7a5SszN-175" vertex="1">
          <mxGeometry x="88.4782608695652" y="78.57142857142857" width="104.56521739130433" height="15.714285714285715" as="geometry" />
        </mxCell>
        <mxCell id="eFTnabdDzmHTs7a5SszN-165" value="Phone" style="text;html=1;strokeColor=none;fillColor=none;align=center;verticalAlign=middle;whiteSpace=wrap;rounded=0;" parent="eFTnabdDzmHTs7a5SszN-175" vertex="1">
          <mxGeometry x="24.93478260869565" y="102.14285714285712" width="48.260869565217384" height="23.57142857142857" as="geometry" />
        </mxCell>
        <mxCell id="eFTnabdDzmHTs7a5SszN-166" value="Email&lt;br&gt;" style="text;html=1;strokeColor=none;fillColor=none;align=center;verticalAlign=middle;whiteSpace=wrap;rounded=0;" parent="eFTnabdDzmHTs7a5SszN-175" vertex="1">
          <mxGeometry x="24.93478260869565" y="74.64285714285714" width="48.260869565217384" height="23.57142857142857" as="geometry" />
        </mxCell>
        <mxCell id="eFTnabdDzmHTs7a5SszN-167" value="Birth date" style="text;html=1;strokeColor=none;fillColor=none;align=center;verticalAlign=middle;whiteSpace=wrap;rounded=0;" parent="eFTnabdDzmHTs7a5SszN-175" vertex="1">
          <mxGeometry x="32.17391304347825" y="125.71428571428572" width="48.260869565217384" height="23.57142857142857" as="geometry" />
        </mxCell>
        <mxCell id="eFTnabdDzmHTs7a5SszN-168" value="Gender" style="text;html=1;strokeColor=none;fillColor=none;align=center;verticalAlign=middle;whiteSpace=wrap;rounded=0;" parent="eFTnabdDzmHTs7a5SszN-175" vertex="1">
          <mxGeometry x="32.17391304347825" y="153.2142857142857" width="48.260869565217384" height="23.57142857142857" as="geometry" />
        </mxCell>
        <mxCell id="eFTnabdDzmHTs7a5SszN-169" value="Line 1" style="strokeWidth=1;shadow=0;dashed=0;align=center;html=1;shape=mxgraph.mockup.text.textBox;fontColor=#666666;align=left;fontSize=17;spacingLeft=4;spacingTop=-3;strokeColor=#666666;mainText=;rounded=0;" parent="eFTnabdDzmHTs7a5SszN-175" vertex="1">
          <mxGeometry x="88.4782608695652" y="106.07142857142857" width="104.56521739130433" height="15.714285714285715" as="geometry" />
        </mxCell>
        <mxCell id="eFTnabdDzmHTs7a5SszN-170" value="Line 1" style="strokeWidth=1;shadow=0;dashed=0;align=center;html=1;shape=mxgraph.mockup.text.textBox;fontColor=#666666;align=left;fontSize=17;spacingLeft=4;spacingTop=-3;strokeColor=#666666;mainText=;rounded=0;" parent="eFTnabdDzmHTs7a5SszN-175" vertex="1">
          <mxGeometry x="88.4782608695652" y="129.6428571428571" width="104.56521739130433" height="15.714285714285715" as="geometry" />
        </mxCell>
        <mxCell id="eFTnabdDzmHTs7a5SszN-171" value="Male&lt;span style=&quot;white-space: pre&quot;&gt; &lt;/span&gt;" style="html=1;shadow=0;dashed=0;shape=mxgraph.bootstrap.radioButton2;labelPosition=right;verticalLabelPosition=middle;align=left;verticalAlign=middle;gradientColor=#DEDEDE;fillColor=#EDEDED;checked=0;spacing=5;checkedFill=#0085FC;checkedStroke=#ffffff;rounded=0;" parent="eFTnabdDzmHTs7a5SszN-175" vertex="1">
          <mxGeometry x="101.3478260869565" y="161.07142857142856" width="8.043478260869563" height="7.857142857142858" as="geometry" />
        </mxCell>
        <mxCell id="eFTnabdDzmHTs7a5SszN-172" value="Femaile" style="html=1;shadow=0;dashed=0;shape=mxgraph.bootstrap.radioButton2;labelPosition=right;verticalLabelPosition=middle;align=left;verticalAlign=middle;gradientColor=#DEDEDE;fillColor=#EDEDED;checked=0;spacing=5;checkedFill=#0085FC;checkedStroke=#ffffff;rounded=0;" parent="eFTnabdDzmHTs7a5SszN-175" vertex="1">
          <mxGeometry x="141.56521739130434" y="161.07142857142856" width="8.043478260869563" height="7.857142857142858" as="geometry" />
        </mxCell>
        <mxCell id="eFTnabdDzmHTs7a5SszN-173" value="Not specified" style="html=1;shadow=0;dashed=0;shape=mxgraph.bootstrap.radioButton2;labelPosition=right;verticalLabelPosition=middle;align=left;verticalAlign=middle;gradientColor=#DEDEDE;fillColor=#EDEDED;checked=0;strokeColor=#D0D0D0;spacing=5;fontColor=#6C767D;checkedFill=#0085FC;checkedStroke=#ffffff;rounded=0;" parent="eFTnabdDzmHTs7a5SszN-175" vertex="1">
          <mxGeometry x="201.08695652173913" y="161.07142857142856" width="8.043478260869563" height="7.857142857142858" as="geometry" />
        </mxCell>
        <mxCell id="eFTnabdDzmHTs7a5SszN-174" value="Cancel" style="strokeWidth=1;shadow=0;dashed=0;align=center;html=1;shape=mxgraph.mockup.forms.rrect;rSize=5;strokeColor=none;fontColor=#ffffff;fillColor=#66bbff;fontSize=16;fontStyle=1;rounded=0;" parent="eFTnabdDzmHTs7a5SszN-175" vertex="1">
          <mxGeometry x="201.08695652173913" y="180.71142857142857" width="120.65217391304346" height="20" as="geometry" />
        </mxCell>
        <mxCell id="pPHWL7X7k9nsCpByzbIq-286" value="Back" style="strokeWidth=1;shadow=0;dashed=0;align=center;html=1;shape=mxgraph.mockup.forms.rrect;rSize=5;strokeColor=none;fontColor=#ffffff;fillColor=#66bbff;fontSize=16;fontStyle=1;rounded=0;" vertex="1" parent="eFTnabdDzmHTs7a5SszN-175">
          <mxGeometry x="290.37000000000035" y="35.000000000000114" width="50" height="14.18" as="geometry" />
        </mxCell>
        <mxCell id="eFTnabdDzmHTs7a5SszN-176" value="" style="group" parent="WIyWlLk6GJQsqaUBKTNV-1" vertex="1" connectable="0">
          <mxGeometry x="1010" y="290" width="370" height="220" as="geometry" />
        </mxCell>
        <mxCell id="eFTnabdDzmHTs7a5SszN-85" value="" style="strokeWidth=1;shadow=0;dashed=0;align=center;html=1;shape=mxgraph.mockup.containers.window;align=left;verticalAlign=top;spacingLeft=8;strokeColor2=#008cff;strokeColor3=#c4c4c4;fontColor=#666666;mainText=;fontSize=17;labelBackgroundColor=none;rounded=0;" parent="eFTnabdDzmHTs7a5SszN-176" vertex="1">
          <mxGeometry width="370" height="220" as="geometry" />
        </mxCell>
        <mxCell id="eFTnabdDzmHTs7a5SszN-91" value="Save" style="strokeWidth=1;shadow=0;dashed=0;align=center;html=1;shape=mxgraph.mockup.forms.rrect;rSize=5;strokeColor=none;fontColor=#ffffff;fillColor=#66bbff;fontSize=16;fontStyle=1;rounded=0;" parent="eFTnabdDzmHTs7a5SszN-176" vertex="1">
          <mxGeometry x="64.34782608695653" y="180.71142857142857" width="120.65217391304348" height="20" as="geometry" />
        </mxCell>
        <mxCell id="eFTnabdDzmHTs7a5SszN-100" value="Line 1" style="strokeWidth=1;shadow=0;dashed=0;align=center;html=1;shape=mxgraph.mockup.text.textBox;fontColor=#666666;align=left;fontSize=17;spacingLeft=4;spacingTop=-3;strokeColor=#666666;mainText=;rounded=0;" parent="eFTnabdDzmHTs7a5SszN-176" vertex="1">
          <mxGeometry x="88.47826086956522" y="55" width="108.18478260869566" height="15.714285714285714" as="geometry" />
        </mxCell>
        <mxCell id="eFTnabdDzmHTs7a5SszN-101" value="Name" style="text;html=1;strokeColor=none;fillColor=none;align=center;verticalAlign=middle;whiteSpace=wrap;rounded=0;" parent="eFTnabdDzmHTs7a5SszN-176" vertex="1">
          <mxGeometry x="24.934782608695652" y="55" width="48.26086956521739" height="23.57142857142857" as="geometry" />
        </mxCell>
        <mxCell id="eFTnabdDzmHTs7a5SszN-102" value="Line 1" style="strokeWidth=1;shadow=0;dashed=0;align=center;html=1;shape=mxgraph.mockup.text.textBox;fontColor=#666666;align=left;fontSize=17;spacingLeft=4;spacingTop=-3;strokeColor=#666666;mainText=;rounded=0;" parent="eFTnabdDzmHTs7a5SszN-176" vertex="1">
          <mxGeometry x="88.47826086956522" y="78.57142857142857" width="104.56521739130434" height="15.714285714285714" as="geometry" />
        </mxCell>
        <mxCell id="eFTnabdDzmHTs7a5SszN-103" value="Phone" style="text;html=1;strokeColor=none;fillColor=none;align=center;verticalAlign=middle;whiteSpace=wrap;rounded=0;" parent="eFTnabdDzmHTs7a5SszN-176" vertex="1">
          <mxGeometry x="24.934782608695652" y="102.14285714285714" width="48.26086956521739" height="23.57142857142857" as="geometry" />
        </mxCell>
        <mxCell id="eFTnabdDzmHTs7a5SszN-106" value="Email&lt;br&gt;" style="text;html=1;strokeColor=none;fillColor=none;align=center;verticalAlign=middle;whiteSpace=wrap;rounded=0;" parent="eFTnabdDzmHTs7a5SszN-176" vertex="1">
          <mxGeometry x="24.934782608695652" y="74.64285714285714" width="48.26086956521739" height="23.57142857142857" as="geometry" />
        </mxCell>
        <mxCell id="eFTnabdDzmHTs7a5SszN-107" value="Birth date" style="text;html=1;strokeColor=none;fillColor=none;align=center;verticalAlign=middle;whiteSpace=wrap;rounded=0;" parent="eFTnabdDzmHTs7a5SszN-176" vertex="1">
          <mxGeometry x="32.173913043478265" y="125.71428571428571" width="48.26086956521739" height="23.57142857142857" as="geometry" />
        </mxCell>
        <mxCell id="eFTnabdDzmHTs7a5SszN-108" value="Gender" style="text;html=1;strokeColor=none;fillColor=none;align=center;verticalAlign=middle;whiteSpace=wrap;rounded=0;" parent="eFTnabdDzmHTs7a5SszN-176" vertex="1">
          <mxGeometry x="32.173913043478265" y="153.21428571428572" width="48.26086956521739" height="23.57142857142857" as="geometry" />
        </mxCell>
        <mxCell id="eFTnabdDzmHTs7a5SszN-110" value="Line 1" style="strokeWidth=1;shadow=0;dashed=0;align=center;html=1;shape=mxgraph.mockup.text.textBox;fontColor=#666666;align=left;fontSize=17;spacingLeft=4;spacingTop=-3;strokeColor=#666666;mainText=;rounded=0;" parent="eFTnabdDzmHTs7a5SszN-176" vertex="1">
          <mxGeometry x="88.47826086956522" y="106.07142857142857" width="104.56521739130434" height="15.714285714285714" as="geometry" />
        </mxCell>
        <mxCell id="eFTnabdDzmHTs7a5SszN-111" value="Line 1" style="strokeWidth=1;shadow=0;dashed=0;align=center;html=1;shape=mxgraph.mockup.text.textBox;fontColor=#666666;align=left;fontSize=17;spacingLeft=4;spacingTop=-3;strokeColor=#666666;mainText=;rounded=0;" parent="eFTnabdDzmHTs7a5SszN-176" vertex="1">
          <mxGeometry x="88.47826086956522" y="129.64285714285714" width="104.56521739130434" height="15.714285714285714" as="geometry" />
        </mxCell>
        <mxCell id="eFTnabdDzmHTs7a5SszN-113" value="Male&lt;span style=&quot;white-space: pre&quot;&gt; &lt;/span&gt;" style="html=1;shadow=0;dashed=0;shape=mxgraph.bootstrap.radioButton2;labelPosition=right;verticalLabelPosition=middle;align=left;verticalAlign=middle;gradientColor=#DEDEDE;fillColor=#EDEDED;checked=0;spacing=5;checkedFill=#0085FC;checkedStroke=#ffffff;rounded=0;" parent="eFTnabdDzmHTs7a5SszN-176" vertex="1">
          <mxGeometry x="101.34782608695653" y="161.07142857142856" width="8.043478260869566" height="7.857142857142857" as="geometry" />
        </mxCell>
        <mxCell id="eFTnabdDzmHTs7a5SszN-114" value="Femaile" style="html=1;shadow=0;dashed=0;shape=mxgraph.bootstrap.radioButton2;labelPosition=right;verticalLabelPosition=middle;align=left;verticalAlign=middle;gradientColor=#DEDEDE;fillColor=#EDEDED;checked=0;spacing=5;checkedFill=#0085FC;checkedStroke=#ffffff;rounded=0;" parent="eFTnabdDzmHTs7a5SszN-176" vertex="1">
          <mxGeometry x="141.56521739130434" y="161.07142857142856" width="8.043478260869566" height="7.857142857142857" as="geometry" />
        </mxCell>
        <mxCell id="eFTnabdDzmHTs7a5SszN-115" value="Not specified" style="html=1;shadow=0;dashed=0;shape=mxgraph.bootstrap.radioButton2;labelPosition=right;verticalLabelPosition=middle;align=left;verticalAlign=middle;gradientColor=#DEDEDE;fillColor=#EDEDED;checked=0;strokeColor=#D0D0D0;spacing=5;fontColor=#6C767D;checkedFill=#0085FC;checkedStroke=#ffffff;rounded=0;" parent="eFTnabdDzmHTs7a5SszN-176" vertex="1">
          <mxGeometry x="201.08695652173913" y="161.07142857142856" width="8.043478260869566" height="7.857142857142857" as="geometry" />
        </mxCell>
        <mxCell id="eFTnabdDzmHTs7a5SszN-119" value="Cancel" style="strokeWidth=1;shadow=0;dashed=0;align=center;html=1;shape=mxgraph.mockup.forms.rrect;rSize=5;strokeColor=none;fontColor=#ffffff;fillColor=#66bbff;fontSize=16;fontStyle=1;rounded=0;" parent="eFTnabdDzmHTs7a5SszN-176" vertex="1">
          <mxGeometry x="201.08695652173913" y="180.71142857142857" width="120.65217391304348" height="20" as="geometry" />
        </mxCell>
        <mxCell id="pPHWL7X7k9nsCpByzbIq-287" value="Back" style="strokeWidth=1;shadow=0;dashed=0;align=center;html=1;shape=mxgraph.mockup.forms.rrect;rSize=5;strokeColor=none;fontColor=#ffffff;fillColor=#66bbff;fontSize=16;fontStyle=1;rounded=0;" vertex="1" parent="eFTnabdDzmHTs7a5SszN-176">
          <mxGeometry x="290.37000000000035" y="40.82000000000015" width="50" height="14.18" as="geometry" />
        </mxCell>
        <mxCell id="eFTnabdDzmHTs7a5SszN-178" style="edgeStyle=orthogonalEdgeStyle;rounded=0;orthogonalLoop=1;jettySize=auto;html=1;entryX=1;entryY=0.5;entryDx=0;entryDy=0;dashed=1;" parent="WIyWlLk6GJQsqaUBKTNV-1" source="eFTnabdDzmHTs7a5SszN-155" target="eFTnabdDzmHTs7a5SszN-153" edge="1">
          <mxGeometry relative="1" as="geometry">
            <Array as="points">
              <mxPoint x="960" y="720" />
              <mxPoint x="960" y="720" />
            </Array>
          </mxGeometry>
        </mxCell>
        <mxCell id="eFTnabdDzmHTs7a5SszN-179" value="" style="group" parent="WIyWlLk6GJQsqaUBKTNV-1" vertex="1" connectable="0">
          <mxGeometry x="1010" y="810" width="434" height="250" as="geometry" />
        </mxCell>
        <mxCell id="eFTnabdDzmHTs7a5SszN-122" value="" style="strokeWidth=1;shadow=0;dashed=0;align=center;html=1;shape=mxgraph.mockup.containers.window;align=left;verticalAlign=top;spacingLeft=8;strokeColor2=#008cff;strokeColor3=#c4c4c4;fontColor=#666666;mainText=;fontSize=17;labelBackgroundColor=none;rounded=0;" parent="eFTnabdDzmHTs7a5SszN-179" vertex="1">
          <mxGeometry width="434" height="250" as="geometry" />
        </mxCell>
        <mxCell id="eFTnabdDzmHTs7a5SszN-128" value="Edit" style="strokeWidth=1;shadow=0;dashed=0;align=center;html=1;shape=mxgraph.mockup.forms.rrect;rSize=5;strokeColor=none;fontColor=#ffffff;fillColor=#66bbff;fontSize=16;fontStyle=1;rounded=0;" parent="eFTnabdDzmHTs7a5SszN-179" vertex="1">
          <mxGeometry x="62.2695652173913" y="214.28246753246754" width="141.52173913043478" height="22.72727272727273" as="geometry" />
        </mxCell>
        <mxCell id="eFTnabdDzmHTs7a5SszN-130" value="Name" style="text;html=1;strokeColor=none;fillColor=none;align=center;verticalAlign=middle;whiteSpace=wrap;rounded=0;" parent="eFTnabdDzmHTs7a5SszN-179" vertex="1">
          <mxGeometry x="29.247826086956522" y="62.5" width="56.608695652173914" height="26.78571428571429" as="geometry" />
        </mxCell>
        <mxCell id="eFTnabdDzmHTs7a5SszN-132" value="Phone" style="text;html=1;strokeColor=none;fillColor=none;align=center;verticalAlign=middle;whiteSpace=wrap;rounded=0;" parent="eFTnabdDzmHTs7a5SszN-179" vertex="1">
          <mxGeometry x="29.247826086956522" y="116.07142857142858" width="56.608695652173914" height="26.78571428571429" as="geometry" />
        </mxCell>
        <mxCell id="eFTnabdDzmHTs7a5SszN-133" value="Email&lt;br&gt;" style="text;html=1;strokeColor=none;fillColor=none;align=center;verticalAlign=middle;whiteSpace=wrap;rounded=0;" parent="eFTnabdDzmHTs7a5SszN-179" vertex="1">
          <mxGeometry x="29.247826086956522" y="84.82142857142857" width="56.608695652173914" height="26.78571428571429" as="geometry" />
        </mxCell>
        <mxCell id="eFTnabdDzmHTs7a5SszN-134" value="Birth date" style="text;html=1;strokeColor=none;fillColor=none;align=center;verticalAlign=middle;whiteSpace=wrap;rounded=0;" parent="eFTnabdDzmHTs7a5SszN-179" vertex="1">
          <mxGeometry x="37.73913043478261" y="142.85714285714286" width="56.608695652173914" height="26.78571428571429" as="geometry" />
        </mxCell>
        <mxCell id="eFTnabdDzmHTs7a5SszN-135" value="Gender" style="text;html=1;strokeColor=none;fillColor=none;align=center;verticalAlign=middle;whiteSpace=wrap;rounded=0;" parent="eFTnabdDzmHTs7a5SszN-179" vertex="1">
          <mxGeometry x="37.73913043478261" y="174.10714285714286" width="56.608695652173914" height="26.78571428571429" as="geometry" />
        </mxCell>
        <mxCell id="eFTnabdDzmHTs7a5SszN-142" value="My name" style="text;html=1;strokeColor=none;fillColor=none;align=center;verticalAlign=middle;whiteSpace=wrap;rounded=0;" parent="eFTnabdDzmHTs7a5SszN-179" vertex="1">
          <mxGeometry x="102.8391304347826" y="62.5" width="56.608695652173914" height="26.78571428571429" as="geometry" />
        </mxCell>
        <mxCell id="eFTnabdDzmHTs7a5SszN-143" value="aa@aaa.com" style="text;html=1;strokeColor=none;fillColor=none;align=center;verticalAlign=middle;whiteSpace=wrap;rounded=0;" parent="eFTnabdDzmHTs7a5SszN-179" vertex="1">
          <mxGeometry x="110.8586956521739" y="84.82142857142857" width="56.608695652173914" height="26.78571428571429" as="geometry" />
        </mxCell>
        <mxCell id="eFTnabdDzmHTs7a5SszN-144" value="111 111 111" style="text;html=1;strokeColor=none;fillColor=none;align=center;verticalAlign=middle;whiteSpace=wrap;rounded=0;" parent="eFTnabdDzmHTs7a5SszN-179" vertex="1">
          <mxGeometry x="95.29130434782608" y="116.07142857142858" width="87.74347826086957" height="26.78571428571429" as="geometry" />
        </mxCell>
        <mxCell id="eFTnabdDzmHTs7a5SszN-145" value="11/11/2022" style="text;html=1;strokeColor=none;fillColor=none;align=center;verticalAlign=middle;whiteSpace=wrap;rounded=0;" parent="eFTnabdDzmHTs7a5SszN-179" vertex="1">
          <mxGeometry x="104.72608695652174" y="142.85714285714286" width="56.608695652173914" height="26.78571428571429" as="geometry" />
        </mxCell>
        <mxCell id="eFTnabdDzmHTs7a5SszN-147" value="Female" style="text;html=1;strokeColor=none;fillColor=none;align=center;verticalAlign=middle;whiteSpace=wrap;rounded=0;" parent="eFTnabdDzmHTs7a5SszN-179" vertex="1">
          <mxGeometry x="102.8391304347826" y="169.64285714285714" width="56.608695652173914" height="26.78571428571429" as="geometry" />
        </mxCell>
        <mxCell id="eFTnabdDzmHTs7a5SszN-148" value="Back" style="strokeWidth=1;shadow=0;dashed=0;align=center;html=1;shape=mxgraph.mockup.forms.rrect;rSize=5;strokeColor=none;fontColor=#ffffff;fillColor=#66bbff;fontSize=16;fontStyle=1;rounded=0;" parent="eFTnabdDzmHTs7a5SszN-179" vertex="1">
          <mxGeometry x="227.37826086956522" y="214.28246753246754" width="141.52173913043478" height="22.72727272727273" as="geometry" />
        </mxCell>
        <mxCell id="pPHWL7X7k9nsCpByzbIq-285" value="Back" style="strokeWidth=1;shadow=0;dashed=0;align=center;html=1;shape=mxgraph.mockup.forms.rrect;rSize=5;strokeColor=none;fontColor=#ffffff;fillColor=#66bbff;fontSize=16;fontStyle=1;rounded=0;" vertex="1" parent="eFTnabdDzmHTs7a5SszN-179">
          <mxGeometry x="355.47000000000014" y="35.34000000000012" width="50" height="14.18" as="geometry" />
        </mxCell>
        <mxCell id="eFTnabdDzmHTs7a5SszN-181" value="Create a Job Listing" style="rounded=0;whiteSpace=wrap;html=1;" parent="WIyWlLk6GJQsqaUBKTNV-1" vertex="1">
          <mxGeometry x="632" y="1010" width="120" height="60" as="geometry" />
        </mxCell>
        <mxCell id="eFTnabdDzmHTs7a5SszN-197" style="edgeStyle=orthogonalEdgeStyle;rounded=0;orthogonalLoop=1;jettySize=auto;html=1;startArrow=none;startFill=0;dashed=1;" parent="WIyWlLk6GJQsqaUBKTNV-1" source="eFTnabdDzmHTs7a5SszN-183" target="eFTnabdDzmHTs7a5SszN-181" edge="1">
          <mxGeometry relative="1" as="geometry">
            <Array as="points">
              <mxPoint x="1080" y="1140" />
              <mxPoint x="800" y="1140" />
            </Array>
          </mxGeometry>
        </mxCell>
        <mxCell id="pPHWL7X7k9nsCpByzbIq-0" style="edgeStyle=orthogonalEdgeStyle;rounded=0;orthogonalLoop=1;jettySize=auto;html=1;dashed=1;endArrow=none;endFill=0;startArrow=classic;startFill=1;" edge="1" parent="WIyWlLk6GJQsqaUBKTNV-1" source="eFTnabdDzmHTs7a5SszN-228">
          <mxGeometry relative="1" as="geometry">
            <mxPoint x="100" y="1240" as="targetPoint" />
            <Array as="points">
              <mxPoint x="100" y="1149" />
            </Array>
          </mxGeometry>
        </mxCell>
        <mxCell id="eFTnabdDzmHTs7a5SszN-228" value="Applicant details" style="whiteSpace=wrap;html=1;shadow=0;strokeWidth=1;spacing=6;spacingTop=-4;" parent="WIyWlLk6GJQsqaUBKTNV-1" vertex="1">
          <mxGeometry x="50" y="1010" width="120" height="60" as="geometry" />
        </mxCell>
        <mxCell id="eFTnabdDzmHTs7a5SszN-230" value="" style="group" parent="WIyWlLk6GJQsqaUBKTNV-1" vertex="1" connectable="0">
          <mxGeometry x="-140" y="1240" width="430" height="540" as="geometry" />
        </mxCell>
        <mxCell id="eFTnabdDzmHTs7a5SszN-236" value="Home" style="fillColor=none;strokeColor=none;fontSize=14;fontColor=#0085FC;rounded=0;" parent="eFTnabdDzmHTs7a5SszN-230" vertex="1">
          <mxGeometry x="282.30826086956523" y="36.68248128980309" width="74.78260869565217" height="43.35070968462535" as="geometry" />
        </mxCell>
        <mxCell id="eFTnabdDzmHTs7a5SszN-237" value="Assign" style="strokeWidth=1;shadow=0;dashed=0;align=center;html=1;shape=mxgraph.mockup.forms.rrect;rSize=5;strokeColor=none;fontColor=#ffffff;fillColor=#66bbff;fontSize=16;fontStyle=1;rounded=0;" parent="eFTnabdDzmHTs7a5SszN-230" vertex="1">
          <mxGeometry x="140.00347826086957" y="430.00367465058804" width="140.21739130434784" height="43.35070968462535" as="geometry" />
        </mxCell>
        <mxCell id="eFTnabdDzmHTs7a5SszN-253" value="" style="verticalLabelPosition=bottom;shadow=0;dashed=0;align=center;html=1;verticalAlign=top;strokeWidth=1;shape=mxgraph.mockup.containers.userMale;strokeColor=#666666;strokeColor2=#008cff;rounded=0;gradientDirection=north;" parent="eFTnabdDzmHTs7a5SszN-230" vertex="1">
          <mxGeometry x="52.09" y="141.60999999999999" width="100" height="100" as="geometry" />
        </mxCell>
        <mxCell id="eFTnabdDzmHTs7a5SszN-254" value="I want to work for you for free, &lt;br&gt;please hire me please" style="strokeWidth=1;shadow=0;dashed=0;align=center;html=1;shape=mxgraph.mockup.text.textBox;fontColor=#666666;align=left;fontSize=17;spacingLeft=4;spacingTop=-3;strokeColor=#666666;mainText=;rounded=0;gradientDirection=north;" parent="eFTnabdDzmHTs7a5SszN-230" vertex="1">
          <mxGeometry x="52.09" y="69.97" width="305" height="60.03" as="geometry" />
        </mxCell>
        <mxCell id="eFTnabdDzmHTs7a5SszN-257" value="Name" style="text;html=1;strokeColor=none;fillColor=none;align=center;verticalAlign=middle;whiteSpace=wrap;rounded=0;" parent="eFTnabdDzmHTs7a5SszN-230" vertex="1">
          <mxGeometry x="179.99782608695648" y="129.99999999999997" width="56.608695652173914" height="26.78571428571429" as="geometry" />
        </mxCell>
        <mxCell id="eFTnabdDzmHTs7a5SszN-258" value="Phone" style="text;html=1;strokeColor=none;fillColor=none;align=center;verticalAlign=middle;whiteSpace=wrap;rounded=0;" parent="eFTnabdDzmHTs7a5SszN-230" vertex="1">
          <mxGeometry x="179.99782608695648" y="183.5714285714284" width="56.608695652173914" height="26.78571428571429" as="geometry" />
        </mxCell>
        <mxCell id="eFTnabdDzmHTs7a5SszN-259" value="Email&lt;br&gt;" style="text;html=1;strokeColor=none;fillColor=none;align=center;verticalAlign=middle;whiteSpace=wrap;rounded=0;" parent="eFTnabdDzmHTs7a5SszN-230" vertex="1">
          <mxGeometry x="179.99782608695648" y="152.3214285714284" width="56.608695652173914" height="26.78571428571429" as="geometry" />
        </mxCell>
        <mxCell id="eFTnabdDzmHTs7a5SszN-260" value="Birth date" style="text;html=1;strokeColor=none;fillColor=none;align=center;verticalAlign=middle;whiteSpace=wrap;rounded=0;" parent="eFTnabdDzmHTs7a5SszN-230" vertex="1">
          <mxGeometry x="188.48913043478262" y="210.35714285714286" width="56.608695652173914" height="26.78571428571429" as="geometry" />
        </mxCell>
        <mxCell id="eFTnabdDzmHTs7a5SszN-261" value="Gender" style="text;html=1;strokeColor=none;fillColor=none;align=center;verticalAlign=middle;whiteSpace=wrap;rounded=0;" parent="eFTnabdDzmHTs7a5SszN-230" vertex="1">
          <mxGeometry x="188.48913043478262" y="241.60714285714286" width="56.608695652173914" height="26.78571428571429" as="geometry" />
        </mxCell>
        <mxCell id="eFTnabdDzmHTs7a5SszN-262" value="My name" style="text;html=1;strokeColor=none;fillColor=none;align=center;verticalAlign=middle;whiteSpace=wrap;rounded=0;" parent="eFTnabdDzmHTs7a5SszN-230" vertex="1">
          <mxGeometry x="253.58913043478265" y="129.99999999999997" width="56.608695652173914" height="26.78571428571429" as="geometry" />
        </mxCell>
        <mxCell id="eFTnabdDzmHTs7a5SszN-263" value="aa@aaa.com" style="text;html=1;strokeColor=none;fillColor=none;align=center;verticalAlign=middle;whiteSpace=wrap;rounded=0;" parent="eFTnabdDzmHTs7a5SszN-230" vertex="1">
          <mxGeometry x="261.608695652174" y="152.3214285714284" width="56.608695652173914" height="26.78571428571429" as="geometry" />
        </mxCell>
        <mxCell id="eFTnabdDzmHTs7a5SszN-264" value="111 111 111" style="text;html=1;strokeColor=none;fillColor=none;align=center;verticalAlign=middle;whiteSpace=wrap;rounded=0;" parent="eFTnabdDzmHTs7a5SszN-230" vertex="1">
          <mxGeometry x="246.0413043478261" y="183.5714285714284" width="87.74347826086957" height="26.78571428571429" as="geometry" />
        </mxCell>
        <mxCell id="eFTnabdDzmHTs7a5SszN-265" value="11/11/2022" style="text;html=1;strokeColor=none;fillColor=none;align=center;verticalAlign=middle;whiteSpace=wrap;rounded=0;" parent="eFTnabdDzmHTs7a5SszN-230" vertex="1">
          <mxGeometry x="255.47608695652184" y="210.35714285714286" width="56.608695652173914" height="26.78571428571429" as="geometry" />
        </mxCell>
        <mxCell id="eFTnabdDzmHTs7a5SszN-266" value="Female" style="text;html=1;strokeColor=none;fillColor=none;align=center;verticalAlign=middle;whiteSpace=wrap;rounded=0;" parent="eFTnabdDzmHTs7a5SszN-230" vertex="1">
          <mxGeometry x="253.58913043478265" y="237.14285714285708" width="56.608695652173914" height="26.78571428571429" as="geometry" />
        </mxCell>
        <mxCell id="eFTnabdDzmHTs7a5SszN-267" value="Location" style="text;html=1;strokeColor=none;fillColor=none;align=center;verticalAlign=middle;whiteSpace=wrap;rounded=0;" parent="eFTnabdDzmHTs7a5SszN-230" vertex="1">
          <mxGeometry x="189.42913043478262" y="268.3971428571428" width="56.608695652173914" height="26.78571428571429" as="geometry" />
        </mxCell>
        <mxCell id="eFTnabdDzmHTs7a5SszN-268" value="West" style="text;html=1;strokeColor=none;fillColor=none;align=center;verticalAlign=middle;whiteSpace=wrap;rounded=0;" parent="eFTnabdDzmHTs7a5SszN-230" vertex="1">
          <mxGeometry x="255.47913043478263" y="268.392857142857" width="56.608695652173914" height="26.78571428571429" as="geometry" />
        </mxCell>
        <mxCell id="eFTnabdDzmHTs7a5SszN-271" value="" style="strokeWidth=1;shadow=0;dashed=0;align=center;html=1;shape=mxgraph.mockup.forms.rrect;rSize=0;strokeColor=#999999;fillColor=#ffffff;rounded=0;" parent="eFTnabdDzmHTs7a5SszN-230" vertex="1">
          <mxGeometry x="49.18000000000001" y="310" width="307.91000000000014" height="100" as="geometry" />
        </mxCell>
        <mxCell id="eFTnabdDzmHTs7a5SszN-272" value="&lt;span style=&quot;color: rgb(0 , 0 , 0) ; font-size: 12px&quot;&gt;Experience&lt;/span&gt;" style="strokeWidth=1;shadow=0;dashed=0;align=left;html=1;shape=mxgraph.mockup.forms.rrect;rSize=0;strokeColor=#999999;fontColor=#008cff;fontSize=17;fillColor=#ffffff;resizeWidth=1;rounded=0;" parent="eFTnabdDzmHTs7a5SszN-271" vertex="1">
          <mxGeometry width="307.9100000000001" height="30" relative="1" as="geometry" />
        </mxCell>
        <mxCell id="eFTnabdDzmHTs7a5SszN-273" value="Plumbing&amp;nbsp; - Less than 6 months" style="strokeWidth=1;shadow=0;dashed=0;align=center;html=1;shape=mxgraph.mockup.forms.anchor;fontSize=17;fontColor=#666666;align=left;spacingLeft=5;resizeWidth=1;rounded=0;" parent="eFTnabdDzmHTs7a5SszN-271" vertex="1">
          <mxGeometry width="307.9100000000001" height="20" relative="1" as="geometry">
            <mxPoint y="30" as="offset" />
          </mxGeometry>
        </mxCell>
        <mxCell id="eFTnabdDzmHTs7a5SszN-274" value="" style="strokeWidth=1;shadow=0;dashed=0;align=center;html=1;shape=mxgraph.mockup.forms.anchor;fontSize=17;fontColor=#666666;align=left;spacingLeft=5;resizeWidth=1;rounded=0;" parent="eFTnabdDzmHTs7a5SszN-271" vertex="1">
          <mxGeometry width="307.9100000000001" height="20" relative="1" as="geometry">
            <mxPoint y="50" as="offset" />
          </mxGeometry>
        </mxCell>
        <mxCell id="eFTnabdDzmHTs7a5SszN-275" value="" style="strokeWidth=1;shadow=0;dashed=0;align=center;html=1;shape=mxgraph.mockup.forms.rrect;rSize=0;fontSize=17;fontColor=#666666;align=left;spacingLeft=5;fillColor=#ddeeff;strokeColor=none;resizeWidth=1;rounded=0;" parent="eFTnabdDzmHTs7a5SszN-230" vertex="1">
          <mxGeometry width="307.9100000000001" height="20" relative="1" as="geometry">
            <mxPoint x="49" y="364" as="offset" />
          </mxGeometry>
        </mxCell>
        <mxCell id="eFTnabdDzmHTs7a5SszN-278" value="Dog walker&amp;nbsp; - Less than 6 months" style="strokeWidth=1;shadow=0;dashed=0;align=center;html=1;shape=mxgraph.mockup.forms.anchor;fontSize=17;fontColor=#666666;align=left;spacingLeft=5;resizeWidth=1;rounded=0;" parent="eFTnabdDzmHTs7a5SszN-230" vertex="1">
          <mxGeometry x="49.180000000000064" y="364" width="307.9100000000001" height="20" as="geometry" />
        </mxCell>
        <mxCell id="eFTnabdDzmHTs7a5SszN-279" value="" style="verticalLabelPosition=bottom;shadow=0;dashed=0;align=center;html=1;verticalAlign=top;strokeWidth=1;shape=mxgraph.mockup.containers.userMale;strokeColor=#666666;strokeColor2=#008cff;rounded=0;gradientDirection=north;" parent="eFTnabdDzmHTs7a5SszN-230" vertex="1">
          <mxGeometry x="52.09" y="141.6099999999999" width="100" height="100" as="geometry" />
        </mxCell>
        <mxCell id="pPHWL7X7k9nsCpByzbIq-10" value="" style="endArrow=classic;html=1;rounded=0;strokeWidth=3;exitX=-0.004;exitY=0.318;exitDx=0;exitDy=0;exitPerimeter=0;fillColor=#d5e8d4;strokeColor=#82b366;dashed=1;" edge="1" parent="WIyWlLk6GJQsqaUBKTNV-1" source="eFTnabdDzmHTs7a5SszN-224">
          <mxGeometry width="50" height="50" relative="1" as="geometry">
            <mxPoint x="370" y="1570" as="sourcePoint" />
            <mxPoint x="290" y="1643" as="targetPoint" />
          </mxGeometry>
        </mxCell>
        <mxCell id="pPHWL7X7k9nsCpByzbIq-45" value="" style="endArrow=classic;html=1;rounded=0;strokeWidth=2;entryX=-0.009;entryY=0.8;entryDx=0;entryDy=0;entryPerimeter=0;fillColor=#d5e8d4;strokeColor=#82b366;dashed=1;" edge="1" parent="WIyWlLk6GJQsqaUBKTNV-1" source="eFTnabdDzmHTs7a5SszN-47" target="eFTnabdDzmHTs7a5SszN-122">
          <mxGeometry width="50" height="50" relative="1" as="geometry">
            <mxPoint x="696.87" y="1280" as="sourcePoint" />
            <mxPoint x="746.87" y="1230" as="targetPoint" />
            <Array as="points">
              <mxPoint x="729" y="1200" />
              <mxPoint x="880" y="1200" />
              <mxPoint x="880" y="1010" />
            </Array>
          </mxGeometry>
        </mxCell>
        <mxCell id="pPHWL7X7k9nsCpByzbIq-179" style="edgeStyle=orthogonalEdgeStyle;rounded=0;orthogonalLoop=1;jettySize=auto;html=1;entryX=0;entryY=0.5;entryDx=0;entryDy=0;fontSize=13;startArrow=classic;startFill=1;endArrow=classic;endFill=1;strokeWidth=1;" edge="1" parent="WIyWlLk6GJQsqaUBKTNV-1" source="pPHWL7X7k9nsCpByzbIq-289" target="pPHWL7X7k9nsCpByzbIq-178">
          <mxGeometry relative="1" as="geometry">
            <Array as="points">
              <mxPoint x="-1040" y="1150" />
              <mxPoint x="-1040" y="1075" />
            </Array>
          </mxGeometry>
        </mxCell>
        <mxCell id="pPHWL7X7k9nsCpByzbIq-275" value="GO TO JOB APPLICATION" style="edgeLabel;html=1;align=center;verticalAlign=middle;resizable=0;points=[];fontSize=16;" vertex="1" connectable="0" parent="pPHWL7X7k9nsCpByzbIq-179">
          <mxGeometry x="-0.2552" y="1" relative="1" as="geometry">
            <mxPoint x="96" y="1" as="offset" />
          </mxGeometry>
        </mxCell>
        <mxCell id="pPHWL7X7k9nsCpByzbIq-180" style="edgeStyle=orthogonalEdgeStyle;rounded=0;orthogonalLoop=1;jettySize=auto;html=1;fontSize=13;startArrow=classic;startFill=1;endArrow=classic;endFill=1;strokeWidth=1;entryX=0.001;entryY=0.381;entryDx=0;entryDy=0;entryPerimeter=0;" edge="1" parent="WIyWlLk6GJQsqaUBKTNV-1" source="pPHWL7X7k9nsCpByzbIq-46" target="pPHWL7X7k9nsCpByzbIq-182">
          <mxGeometry relative="1" as="geometry">
            <mxPoint x="-680" y="1005.047619047619" as="targetPoint" />
            <Array as="points" />
          </mxGeometry>
        </mxCell>
        <mxCell id="pPHWL7X7k9nsCpByzbIq-274" value="GO TO JOB CONFIRMATION" style="edgeLabel;html=1;align=center;verticalAlign=middle;resizable=0;points=[];fontSize=16;" vertex="1" connectable="0" parent="pPHWL7X7k9nsCpByzbIq-180">
          <mxGeometry x="-0.3227" y="1" relative="1" as="geometry">
            <mxPoint x="64" y="2" as="offset" />
          </mxGeometry>
        </mxCell>
        <mxCell id="pPHWL7X7k9nsCpByzbIq-185" style="edgeStyle=orthogonalEdgeStyle;rounded=0;orthogonalLoop=1;jettySize=auto;html=1;exitX=0;exitY=0.5;exitDx=0;exitDy=0;entryX=1;entryY=0.5;entryDx=0;entryDy=0;fontSize=13;startArrow=classic;startFill=1;endArrow=classic;endFill=1;strokeWidth=1;" edge="1" parent="WIyWlLk6GJQsqaUBKTNV-1" source="pPHWL7X7k9nsCpByzbIq-46" target="pPHWL7X7k9nsCpByzbIq-184">
          <mxGeometry relative="1" as="geometry" />
        </mxCell>
        <mxCell id="pPHWL7X7k9nsCpByzbIq-273" value="GO TO APPRENTICE PROFILE" style="edgeLabel;html=1;align=center;verticalAlign=middle;resizable=0;points=[];fontSize=16;" vertex="1" connectable="0" parent="pPHWL7X7k9nsCpByzbIq-185">
          <mxGeometry x="0.2489" y="-3" relative="1" as="geometry">
            <mxPoint x="46" as="offset" />
          </mxGeometry>
        </mxCell>
        <mxCell id="pPHWL7X7k9nsCpByzbIq-288" style="edgeStyle=orthogonalEdgeStyle;rounded=0;orthogonalLoop=1;jettySize=auto;html=1;exitX=0.25;exitY=1;exitDx=0;exitDy=0;entryX=0.999;entryY=0.489;entryDx=0;entryDy=0;entryPerimeter=0;fontSize=16;startArrow=classic;startFill=1;endArrow=none;endFill=0;strokeWidth=1;dashed=1;" edge="1" parent="WIyWlLk6GJQsqaUBKTNV-1" source="pPHWL7X7k9nsCpByzbIq-46" target="pPHWL7X7k9nsCpByzbIq-13">
          <mxGeometry relative="1" as="geometry">
            <Array as="points">
              <mxPoint x="-1236" y="1190" />
              <mxPoint x="-1570" y="1190" />
              <mxPoint x="-1570" y="1614" />
              <mxPoint x="-1621" y="1614" />
            </Array>
          </mxGeometry>
        </mxCell>
        <mxCell id="pPHWL7X7k9nsCpByzbIq-291" style="edgeStyle=orthogonalEdgeStyle;rounded=0;orthogonalLoop=1;jettySize=auto;html=1;exitX=0.75;exitY=1;exitDx=0;exitDy=0;entryX=0.5;entryY=0;entryDx=0;entryDy=0;fontSize=16;startArrow=none;startFill=0;endArrow=classic;endFill=1;strokeWidth=1;" edge="1" parent="WIyWlLk6GJQsqaUBKTNV-1" source="pPHWL7X7k9nsCpByzbIq-46" target="pPHWL7X7k9nsCpByzbIq-289">
          <mxGeometry relative="1" as="geometry" />
        </mxCell>
        <mxCell id="pPHWL7X7k9nsCpByzbIq-46" value="&lt;font style=&quot;font-size: 20px&quot;&gt;Apprentice landing page/job listing&lt;/font&gt;" style="whiteSpace=wrap;html=1;shadow=0;strokeWidth=1;spacing=6;spacingTop=-4;" vertex="1" parent="WIyWlLk6GJQsqaUBKTNV-1">
          <mxGeometry x="-1282.13" y="915" width="186" height="130" as="geometry" />
        </mxCell>
        <mxCell id="pPHWL7X7k9nsCpByzbIq-48" style="edgeStyle=orthogonalEdgeStyle;rounded=0;orthogonalLoop=1;jettySize=auto;html=1;startArrow=none;startFill=0;endArrow=classic;endFill=1;strokeWidth=1;entryX=0.5;entryY=0;entryDx=0;entryDy=0;exitX=1;exitY=0.5;exitDx=0;exitDy=0;" edge="1" parent="WIyWlLk6GJQsqaUBKTNV-1" source="pPHWL7X7k9nsCpByzbIq-47" target="pPHWL7X7k9nsCpByzbIq-46">
          <mxGeometry relative="1" as="geometry">
            <mxPoint x="-1010" y="925" as="targetPoint" />
            <Array as="points">
              <mxPoint x="-1189" y="558" />
            </Array>
          </mxGeometry>
        </mxCell>
        <mxCell id="pPHWL7X7k9nsCpByzbIq-49" value="&lt;font style=&quot;font-size: 13px&quot;&gt;NO&lt;/font&gt;" style="edgeLabel;html=1;align=center;verticalAlign=middle;resizable=0;points=[];" vertex="1" connectable="0" parent="pPHWL7X7k9nsCpByzbIq-48">
          <mxGeometry x="-0.8019" y="2" relative="1" as="geometry">
            <mxPoint as="offset" />
          </mxGeometry>
        </mxCell>
        <mxCell id="pPHWL7X7k9nsCpByzbIq-176" value="" style="edgeStyle=orthogonalEdgeStyle;rounded=0;orthogonalLoop=1;jettySize=auto;html=1;fontSize=13;startArrow=none;startFill=0;endArrow=classic;endFill=1;strokeWidth=1;" edge="1" parent="WIyWlLk6GJQsqaUBKTNV-1" source="pPHWL7X7k9nsCpByzbIq-47" target="pPHWL7X7k9nsCpByzbIq-175">
          <mxGeometry relative="1" as="geometry" />
        </mxCell>
        <mxCell id="pPHWL7X7k9nsCpByzbIq-177" value="YES" style="edgeLabel;html=1;align=center;verticalAlign=middle;resizable=0;points=[];fontSize=13;" vertex="1" connectable="0" parent="pPHWL7X7k9nsCpByzbIq-176">
          <mxGeometry x="-0.2612" y="-1" relative="1" as="geometry">
            <mxPoint as="offset" />
          </mxGeometry>
        </mxCell>
        <mxCell id="pPHWL7X7k9nsCpByzbIq-47" value="&lt;span&gt;New Apprentice?&lt;/span&gt;" style="rhombus;whiteSpace=wrap;html=1;" vertex="1" parent="WIyWlLk6GJQsqaUBKTNV-1">
          <mxGeometry x="-1392.1299999999999" y="510" width="110" height="95" as="geometry" />
        </mxCell>
        <mxCell id="pPHWL7X7k9nsCpByzbIq-50" value="" style="group" vertex="1" connectable="0" parent="WIyWlLk6GJQsqaUBKTNV-1">
          <mxGeometry x="-2290" y="265" width="450" height="290" as="geometry" />
        </mxCell>
        <mxCell id="pPHWL7X7k9nsCpByzbIq-51" value="" style="strokeWidth=1;shadow=0;dashed=0;align=center;html=1;shape=mxgraph.mockup.containers.window;align=left;verticalAlign=top;spacingLeft=8;strokeColor2=#008cff;strokeColor3=#c4c4c4;fontColor=#666666;mainText=;fontSize=17;labelBackgroundColor=none;rounded=0;" vertex="1" parent="pPHWL7X7k9nsCpByzbIq-50">
          <mxGeometry width="450" height="290" as="geometry" />
        </mxCell>
        <mxCell id="pPHWL7X7k9nsCpByzbIq-52" value="Our Story" style="fillColor=none;strokeColor=none;fontSize=14;fontColor=#0085FC;rounded=0;" vertex="1" parent="pPHWL7X7k9nsCpByzbIq-50">
          <mxGeometry x="157.5" y="31.0758225108225" width="78.2608695652174" height="26.363636363636363" as="geometry" />
        </mxCell>
        <mxCell id="pPHWL7X7k9nsCpByzbIq-53" value="Hire Now" style="fillColor=none;strokeColor=none;fontSize=14;fontColor=#0085FC;rounded=0;" vertex="1" parent="pPHWL7X7k9nsCpByzbIq-50">
          <mxGeometry x="235.7608695652174" y="31.0758225108225" width="58.69565217391305" height="26.363636363636363" as="geometry" />
        </mxCell>
        <mxCell id="pPHWL7X7k9nsCpByzbIq-54" value="Find Jobs" style="fillColor=none;strokeColor=none;fontSize=14;fontColor=#0085FC;rounded=0;" vertex="1" parent="pPHWL7X7k9nsCpByzbIq-50">
          <mxGeometry x="306.19565217391306" y="31.0758225108225" width="58.69565217391305" height="26.363636363636363" as="geometry" />
        </mxCell>
        <mxCell id="pPHWL7X7k9nsCpByzbIq-55" value="Log out" style="fillColor=none;strokeColor=none;fontSize=14;fontColor=#7D868C;rounded=0;" vertex="1" parent="pPHWL7X7k9nsCpByzbIq-50">
          <mxGeometry x="353.1521739130435" y="31.0758225108225" width="78.2608695652174" height="26.363636363636363" as="geometry" />
        </mxCell>
        <mxCell id="pPHWL7X7k9nsCpByzbIq-56" value="Home" style="fillColor=none;strokeColor=none;fontSize=14;fontColor=#0085FC;rounded=0;" vertex="1" parent="pPHWL7X7k9nsCpByzbIq-50">
          <mxGeometry x="89.02173913043478" y="31.0758225108225" width="78.2608695652174" height="26.363636363636363" as="geometry" />
        </mxCell>
        <mxCell id="pPHWL7X7k9nsCpByzbIq-57" value="Save" style="strokeWidth=1;shadow=0;dashed=0;align=center;html=1;shape=mxgraph.mockup.forms.rrect;rSize=5;strokeColor=none;fontColor=#ffffff;fillColor=#66bbff;fontSize=16;fontStyle=1;rounded=0;" vertex="1" parent="pPHWL7X7k9nsCpByzbIq-50">
          <mxGeometry x="78.2608695652174" y="238.21051948051948" width="146.73913043478262" height="26.363636363636363" as="geometry" />
        </mxCell>
        <mxCell id="pPHWL7X7k9nsCpByzbIq-58" value="Line 1" style="strokeWidth=1;shadow=0;dashed=0;align=center;html=1;shape=mxgraph.mockup.text.textBox;fontColor=#666666;align=left;fontSize=17;spacingLeft=4;spacingTop=-3;strokeColor=#666666;mainText=;rounded=0;" vertex="1" parent="pPHWL7X7k9nsCpByzbIq-50">
          <mxGeometry x="107.60869565217392" y="72.5" width="131.57608695652175" height="20.71428571428571" as="geometry" />
        </mxCell>
        <mxCell id="pPHWL7X7k9nsCpByzbIq-59" value="Name" style="text;html=1;strokeColor=none;fillColor=none;align=center;verticalAlign=middle;whiteSpace=wrap;rounded=0;" vertex="1" parent="pPHWL7X7k9nsCpByzbIq-50">
          <mxGeometry x="30.32608695652174" y="72.5" width="58.69565217391305" height="31.071428571428566" as="geometry" />
        </mxCell>
        <mxCell id="pPHWL7X7k9nsCpByzbIq-60" value="Line 1" style="strokeWidth=1;shadow=0;dashed=0;align=center;html=1;shape=mxgraph.mockup.text.textBox;fontColor=#666666;align=left;fontSize=17;spacingLeft=4;spacingTop=-3;strokeColor=#666666;mainText=;rounded=0;" vertex="1" parent="pPHWL7X7k9nsCpByzbIq-50">
          <mxGeometry x="107.60869565217392" y="103.57142857142857" width="127.17391304347825" height="20.71428571428571" as="geometry" />
        </mxCell>
        <mxCell id="pPHWL7X7k9nsCpByzbIq-61" value="Phone" style="text;html=1;strokeColor=none;fillColor=none;align=center;verticalAlign=middle;whiteSpace=wrap;rounded=0;" vertex="1" parent="pPHWL7X7k9nsCpByzbIq-50">
          <mxGeometry x="30.32608695652174" y="134.64285714285714" width="58.69565217391305" height="31.071428571428566" as="geometry" />
        </mxCell>
        <mxCell id="pPHWL7X7k9nsCpByzbIq-62" value="Email&lt;br&gt;" style="text;html=1;strokeColor=none;fillColor=none;align=center;verticalAlign=middle;whiteSpace=wrap;rounded=0;" vertex="1" parent="pPHWL7X7k9nsCpByzbIq-50">
          <mxGeometry x="30.32608695652174" y="98.39285714285714" width="58.69565217391305" height="31.071428571428566" as="geometry" />
        </mxCell>
        <mxCell id="pPHWL7X7k9nsCpByzbIq-63" value="Birth date" style="text;html=1;strokeColor=none;fillColor=none;align=center;verticalAlign=middle;whiteSpace=wrap;rounded=0;" vertex="1" parent="pPHWL7X7k9nsCpByzbIq-50">
          <mxGeometry x="39.1304347826087" y="165.7142857142857" width="58.69565217391305" height="31.071428571428566" as="geometry" />
        </mxCell>
        <mxCell id="pPHWL7X7k9nsCpByzbIq-64" value="Gender" style="text;html=1;strokeColor=none;fillColor=none;align=center;verticalAlign=middle;whiteSpace=wrap;rounded=0;" vertex="1" parent="pPHWL7X7k9nsCpByzbIq-50">
          <mxGeometry x="39.1304347826087" y="201.96428571428572" width="58.69565217391305" height="31.071428571428566" as="geometry" />
        </mxCell>
        <mxCell id="pPHWL7X7k9nsCpByzbIq-65" value="Line 1" style="strokeWidth=1;shadow=0;dashed=0;align=center;html=1;shape=mxgraph.mockup.text.textBox;fontColor=#666666;align=left;fontSize=17;spacingLeft=4;spacingTop=-3;strokeColor=#666666;mainText=;rounded=0;" vertex="1" parent="pPHWL7X7k9nsCpByzbIq-50">
          <mxGeometry x="107.60869565217392" y="139.82142857142856" width="127.17391304347825" height="20.71428571428571" as="geometry" />
        </mxCell>
        <mxCell id="pPHWL7X7k9nsCpByzbIq-66" value="Line 1" style="strokeWidth=1;shadow=0;dashed=0;align=center;html=1;shape=mxgraph.mockup.text.textBox;fontColor=#666666;align=left;fontSize=17;spacingLeft=4;spacingTop=-3;strokeColor=#666666;mainText=;rounded=0;" vertex="1" parent="pPHWL7X7k9nsCpByzbIq-50">
          <mxGeometry x="107.60869565217392" y="170.89285714285714" width="127.17391304347825" height="20.71428571428571" as="geometry" />
        </mxCell>
        <mxCell id="pPHWL7X7k9nsCpByzbIq-67" value="Male&lt;span style=&quot;white-space: pre&quot;&gt; &lt;/span&gt;" style="html=1;shadow=0;dashed=0;shape=mxgraph.bootstrap.radioButton2;labelPosition=right;verticalLabelPosition=middle;align=left;verticalAlign=middle;gradientColor=#DEDEDE;fillColor=#EDEDED;checked=0;spacing=5;checkedFill=#0085FC;checkedStroke=#ffffff;rounded=0;" vertex="1" parent="pPHWL7X7k9nsCpByzbIq-50">
          <mxGeometry x="123.2608695652174" y="212.32142857142853" width="9.782608695652176" height="10.357142857142856" as="geometry" />
        </mxCell>
        <mxCell id="pPHWL7X7k9nsCpByzbIq-68" value="Femaile" style="html=1;shadow=0;dashed=0;shape=mxgraph.bootstrap.radioButton2;labelPosition=right;verticalLabelPosition=middle;align=left;verticalAlign=middle;gradientColor=#DEDEDE;fillColor=#EDEDED;checked=0;spacing=5;checkedFill=#0085FC;checkedStroke=#ffffff;rounded=0;" vertex="1" parent="pPHWL7X7k9nsCpByzbIq-50">
          <mxGeometry x="172.17391304347825" y="212.32142857142853" width="9.782608695652176" height="10.357142857142856" as="geometry" />
        </mxCell>
        <mxCell id="pPHWL7X7k9nsCpByzbIq-69" value="Not specified" style="html=1;shadow=0;dashed=0;shape=mxgraph.bootstrap.radioButton2;labelPosition=right;verticalLabelPosition=middle;align=left;verticalAlign=middle;gradientColor=#DEDEDE;fillColor=#EDEDED;checked=0;strokeColor=#D0D0D0;spacing=5;fontColor=#6C767D;checkedFill=#0085FC;checkedStroke=#ffffff;rounded=0;" vertex="1" parent="pPHWL7X7k9nsCpByzbIq-50">
          <mxGeometry x="244.56521739130434" y="212.32142857142853" width="9.782608695652176" height="10.357142857142856" as="geometry" />
        </mxCell>
        <mxCell id="pPHWL7X7k9nsCpByzbIq-70" value="Cancel" style="strokeWidth=1;shadow=0;dashed=0;align=center;html=1;shape=mxgraph.mockup.forms.rrect;rSize=5;strokeColor=none;fontColor=#ffffff;fillColor=#66bbff;fontSize=16;fontStyle=1;rounded=0;" vertex="1" parent="pPHWL7X7k9nsCpByzbIq-50">
          <mxGeometry x="244.56521739130434" y="238.21051948051948" width="146.73913043478262" height="26.363636363636363" as="geometry" />
        </mxCell>
        <mxCell id="pPHWL7X7k9nsCpByzbIq-72" value="YES" style="text;html=1;align=center;verticalAlign=middle;resizable=0;points=[];autosize=1;strokeColor=none;fillColor=none;" vertex="1" parent="WIyWlLk6GJQsqaUBKTNV-1">
          <mxGeometry x="180" y="320" width="40" height="20" as="geometry" />
        </mxCell>
        <mxCell id="pPHWL7X7k9nsCpByzbIq-73" value="NO" style="text;html=1;align=center;verticalAlign=middle;resizable=0;points=[];autosize=1;strokeColor=none;fillColor=none;" vertex="1" parent="WIyWlLk6GJQsqaUBKTNV-1">
          <mxGeometry x="185" y="180" width="30" height="20" as="geometry" />
        </mxCell>
        <mxCell id="pPHWL7X7k9nsCpByzbIq-109" style="edgeStyle=orthogonalEdgeStyle;rounded=0;orthogonalLoop=1;jettySize=auto;html=1;entryX=0.287;entryY=0;entryDx=0;entryDy=0;entryPerimeter=0;startArrow=none;startFill=0;endArrow=classic;endFill=1;strokeWidth=2;dashed=1;fillColor=#d5e8d4;strokeColor=#82b366;" edge="1" parent="WIyWlLk6GJQsqaUBKTNV-1" source="eFTnabdDzmHTs7a5SszN-161" target="eFTnabdDzmHTs7a5SszN-122">
          <mxGeometry relative="1" as="geometry" />
        </mxCell>
        <mxCell id="pPHWL7X7k9nsCpByzbIq-110" style="edgeStyle=orthogonalEdgeStyle;rounded=0;orthogonalLoop=1;jettySize=auto;html=1;entryX=0.999;entryY=0.567;entryDx=0;entryDy=0;entryPerimeter=0;dashed=1;startArrow=none;startFill=0;endArrow=classic;endFill=1;strokeWidth=2;fillColor=#d5e8d4;strokeColor=#82b366;" edge="1" parent="WIyWlLk6GJQsqaUBKTNV-1" source="eFTnabdDzmHTs7a5SszN-128" target="eFTnabdDzmHTs7a5SszN-155">
          <mxGeometry relative="1" as="geometry">
            <Array as="points">
              <mxPoint x="1143" y="1010" />
              <mxPoint x="1470" y="1010" />
              <mxPoint x="1470" y="675" />
            </Array>
          </mxGeometry>
        </mxCell>
        <mxCell id="pPHWL7X7k9nsCpByzbIq-112" style="edgeStyle=orthogonalEdgeStyle;rounded=0;orthogonalLoop=1;jettySize=auto;html=1;dashed=1;startArrow=none;startFill=0;endArrow=classic;endFill=1;strokeWidth=2;fillColor=#d5e8d4;strokeColor=#82b366;" edge="1" parent="WIyWlLk6GJQsqaUBKTNV-1" source="eFTnabdDzmHTs7a5SszN-148">
          <mxGeometry relative="1" as="geometry">
            <mxPoint x="850" y="1310" as="targetPoint" />
            <Array as="points">
              <mxPoint x="1308" y="1120" />
              <mxPoint x="898" y="1120" />
              <mxPoint x="898" y="1310" />
            </Array>
          </mxGeometry>
        </mxCell>
        <mxCell id="eFTnabdDzmHTs7a5SszN-47" value="My Profile" style="fillColor=none;strokeColor=none;fontSize=14;fontColor=#0085FC;rounded=0;" parent="WIyWlLk6GJQsqaUBKTNV-1" vertex="1">
          <mxGeometry x="692.0030434782609" y="1271.692481289803" width="74.78260869565217" height="43.35070968462535" as="geometry" />
        </mxCell>
        <mxCell id="pPHWL7X7k9nsCpByzbIq-114" value="" style="group" vertex="1" connectable="0" parent="WIyWlLk6GJQsqaUBKTNV-1">
          <mxGeometry x="-2250" y="605" width="370" height="240" as="geometry" />
        </mxCell>
        <mxCell id="pPHWL7X7k9nsCpByzbIq-115" value="" style="strokeWidth=1;shadow=0;dashed=0;align=center;html=1;shape=mxgraph.mockup.containers.window;align=left;verticalAlign=top;spacingLeft=8;strokeColor2=#008cff;strokeColor3=#c4c4c4;fontColor=#666666;mainText=;fontSize=17;labelBackgroundColor=none;rounded=0;" vertex="1" parent="pPHWL7X7k9nsCpByzbIq-114">
          <mxGeometry width="369.99999999999994" height="239.99999999999997" as="geometry" />
        </mxCell>
        <mxCell id="pPHWL7X7k9nsCpByzbIq-116" value="Our Story" style="fillColor=none;strokeColor=none;fontSize=14;fontColor=#0085FC;rounded=0;" vertex="1" parent="pPHWL7X7k9nsCpByzbIq-114">
          <mxGeometry x="129.5" y="25.717922077922072" width="64.3478260869565" height="21.818181818181817" as="geometry" />
        </mxCell>
        <mxCell id="pPHWL7X7k9nsCpByzbIq-117" value="Hire Now" style="fillColor=none;strokeColor=none;fontSize=14;fontColor=#0085FC;rounded=0;" vertex="1" parent="pPHWL7X7k9nsCpByzbIq-114">
          <mxGeometry x="193.8478260869565" y="25.717922077922072" width="48.260869565217384" height="21.818181818181817" as="geometry" />
        </mxCell>
        <mxCell id="pPHWL7X7k9nsCpByzbIq-118" value="Find Jobs" style="fillColor=none;strokeColor=none;fontSize=14;fontColor=#0085FC;rounded=0;" vertex="1" parent="pPHWL7X7k9nsCpByzbIq-114">
          <mxGeometry x="251.76086956521735" y="25.717922077922072" width="48.260869565217384" height="21.818181818181817" as="geometry" />
        </mxCell>
        <mxCell id="pPHWL7X7k9nsCpByzbIq-119" value="Log out" style="fillColor=none;strokeColor=none;fontSize=14;fontColor=#7D868C;rounded=0;" vertex="1" parent="pPHWL7X7k9nsCpByzbIq-114">
          <mxGeometry x="290.3695652173913" y="25.717922077922072" width="64.3478260869565" height="21.818181818181817" as="geometry" />
        </mxCell>
        <mxCell id="pPHWL7X7k9nsCpByzbIq-120" value="Home" style="fillColor=none;strokeColor=none;fontSize=14;fontColor=#0085FC;rounded=0;" vertex="1" parent="pPHWL7X7k9nsCpByzbIq-114">
          <mxGeometry x="73.19565217391302" y="25.717922077922072" width="64.3478260869565" height="21.818181818181817" as="geometry" />
        </mxCell>
        <mxCell id="pPHWL7X7k9nsCpByzbIq-121" value="Save" style="strokeWidth=1;shadow=0;dashed=0;align=center;html=1;shape=mxgraph.mockup.forms.rrect;rSize=5;strokeColor=none;fontColor=#ffffff;fillColor=#66bbff;fontSize=16;fontStyle=1;rounded=0;" vertex="1" parent="pPHWL7X7k9nsCpByzbIq-114">
          <mxGeometry x="64.3478260869565" y="197.13974025974025" width="120.65217391304346" height="21.818181818181817" as="geometry" />
        </mxCell>
        <mxCell id="pPHWL7X7k9nsCpByzbIq-122" value="Line 1" style="strokeWidth=1;shadow=0;dashed=0;align=center;html=1;shape=mxgraph.mockup.text.textBox;fontColor=#666666;align=left;fontSize=17;spacingLeft=4;spacingTop=-3;strokeColor=#666666;mainText=;rounded=0;" vertex="1" parent="pPHWL7X7k9nsCpByzbIq-114">
          <mxGeometry x="88.4782608695652" y="59.99999999999999" width="108.18478260869564" height="17.142857142857142" as="geometry" />
        </mxCell>
        <mxCell id="pPHWL7X7k9nsCpByzbIq-123" value="Name" style="text;html=1;strokeColor=none;fillColor=none;align=center;verticalAlign=middle;whiteSpace=wrap;rounded=0;" vertex="1" parent="pPHWL7X7k9nsCpByzbIq-114">
          <mxGeometry x="24.93478260869565" y="59.99999999999999" width="48.260869565217384" height="25.71428571428571" as="geometry" />
        </mxCell>
        <mxCell id="pPHWL7X7k9nsCpByzbIq-124" value="Line 1" style="strokeWidth=1;shadow=0;dashed=0;align=center;html=1;shape=mxgraph.mockup.text.textBox;fontColor=#666666;align=left;fontSize=17;spacingLeft=4;spacingTop=-3;strokeColor=#666666;mainText=;rounded=0;" vertex="1" parent="pPHWL7X7k9nsCpByzbIq-114">
          <mxGeometry x="88.4782608695652" y="85.71428571428571" width="104.56521739130433" height="17.142857142857142" as="geometry" />
        </mxCell>
        <mxCell id="pPHWL7X7k9nsCpByzbIq-125" value="Phone" style="text;html=1;strokeColor=none;fillColor=none;align=center;verticalAlign=middle;whiteSpace=wrap;rounded=0;" vertex="1" parent="pPHWL7X7k9nsCpByzbIq-114">
          <mxGeometry x="24.93478260869565" y="111.4285714285714" width="48.260869565217384" height="25.71428571428571" as="geometry" />
        </mxCell>
        <mxCell id="pPHWL7X7k9nsCpByzbIq-126" value="Email&lt;br&gt;" style="text;html=1;strokeColor=none;fillColor=none;align=center;verticalAlign=middle;whiteSpace=wrap;rounded=0;" vertex="1" parent="pPHWL7X7k9nsCpByzbIq-114">
          <mxGeometry x="24.93478260869565" y="81.42857142857142" width="48.260869565217384" height="25.71428571428571" as="geometry" />
        </mxCell>
        <mxCell id="pPHWL7X7k9nsCpByzbIq-127" value="Birth date" style="text;html=1;strokeColor=none;fillColor=none;align=center;verticalAlign=middle;whiteSpace=wrap;rounded=0;" vertex="1" parent="pPHWL7X7k9nsCpByzbIq-114">
          <mxGeometry x="32.17391304347825" y="137.14285714285714" width="48.260869565217384" height="25.71428571428571" as="geometry" />
        </mxCell>
        <mxCell id="pPHWL7X7k9nsCpByzbIq-128" value="Gender" style="text;html=1;strokeColor=none;fillColor=none;align=center;verticalAlign=middle;whiteSpace=wrap;rounded=0;" vertex="1" parent="pPHWL7X7k9nsCpByzbIq-114">
          <mxGeometry x="32.17391304347825" y="167.1428571428571" width="48.260869565217384" height="25.71428571428571" as="geometry" />
        </mxCell>
        <mxCell id="pPHWL7X7k9nsCpByzbIq-129" value="Line 1" style="strokeWidth=1;shadow=0;dashed=0;align=center;html=1;shape=mxgraph.mockup.text.textBox;fontColor=#666666;align=left;fontSize=17;spacingLeft=4;spacingTop=-3;strokeColor=#666666;mainText=;rounded=0;" vertex="1" parent="pPHWL7X7k9nsCpByzbIq-114">
          <mxGeometry x="88.4782608695652" y="115.71428571428571" width="104.56521739130433" height="17.142857142857142" as="geometry" />
        </mxCell>
        <mxCell id="pPHWL7X7k9nsCpByzbIq-130" value="Line 1" style="strokeWidth=1;shadow=0;dashed=0;align=center;html=1;shape=mxgraph.mockup.text.textBox;fontColor=#666666;align=left;fontSize=17;spacingLeft=4;spacingTop=-3;strokeColor=#666666;mainText=;rounded=0;" vertex="1" parent="pPHWL7X7k9nsCpByzbIq-114">
          <mxGeometry x="88.4782608695652" y="141.4285714285714" width="104.56521739130433" height="17.142857142857142" as="geometry" />
        </mxCell>
        <mxCell id="pPHWL7X7k9nsCpByzbIq-131" value="Male&lt;span style=&quot;white-space: pre&quot;&gt; &lt;/span&gt;" style="html=1;shadow=0;dashed=0;shape=mxgraph.bootstrap.radioButton2;labelPosition=right;verticalLabelPosition=middle;align=left;verticalAlign=middle;gradientColor=#DEDEDE;fillColor=#EDEDED;checked=0;spacing=5;checkedFill=#0085FC;checkedStroke=#ffffff;rounded=0;" vertex="1" parent="pPHWL7X7k9nsCpByzbIq-114">
          <mxGeometry x="101.3478260869565" y="175.7142857142857" width="8.043478260869563" height="8.571428571428571" as="geometry" />
        </mxCell>
        <mxCell id="pPHWL7X7k9nsCpByzbIq-132" value="Femaile" style="html=1;shadow=0;dashed=0;shape=mxgraph.bootstrap.radioButton2;labelPosition=right;verticalLabelPosition=middle;align=left;verticalAlign=middle;gradientColor=#DEDEDE;fillColor=#EDEDED;checked=0;spacing=5;checkedFill=#0085FC;checkedStroke=#ffffff;rounded=0;" vertex="1" parent="pPHWL7X7k9nsCpByzbIq-114">
          <mxGeometry x="141.56521739130434" y="175.7142857142857" width="8.043478260869563" height="8.571428571428571" as="geometry" />
        </mxCell>
        <mxCell id="pPHWL7X7k9nsCpByzbIq-133" value="Not specified" style="html=1;shadow=0;dashed=0;shape=mxgraph.bootstrap.radioButton2;labelPosition=right;verticalLabelPosition=middle;align=left;verticalAlign=middle;gradientColor=#DEDEDE;fillColor=#EDEDED;checked=0;strokeColor=#D0D0D0;spacing=5;fontColor=#6C767D;checkedFill=#0085FC;checkedStroke=#ffffff;rounded=0;" vertex="1" parent="pPHWL7X7k9nsCpByzbIq-114">
          <mxGeometry x="201.08695652173913" y="175.7142857142857" width="8.043478260869563" height="8.571428571428571" as="geometry" />
        </mxCell>
        <mxCell id="pPHWL7X7k9nsCpByzbIq-134" value="Cancel" style="strokeWidth=1;shadow=0;dashed=0;align=center;html=1;shape=mxgraph.mockup.forms.rrect;rSize=5;strokeColor=none;fontColor=#ffffff;fillColor=#66bbff;fontSize=16;fontStyle=1;rounded=0;" vertex="1" parent="pPHWL7X7k9nsCpByzbIq-114">
          <mxGeometry x="201.08695652173913" y="197.13974025974025" width="120.65217391304346" height="21.818181818181817" as="geometry" />
        </mxCell>
        <mxCell id="pPHWL7X7k9nsCpByzbIq-135" value="" style="group" vertex="1" connectable="0" parent="WIyWlLk6GJQsqaUBKTNV-1">
          <mxGeometry x="-2590" y="930" width="434" height="325" as="geometry" />
        </mxCell>
        <mxCell id="pPHWL7X7k9nsCpByzbIq-136" value="" style="strokeWidth=1;shadow=0;dashed=0;align=center;html=1;shape=mxgraph.mockup.containers.window;align=left;verticalAlign=top;spacingLeft=8;strokeColor2=#008cff;strokeColor3=#c4c4c4;fontColor=#666666;mainText=;fontSize=17;labelBackgroundColor=none;rounded=0;" vertex="1" parent="pPHWL7X7k9nsCpByzbIq-135">
          <mxGeometry width="434" height="325" as="geometry" />
        </mxCell>
        <mxCell id="pPHWL7X7k9nsCpByzbIq-140" value="Log out" style="fillColor=none;strokeColor=none;fontSize=14;fontColor=#7D868C;rounded=0;" vertex="1" parent="pPHWL7X7k9nsCpByzbIq-135">
          <mxGeometry x="340.59565217391304" y="34.826352813852814" width="75.47826086956522" height="29.54545454545455" as="geometry" />
        </mxCell>
        <mxCell id="pPHWL7X7k9nsCpByzbIq-141" value="Home" style="fillColor=none;strokeColor=none;fontSize=14;fontColor=#0085FC;rounded=0;" vertex="1" parent="pPHWL7X7k9nsCpByzbIq-135">
          <mxGeometry x="279.9965217391304" y="34.826352813852814" width="75.47826086956522" height="29.54545454545455" as="geometry" />
        </mxCell>
        <mxCell id="pPHWL7X7k9nsCpByzbIq-142" value="Edit" style="strokeWidth=1;shadow=0;dashed=0;align=center;html=1;shape=mxgraph.mockup.forms.rrect;rSize=5;strokeColor=none;fontColor=#ffffff;fillColor=#66bbff;fontSize=16;fontStyle=1;rounded=0;" vertex="1" parent="pPHWL7X7k9nsCpByzbIq-135">
          <mxGeometry x="62.2695652173913" y="278.5672077922078" width="141.52173913043478" height="29.54545454545455" as="geometry" />
        </mxCell>
        <mxCell id="pPHWL7X7k9nsCpByzbIq-143" value="Name" style="text;html=1;strokeColor=none;fillColor=none;align=center;verticalAlign=middle;whiteSpace=wrap;rounded=0;" vertex="1" parent="pPHWL7X7k9nsCpByzbIq-135">
          <mxGeometry x="29.247826086956522" y="81.25" width="56.608695652173914" height="34.82142857142858" as="geometry" />
        </mxCell>
        <mxCell id="pPHWL7X7k9nsCpByzbIq-144" value="Phone" style="text;html=1;strokeColor=none;fillColor=none;align=center;verticalAlign=middle;whiteSpace=wrap;rounded=0;" vertex="1" parent="pPHWL7X7k9nsCpByzbIq-135">
          <mxGeometry x="29.247826086956522" y="150.89285714285717" width="56.608695652173914" height="34.82142857142858" as="geometry" />
        </mxCell>
        <mxCell id="pPHWL7X7k9nsCpByzbIq-145" value="Email&lt;br&gt;" style="text;html=1;strokeColor=none;fillColor=none;align=center;verticalAlign=middle;whiteSpace=wrap;rounded=0;" vertex="1" parent="pPHWL7X7k9nsCpByzbIq-135">
          <mxGeometry x="29.247826086956522" y="110.26785714285714" width="56.608695652173914" height="34.82142857142858" as="geometry" />
        </mxCell>
        <mxCell id="pPHWL7X7k9nsCpByzbIq-146" value="Birth date" style="text;html=1;strokeColor=none;fillColor=none;align=center;verticalAlign=middle;whiteSpace=wrap;rounded=0;" vertex="1" parent="pPHWL7X7k9nsCpByzbIq-135">
          <mxGeometry x="37.73913043478261" y="185.71428571428572" width="56.608695652173914" height="34.82142857142858" as="geometry" />
        </mxCell>
        <mxCell id="pPHWL7X7k9nsCpByzbIq-147" value="Gender" style="text;html=1;strokeColor=none;fillColor=none;align=center;verticalAlign=middle;whiteSpace=wrap;rounded=0;" vertex="1" parent="pPHWL7X7k9nsCpByzbIq-135">
          <mxGeometry x="37.73913043478261" y="226.33928571428572" width="56.608695652173914" height="34.82142857142858" as="geometry" />
        </mxCell>
        <mxCell id="pPHWL7X7k9nsCpByzbIq-148" value="My name" style="text;html=1;strokeColor=none;fillColor=none;align=center;verticalAlign=middle;whiteSpace=wrap;rounded=0;" vertex="1" parent="pPHWL7X7k9nsCpByzbIq-135">
          <mxGeometry x="102.8391304347826" y="81.25" width="56.608695652173914" height="34.82142857142858" as="geometry" />
        </mxCell>
        <mxCell id="pPHWL7X7k9nsCpByzbIq-149" value="aa@aaa.com" style="text;html=1;strokeColor=none;fillColor=none;align=center;verticalAlign=middle;whiteSpace=wrap;rounded=0;" vertex="1" parent="pPHWL7X7k9nsCpByzbIq-135">
          <mxGeometry x="110.8586956521739" y="110.26785714285714" width="56.608695652173914" height="34.82142857142858" as="geometry" />
        </mxCell>
        <mxCell id="pPHWL7X7k9nsCpByzbIq-150" value="111 111 111" style="text;html=1;strokeColor=none;fillColor=none;align=center;verticalAlign=middle;whiteSpace=wrap;rounded=0;" vertex="1" parent="pPHWL7X7k9nsCpByzbIq-135">
          <mxGeometry x="95.29130434782608" y="150.89285714285717" width="87.74347826086957" height="34.82142857142858" as="geometry" />
        </mxCell>
        <mxCell id="pPHWL7X7k9nsCpByzbIq-151" value="11/11/2022" style="text;html=1;strokeColor=none;fillColor=none;align=center;verticalAlign=middle;whiteSpace=wrap;rounded=0;" vertex="1" parent="pPHWL7X7k9nsCpByzbIq-135">
          <mxGeometry x="104.72608695652174" y="185.71428571428572" width="56.608695652173914" height="34.82142857142858" as="geometry" />
        </mxCell>
        <mxCell id="pPHWL7X7k9nsCpByzbIq-152" value="Female" style="text;html=1;strokeColor=none;fillColor=none;align=center;verticalAlign=middle;whiteSpace=wrap;rounded=0;" vertex="1" parent="pPHWL7X7k9nsCpByzbIq-135">
          <mxGeometry x="102.8391304347826" y="220.53571428571428" width="56.608695652173914" height="34.82142857142858" as="geometry" />
        </mxCell>
        <mxCell id="pPHWL7X7k9nsCpByzbIq-153" value="Back" style="strokeWidth=1;shadow=0;dashed=0;align=center;html=1;shape=mxgraph.mockup.forms.rrect;rSize=5;strokeColor=none;fontColor=#ffffff;fillColor=#66bbff;fontSize=16;fontStyle=1;rounded=0;" vertex="1" parent="pPHWL7X7k9nsCpByzbIq-135">
          <mxGeometry x="227.37826086956522" y="278.5672077922078" width="141.52173913043478" height="29.54545454545455" as="geometry" />
        </mxCell>
        <mxCell id="pPHWL7X7k9nsCpByzbIq-154" style="edgeStyle=orthogonalEdgeStyle;rounded=0;orthogonalLoop=1;jettySize=auto;html=1;entryX=0.575;entryY=-0.007;entryDx=0;entryDy=0;entryPerimeter=0;startArrow=none;startFill=0;endArrow=classic;endFill=1;strokeWidth=2;dashed=1;fillColor=#d5e8d4;strokeColor=#82b366;" edge="1" parent="WIyWlLk6GJQsqaUBKTNV-1" source="pPHWL7X7k9nsCpByzbIq-121" target="pPHWL7X7k9nsCpByzbIq-136">
          <mxGeometry relative="1" as="geometry">
            <Array as="points">
              <mxPoint x="-2125" y="877" />
              <mxPoint x="-2340" y="877" />
              <mxPoint x="-2340" y="928" />
            </Array>
          </mxGeometry>
        </mxCell>
        <mxCell id="pPHWL7X7k9nsCpByzbIq-267" style="edgeStyle=orthogonalEdgeStyle;rounded=0;orthogonalLoop=1;jettySize=auto;html=1;entryX=1.002;entryY=0.488;entryDx=0;entryDy=0;entryPerimeter=0;dashed=1;fontSize=16;startArrow=classic;startFill=1;endArrow=none;endFill=0;strokeWidth=1;" edge="1" parent="WIyWlLk6GJQsqaUBKTNV-1" source="pPHWL7X7k9nsCpByzbIq-175" target="pPHWL7X7k9nsCpByzbIq-51">
          <mxGeometry relative="1" as="geometry">
            <Array as="points">
              <mxPoint x="-1720" y="558" />
              <mxPoint x="-1720" y="407" />
            </Array>
          </mxGeometry>
        </mxCell>
        <mxCell id="pPHWL7X7k9nsCpByzbIq-268" style="edgeStyle=orthogonalEdgeStyle;rounded=0;orthogonalLoop=1;jettySize=auto;html=1;entryX=0.317;entryY=-0.018;entryDx=0;entryDy=0;entryPerimeter=0;fontSize=16;startArrow=none;startFill=0;endArrow=classic;endFill=1;strokeWidth=1;" edge="1" parent="WIyWlLk6GJQsqaUBKTNV-1" source="pPHWL7X7k9nsCpByzbIq-175" target="pPHWL7X7k9nsCpByzbIq-46">
          <mxGeometry relative="1" as="geometry">
            <Array as="points">
              <mxPoint x="-1600" y="625" />
              <mxPoint x="-1223" y="625" />
            </Array>
          </mxGeometry>
        </mxCell>
        <mxCell id="pPHWL7X7k9nsCpByzbIq-271" value="APPRENTICE PROFILE CREATION SUCCESS" style="edgeLabel;html=1;align=center;verticalAlign=middle;resizable=0;points=[];fontSize=16;" vertex="1" connectable="0" parent="pPHWL7X7k9nsCpByzbIq-268">
          <mxGeometry x="-0.6185" y="-2" relative="1" as="geometry">
            <mxPoint x="89" y="2" as="offset" />
          </mxGeometry>
        </mxCell>
        <mxCell id="pPHWL7X7k9nsCpByzbIq-269" style="edgeStyle=orthogonalEdgeStyle;rounded=0;orthogonalLoop=1;jettySize=auto;html=1;exitX=0.5;exitY=0;exitDx=0;exitDy=0;entryX=0;entryY=0.5;entryDx=0;entryDy=0;fontSize=16;startArrow=none;startFill=0;endArrow=classic;endFill=1;strokeWidth=1;" edge="1" parent="WIyWlLk6GJQsqaUBKTNV-1" source="pPHWL7X7k9nsCpByzbIq-175" target="WIyWlLk6GJQsqaUBKTNV-6">
          <mxGeometry relative="1" as="geometry">
            <Array as="points">
              <mxPoint x="-1600" y="310" />
              <mxPoint x="170" y="310" />
            </Array>
          </mxGeometry>
        </mxCell>
        <mxCell id="pPHWL7X7k9nsCpByzbIq-272" value="APPRENTICE PROFILE CREATION CANCELLED" style="edgeLabel;html=1;align=center;verticalAlign=middle;resizable=0;points=[];fontSize=16;" vertex="1" connectable="0" parent="pPHWL7X7k9nsCpByzbIq-269">
          <mxGeometry x="-0.692" y="2" relative="1" as="geometry">
            <mxPoint x="114" as="offset" />
          </mxGeometry>
        </mxCell>
        <mxCell id="pPHWL7X7k9nsCpByzbIq-175" value="Apprentice Profile Creation" style="whiteSpace=wrap;html=1;" vertex="1" parent="WIyWlLk6GJQsqaUBKTNV-1">
          <mxGeometry x="-1660" y="527.5" width="120" height="60" as="geometry" />
        </mxCell>
        <mxCell id="pPHWL7X7k9nsCpByzbIq-188" style="edgeStyle=orthogonalEdgeStyle;rounded=0;orthogonalLoop=1;jettySize=auto;html=1;dashed=1;fontSize=13;startArrow=none;startFill=0;endArrow=classic;endFill=1;strokeWidth=1;entryX=0.316;entryY=0.004;entryDx=0;entryDy=0;entryPerimeter=0;" edge="1" parent="WIyWlLk6GJQsqaUBKTNV-1" source="pPHWL7X7k9nsCpByzbIq-178" target="pPHWL7X7k9nsCpByzbIq-236">
          <mxGeometry relative="1" as="geometry">
            <mxPoint x="-752.53" y="1290" as="targetPoint" />
            <Array as="points">
              <mxPoint x="-692" y="1290" />
              <mxPoint x="-694" y="1290" />
            </Array>
          </mxGeometry>
        </mxCell>
        <mxCell id="pPHWL7X7k9nsCpByzbIq-178" value="Job Application form" style="whiteSpace=wrap;html=1;shadow=0;strokeWidth=1;spacing=6;spacingTop=-4;" vertex="1" parent="WIyWlLk6GJQsqaUBKTNV-1">
          <mxGeometry x="-757.39" y="1045" width="130" height="60" as="geometry" />
        </mxCell>
        <mxCell id="pPHWL7X7k9nsCpByzbIq-187" style="edgeStyle=orthogonalEdgeStyle;rounded=0;orthogonalLoop=1;jettySize=auto;html=1;exitX=0.75;exitY=1;exitDx=0;exitDy=0;fontSize=13;startArrow=none;startFill=0;endArrow=classic;endFill=1;strokeWidth=1;dashed=1;entryX=1.008;entryY=0.772;entryDx=0;entryDy=0;entryPerimeter=0;" edge="1" parent="WIyWlLk6GJQsqaUBKTNV-1" source="pPHWL7X7k9nsCpByzbIq-182" target="pPHWL7X7k9nsCpByzbIq-210">
          <mxGeometry relative="1" as="geometry">
            <mxPoint x="-600" y="1965" as="targetPoint" />
            <Array as="points">
              <mxPoint x="-350" y="1020" />
              <mxPoint x="-350" y="2500" />
              <mxPoint x="-1088" y="2500" />
              <mxPoint x="-1088" y="2508" />
            </Array>
          </mxGeometry>
        </mxCell>
        <mxCell id="pPHWL7X7k9nsCpByzbIq-182" value="&amp;nbsp;Confirmation of Job&lt;br&gt;Assignments" style="rounded=0;whiteSpace=wrap;html=1;fontSize=13;" vertex="1" parent="WIyWlLk6GJQsqaUBKTNV-1">
          <mxGeometry x="-627.39" y="960" width="120" height="60" as="geometry" />
        </mxCell>
        <mxCell id="pPHWL7X7k9nsCpByzbIq-265" style="edgeStyle=orthogonalEdgeStyle;rounded=0;orthogonalLoop=1;jettySize=auto;html=1;entryX=1.006;entryY=0.534;entryDx=0;entryDy=0;entryPerimeter=0;fontSize=16;startArrow=classic;startFill=1;endArrow=none;endFill=0;strokeWidth=1;dashed=1;" edge="1" parent="WIyWlLk6GJQsqaUBKTNV-1" source="pPHWL7X7k9nsCpByzbIq-183" target="pPHWL7X7k9nsCpByzbIq-115">
          <mxGeometry relative="1" as="geometry">
            <Array as="points">
              <mxPoint x="-1700" y="733" />
            </Array>
          </mxGeometry>
        </mxCell>
        <mxCell id="pPHWL7X7k9nsCpByzbIq-183" value="Member Profile Edit" style="whiteSpace=wrap;html=1;rounded=0;" vertex="1" parent="WIyWlLk6GJQsqaUBKTNV-1">
          <mxGeometry x="-1475" y="720" width="120" height="60" as="geometry" />
        </mxCell>
        <mxCell id="pPHWL7X7k9nsCpByzbIq-186" style="edgeStyle=orthogonalEdgeStyle;rounded=0;orthogonalLoop=1;jettySize=auto;html=1;exitX=0.5;exitY=0;exitDx=0;exitDy=0;entryX=0.5;entryY=1;entryDx=0;entryDy=0;fontSize=13;startArrow=classic;startFill=1;endArrow=classic;endFill=1;strokeWidth=1;" edge="1" parent="WIyWlLk6GJQsqaUBKTNV-1" source="pPHWL7X7k9nsCpByzbIq-184" target="pPHWL7X7k9nsCpByzbIq-183">
          <mxGeometry relative="1" as="geometry" />
        </mxCell>
        <mxCell id="pPHWL7X7k9nsCpByzbIq-276" value="EDIT PROFILE DETAILS" style="edgeLabel;html=1;align=center;verticalAlign=middle;resizable=0;points=[];fontSize=16;" vertex="1" connectable="0" parent="pPHWL7X7k9nsCpByzbIq-186">
          <mxGeometry x="-0.1011" y="3" relative="1" as="geometry">
            <mxPoint x="31" as="offset" />
          </mxGeometry>
        </mxCell>
        <mxCell id="pPHWL7X7k9nsCpByzbIq-184" value="Member profile" style="rounded=0;whiteSpace=wrap;html=1;" vertex="1" parent="WIyWlLk6GJQsqaUBKTNV-1">
          <mxGeometry x="-1760" y="950" width="120" height="60" as="geometry" />
        </mxCell>
        <mxCell id="pPHWL7X7k9nsCpByzbIq-233" value="" style="group" vertex="1" connectable="0" parent="WIyWlLk6GJQsqaUBKTNV-1">
          <mxGeometry x="-1880" y="1291.27" width="530" height="840" as="geometry" />
        </mxCell>
        <mxCell id="pPHWL7X7k9nsCpByzbIq-13" value="" style="strokeWidth=1;shadow=0;dashed=0;align=center;html=1;shape=mxgraph.mockup.containers.window;align=left;verticalAlign=top;spacingLeft=8;strokeColor2=#008cff;strokeColor3=#c4c4c4;fontColor=#666666;mainText=;fontSize=17;labelBackgroundColor=none;rounded=0;" vertex="1" parent="pPHWL7X7k9nsCpByzbIq-233">
          <mxGeometry x="-270" width="530" height="750" as="geometry" />
        </mxCell>
        <mxCell id="pPHWL7X7k9nsCpByzbIq-14" value="My Profile" style="fillColor=none;strokeColor=none;fontSize=14;fontColor=#0085FC;rounded=0;" vertex="1" parent="pPHWL7X7k9nsCpByzbIq-233">
          <mxGeometry x="69.99561172901946" y="46.94567643369726" width="92.17391304347827" height="55.47767272727277" as="geometry" />
        </mxCell>
        <mxCell id="pPHWL7X7k9nsCpByzbIq-17" value="Log out" style="fillColor=none;strokeColor=none;fontSize=14;fontColor=#7D868C;rounded=0;" vertex="1" parent="pPHWL7X7k9nsCpByzbIq-233">
          <mxGeometry x="142.174347826087" y="46.944068658275" width="92.17391304347827" height="55.47767272727277" as="geometry" />
        </mxCell>
        <mxCell id="pPHWL7X7k9nsCpByzbIq-19" value="Available Jobs" style="strokeWidth=1;shadow=0;dashed=0;align=center;html=1;shape=mxgraph.mockup.forms.rrect;rSize=5;strokeColor=none;fontColor=#ffffff;fillColor=#66bbff;fontSize=16;fontStyle=1;rounded=0;" vertex="1" parent="pPHWL7X7k9nsCpByzbIq-233">
          <mxGeometry x="44.70684529828094" y="88.72897874109482" width="172.8260869565218" height="55.47767272727277" as="geometry" />
        </mxCell>
        <mxCell id="pPHWL7X7k9nsCpByzbIq-20" value="" style="strokeWidth=1;shadow=0;dashed=0;align=center;html=1;shape=mxgraph.mockup.forms.rrect;rSize=0;strokeColor=#999999;fillColor=#ffffff;rounded=0;" vertex="1" parent="pPHWL7X7k9nsCpByzbIq-233">
          <mxGeometry x="-217" y="160" width="434.53" height="118.03" as="geometry" />
        </mxCell>
        <mxCell id="pPHWL7X7k9nsCpByzbIq-21" value="My Current Jobs" style="strokeWidth=1;shadow=0;dashed=0;align=center;html=1;shape=mxgraph.mockup.forms.rrect;rSize=0;strokeColor=#999999;fontColor=#008cff;fontSize=17;fillColor=#ffffff;resizeWidth=1;rounded=0;" vertex="1" parent="pPHWL7X7k9nsCpByzbIq-20">
          <mxGeometry width="434.5299999999999" height="30" relative="1" as="geometry" />
        </mxCell>
        <mxCell id="pPHWL7X7k9nsCpByzbIq-22" value="#12 Plumbing" style="strokeWidth=1;shadow=0;dashed=0;align=center;html=1;shape=mxgraph.mockup.forms.anchor;fontSize=17;fontColor=#666666;align=left;spacingLeft=5;resizeWidth=1;rounded=0;" vertex="1" parent="pPHWL7X7k9nsCpByzbIq-20">
          <mxGeometry width="434.5299999999999" height="20" relative="1" as="geometry">
            <mxPoint y="30" as="offset" />
          </mxGeometry>
        </mxCell>
        <mxCell id="pPHWL7X7k9nsCpByzbIq-23" value="#123 ZBCD" style="strokeWidth=1;shadow=0;dashed=0;align=center;html=1;shape=mxgraph.mockup.forms.anchor;fontSize=17;fontColor=#666666;align=left;spacingLeft=5;resizeWidth=1;rounded=0;" vertex="1" parent="pPHWL7X7k9nsCpByzbIq-20">
          <mxGeometry width="434.5299999999999" height="20" relative="1" as="geometry">
            <mxPoint y="50" as="offset" />
          </mxGeometry>
        </mxCell>
        <mxCell id="pPHWL7X7k9nsCpByzbIq-24" value="#4534&amp;nbsp;" style="strokeWidth=1;shadow=0;dashed=0;align=center;html=1;shape=mxgraph.mockup.forms.rrect;rSize=0;fontSize=17;fontColor=#666666;align=left;spacingLeft=5;fillColor=#ddeeff;strokeColor=none;resizeWidth=1;rounded=0;" vertex="1" parent="pPHWL7X7k9nsCpByzbIq-20">
          <mxGeometry width="434.5299999999999" height="20" relative="1" as="geometry">
            <mxPoint y="70" as="offset" />
          </mxGeometry>
        </mxCell>
        <mxCell id="pPHWL7X7k9nsCpByzbIq-25" value="#43 ABVD" style="strokeWidth=1;shadow=0;dashed=0;align=center;html=1;shape=mxgraph.mockup.forms.anchor;fontSize=17;fontColor=#666666;align=left;spacingLeft=5;resizeWidth=1;rounded=0;" vertex="1" parent="pPHWL7X7k9nsCpByzbIq-20">
          <mxGeometry width="434.5299999999999" height="20" relative="1" as="geometry">
            <mxPoint y="90" as="offset" />
          </mxGeometry>
        </mxCell>
        <mxCell id="pPHWL7X7k9nsCpByzbIq-27" value="" style="strokeWidth=1;shadow=0;dashed=0;align=center;html=1;shape=mxgraph.mockup.forms.rrect;rSize=0;strokeColor=#999999;fillColor=#ffffff;rounded=0;" vertex="1" parent="pPHWL7X7k9nsCpByzbIq-233">
          <mxGeometry x="-216.99906976744188" y="304.99503180000016" width="439.0618604651164" height="121.57537782962969" as="geometry" />
        </mxCell>
        <mxCell id="pPHWL7X7k9nsCpByzbIq-28" value="Pending Job Applications" style="strokeWidth=1;shadow=0;dashed=0;align=center;html=1;shape=mxgraph.mockup.forms.rrect;rSize=0;strokeColor=#999999;fontColor=#008cff;fontSize=17;fillColor=#ffffff;resizeWidth=1;rounded=0;" vertex="1" parent="pPHWL7X7k9nsCpByzbIq-27">
          <mxGeometry width="439.06186046511647" height="30" relative="1" as="geometry" />
        </mxCell>
        <mxCell id="pPHWL7X7k9nsCpByzbIq-29" value="# 134 - Plumber - ( - applied date - )&amp;nbsp; &amp;nbsp; &amp;nbsp; &amp;nbsp; &amp;nbsp; &amp;nbsp; &amp;nbsp; &amp;nbsp; &amp;nbsp; &amp;nbsp; (status)" style="strokeWidth=1;shadow=0;dashed=0;align=center;html=1;shape=mxgraph.mockup.forms.anchor;fontSize=17;fontColor=#666666;align=left;spacingLeft=5;resizeWidth=1;rounded=0;" vertex="1" parent="pPHWL7X7k9nsCpByzbIq-27">
          <mxGeometry width="439.06186046511647" height="20" relative="1" as="geometry">
            <mxPoint y="30" as="offset" />
          </mxGeometry>
        </mxCell>
        <mxCell id="pPHWL7X7k9nsCpByzbIq-30" value="" style="strokeWidth=1;shadow=0;dashed=0;align=center;html=1;shape=mxgraph.mockup.forms.anchor;fontSize=17;fontColor=#666666;align=left;spacingLeft=5;resizeWidth=1;rounded=0;" vertex="1" parent="pPHWL7X7k9nsCpByzbIq-27">
          <mxGeometry width="439.06186046511647" height="20" relative="1" as="geometry">
            <mxPoint y="50" as="offset" />
          </mxGeometry>
        </mxCell>
        <mxCell id="pPHWL7X7k9nsCpByzbIq-31" value="These are the jobs that you have applied for" style="strokeWidth=1;shadow=0;dashed=0;align=center;html=1;shape=mxgraph.mockup.forms.rrect;rSize=0;fontSize=17;fontColor=#666666;align=left;spacingLeft=5;fillColor=#ddeeff;strokeColor=none;resizeWidth=1;rounded=0;" vertex="1" parent="pPHWL7X7k9nsCpByzbIq-27">
          <mxGeometry width="439.06186046511647" height="20" relative="1" as="geometry">
            <mxPoint y="102" as="offset" />
          </mxGeometry>
        </mxCell>
        <mxCell id="pPHWL7X7k9nsCpByzbIq-32" value="" style="strokeWidth=1;shadow=0;dashed=0;align=center;html=1;shape=mxgraph.mockup.forms.anchor;fontSize=17;fontColor=#666666;align=left;spacingLeft=5;resizeWidth=1;rounded=0;" vertex="1" parent="pPHWL7X7k9nsCpByzbIq-27">
          <mxGeometry width="439.06186046511647" height="20" relative="1" as="geometry">
            <mxPoint y="110" as="offset" />
          </mxGeometry>
        </mxCell>
        <mxCell id="pPHWL7X7k9nsCpByzbIq-74" value="" style="strokeWidth=1;shadow=0;dashed=0;align=center;html=1;shape=mxgraph.mockup.forms.rrect;rSize=0;strokeColor=#999999;fillColor=#ffffff;rounded=0;" vertex="1" parent="pPHWL7X7k9nsCpByzbIq-233">
          <mxGeometry x="-216.99906976744188" y="450.0035416814817" width="439.0618604651164" height="121.57537782962969" as="geometry" />
        </mxCell>
        <mxCell id="pPHWL7X7k9nsCpByzbIq-75" value="Confirmation Required" style="strokeWidth=1;shadow=0;dashed=0;align=center;html=1;shape=mxgraph.mockup.forms.rrect;rSize=0;strokeColor=#999999;fontColor=#008cff;fontSize=17;fillColor=#ffffff;resizeWidth=1;rounded=0;" vertex="1" parent="pPHWL7X7k9nsCpByzbIq-74">
          <mxGeometry width="439.06186046511647" height="30" relative="1" as="geometry" />
        </mxCell>
        <mxCell id="pPHWL7X7k9nsCpByzbIq-76" value="# 24 Plumber&amp;nbsp; - ( - assigned date - )&amp;nbsp; &amp;nbsp; &amp;nbsp; &amp;nbsp; &amp;nbsp; &amp;nbsp; &amp;nbsp; &amp;nbsp; &amp;nbsp; &amp;nbsp;( status )" style="strokeWidth=1;shadow=0;dashed=0;align=center;html=1;shape=mxgraph.mockup.forms.anchor;fontSize=17;fontColor=#666666;align=left;spacingLeft=5;resizeWidth=1;rounded=0;" vertex="1" parent="pPHWL7X7k9nsCpByzbIq-74">
          <mxGeometry width="439.0618604651164" height="20" relative="1" as="geometry">
            <mxPoint y="30" as="offset" />
          </mxGeometry>
        </mxCell>
        <mxCell id="pPHWL7X7k9nsCpByzbIq-77" value="" style="strokeWidth=1;shadow=0;dashed=0;align=center;html=1;shape=mxgraph.mockup.forms.anchor;fontSize=17;fontColor=#666666;align=left;spacingLeft=5;resizeWidth=1;rounded=0;" vertex="1" parent="pPHWL7X7k9nsCpByzbIq-74">
          <mxGeometry width="439.06186046511647" height="20" relative="1" as="geometry">
            <mxPoint y="50" as="offset" />
          </mxGeometry>
        </mxCell>
        <mxCell id="pPHWL7X7k9nsCpByzbIq-78" value="These are the jobs that need your confirmation" style="strokeWidth=1;shadow=0;dashed=0;align=center;html=1;shape=mxgraph.mockup.forms.rrect;rSize=0;fontSize=17;fontColor=#666666;align=left;spacingLeft=5;fillColor=#ddeeff;strokeColor=none;resizeWidth=1;rounded=0;" vertex="1" parent="pPHWL7X7k9nsCpByzbIq-74">
          <mxGeometry width="439.06186046511647" height="20" relative="1" as="geometry">
            <mxPoint y="102" as="offset" />
          </mxGeometry>
        </mxCell>
        <mxCell id="pPHWL7X7k9nsCpByzbIq-79" value="" style="strokeWidth=1;shadow=0;dashed=0;align=center;html=1;shape=mxgraph.mockup.forms.anchor;fontSize=17;fontColor=#666666;align=left;spacingLeft=5;resizeWidth=1;rounded=0;" vertex="1" parent="pPHWL7X7k9nsCpByzbIq-74">
          <mxGeometry width="439.06186046511647" height="20" relative="1" as="geometry">
            <mxPoint y="110" as="offset" />
          </mxGeometry>
        </mxCell>
        <mxCell id="pPHWL7X7k9nsCpByzbIq-292" value="" style="strokeWidth=1;shadow=0;dashed=0;align=center;html=1;shape=mxgraph.mockup.forms.rrect;rSize=0;strokeColor=#999999;fillColor=#ffffff;rounded=0;" vertex="1" parent="pPHWL7X7k9nsCpByzbIq-233">
          <mxGeometry x="-216.9990697674418" y="590.0035416814817" width="439.0618604651164" height="121.57537782962969" as="geometry" />
        </mxCell>
        <mxCell id="pPHWL7X7k9nsCpByzbIq-293" value="Declined Applications" style="strokeWidth=1;shadow=0;dashed=0;align=center;html=1;shape=mxgraph.mockup.forms.rrect;rSize=0;strokeColor=#999999;fontColor=#008cff;fontSize=17;fillColor=#ffffff;resizeWidth=1;rounded=0;" vertex="1" parent="pPHWL7X7k9nsCpByzbIq-292">
          <mxGeometry width="439.06186046511647" height="30" relative="1" as="geometry" />
        </mxCell>
        <mxCell id="pPHWL7X7k9nsCpByzbIq-294" value="# 24 Plumber&amp;nbsp; - ( - assigned date - )&amp;nbsp; &amp;nbsp; &amp;nbsp; &amp;nbsp; &amp;nbsp; &amp;nbsp; &amp;nbsp; &amp;nbsp; &amp;nbsp; &amp;nbsp;( status )" style="strokeWidth=1;shadow=0;dashed=0;align=center;html=1;shape=mxgraph.mockup.forms.anchor;fontSize=17;fontColor=#666666;align=left;spacingLeft=5;resizeWidth=1;rounded=0;" vertex="1" parent="pPHWL7X7k9nsCpByzbIq-292">
          <mxGeometry width="439.0618604651164" height="20" relative="1" as="geometry">
            <mxPoint y="30" as="offset" />
          </mxGeometry>
        </mxCell>
        <mxCell id="pPHWL7X7k9nsCpByzbIq-295" value="" style="strokeWidth=1;shadow=0;dashed=0;align=center;html=1;shape=mxgraph.mockup.forms.anchor;fontSize=17;fontColor=#666666;align=left;spacingLeft=5;resizeWidth=1;rounded=0;" vertex="1" parent="pPHWL7X7k9nsCpByzbIq-292">
          <mxGeometry width="439.06186046511647" height="20" relative="1" as="geometry">
            <mxPoint y="50" as="offset" />
          </mxGeometry>
        </mxCell>
        <mxCell id="pPHWL7X7k9nsCpByzbIq-296" value="These are the jobs that need your confirmation" style="strokeWidth=1;shadow=0;dashed=0;align=center;html=1;shape=mxgraph.mockup.forms.rrect;rSize=0;fontSize=17;fontColor=#666666;align=left;spacingLeft=5;fillColor=#ddeeff;strokeColor=none;resizeWidth=1;rounded=0;" vertex="1" parent="pPHWL7X7k9nsCpByzbIq-292">
          <mxGeometry width="439.06186046511647" height="20" relative="1" as="geometry">
            <mxPoint y="102" as="offset" />
          </mxGeometry>
        </mxCell>
        <mxCell id="pPHWL7X7k9nsCpByzbIq-297" value="" style="strokeWidth=1;shadow=0;dashed=0;align=center;html=1;shape=mxgraph.mockup.forms.anchor;fontSize=17;fontColor=#666666;align=left;spacingLeft=5;resizeWidth=1;rounded=0;" vertex="1" parent="pPHWL7X7k9nsCpByzbIq-292">
          <mxGeometry width="439.06186046511647" height="20" relative="1" as="geometry">
            <mxPoint y="110" as="offset" />
          </mxGeometry>
        </mxCell>
        <mxCell id="pPHWL7X7k9nsCpByzbIq-300" value="Hi ${name} Checkout your OddJobs&amp;nbsp;" style="text;html=1;align=center;verticalAlign=middle;resizable=0;points=[];autosize=1;strokeColor=none;fillColor=none;fontSize=16;" vertex="1" parent="pPHWL7X7k9nsCpByzbIq-233">
          <mxGeometry x="-225.29" y="118.73000000000006" width="270" height="20" as="geometry" />
        </mxCell>
        <mxCell id="pPHWL7X7k9nsCpByzbIq-236" value="" style="strokeWidth=1;shadow=0;dashed=0;align=center;html=1;shape=mxgraph.mockup.containers.window;align=left;verticalAlign=top;spacingLeft=8;strokeColor2=#008cff;strokeColor3=#c4c4c4;fontColor=#666666;mainText=;fontSize=17;labelBackgroundColor=none;rounded=0;" vertex="1" parent="WIyWlLk6GJQsqaUBKTNV-1">
          <mxGeometry x="-830" y="1291.27" width="430" height="418.73" as="geometry" />
        </mxCell>
        <mxCell id="pPHWL7X7k9nsCpByzbIq-237" value="Home" style="fillColor=none;strokeColor=none;fontSize=14;fontColor=#0085FC;rounded=0;" vertex="1" parent="WIyWlLk6GJQsqaUBKTNV-1">
          <mxGeometry x="-543.8317391304347" y="1327.9524812898028" width="74.78260869565217" height="43.35070968462535" as="geometry" />
        </mxCell>
        <mxCell id="pPHWL7X7k9nsCpByzbIq-238" value="JOB # 134" style="strokeWidth=0;shadow=0;dashed=0;align=center;html=1;shape=mxgraph.mockup.text.textBox;fontColor=#666666;align=left;fontSize=17;spacingLeft=4;spacingTop=-3;strokeColor=#666666;mainText=;rounded=0;" vertex="1" parent="WIyWlLk6GJQsqaUBKTNV-1">
          <mxGeometry x="-765.45" y="1339.6299999999997" width="208.5" height="20" as="geometry" />
        </mxCell>
        <mxCell id="pPHWL7X7k9nsCpByzbIq-239" value="Description" style="text;html=1;strokeColor=none;fillColor=none;align=center;verticalAlign=middle;whiteSpace=wrap;rounded=0;" vertex="1" parent="WIyWlLk6GJQsqaUBKTNV-1">
          <mxGeometry x="-785.95" y="1426.3" width="60" height="30" as="geometry" />
        </mxCell>
        <mxCell id="pPHWL7X7k9nsCpByzbIq-240" value="Fix my leaky tapes please" style="strokeWidth=1;shadow=0;dashed=0;align=center;html=1;shape=mxgraph.mockup.text.textBox;fontColor=#666666;align=left;fontSize=17;spacingLeft=4;spacingTop=-3;strokeColor=none;mainText=;rounded=0;" vertex="1" parent="WIyWlLk6GJQsqaUBKTNV-1">
          <mxGeometry x="-710.0000000000002" y="1391.2699999999998" width="224.11" height="27.53" as="geometry" />
        </mxCell>
        <mxCell id="pPHWL7X7k9nsCpByzbIq-241" value="&lt;font style=&quot;font-size: 15px&quot;&gt;I have 2 leaky tapes that need fixing&amp;nbsp;&lt;/font&gt;" style="strokeWidth=1;shadow=0;dashed=0;align=center;html=1;shape=mxgraph.mockup.text.textBox;fontColor=#666666;align=left;fontSize=17;spacingLeft=4;spacingTop=-3;strokeColor=#666666;mainText=;rounded=0;" vertex="1" parent="WIyWlLk6GJQsqaUBKTNV-1">
          <mxGeometry x="-710.0000000000002" y="1426.2999999999997" width="247.61" height="54.97" as="geometry" />
        </mxCell>
        <mxCell id="pPHWL7X7k9nsCpByzbIq-242" value="Location" style="text;html=1;strokeColor=none;fillColor=none;align=center;verticalAlign=middle;whiteSpace=wrap;rounded=0;" vertex="1" parent="WIyWlLk6GJQsqaUBKTNV-1">
          <mxGeometry x="-794.21" y="1531.27" width="76.52" height="30" as="geometry" />
        </mxCell>
        <mxCell id="pPHWL7X7k9nsCpByzbIq-243" value="North Auckland&amp;nbsp;" style="strokeWidth=1;shadow=0;dashed=0;align=center;html=1;shape=mxgraph.mockup.text.textBox;fontColor=#666666;align=left;fontSize=17;spacingLeft=4;spacingTop=-3;strokeColor=#666666;mainText=;rounded=0;" vertex="1" parent="WIyWlLk6GJQsqaUBKTNV-1">
          <mxGeometry x="-710.0000000000002" y="1531.2699999999998" width="132.61" height="35" as="geometry" />
        </mxCell>
        <mxCell id="pPHWL7X7k9nsCpByzbIq-244" value="Plumber" style="strokeWidth=1;shadow=0;dashed=0;align=center;html=1;shape=mxgraph.mockup.text.textBox;fontColor=#666666;align=left;fontSize=17;spacingLeft=4;spacingTop=-3;strokeColor=#666666;mainText=;rounded=0;" vertex="1" parent="WIyWlLk6GJQsqaUBKTNV-1">
          <mxGeometry x="-710.0000000000002" y="1486.27" width="77.61" height="35" as="geometry" />
        </mxCell>
        <mxCell id="pPHWL7X7k9nsCpByzbIq-245" value="Service type" style="text;html=1;strokeColor=none;fillColor=none;align=center;verticalAlign=middle;whiteSpace=wrap;rounded=0;" vertex="1" parent="WIyWlLk6GJQsqaUBKTNV-1">
          <mxGeometry x="-794.21" y="1486.27" width="76.52" height="30" as="geometry" />
        </mxCell>
        <mxCell id="pPHWL7X7k9nsCpByzbIq-246" value="Paid" style="text;html=1;strokeColor=none;fillColor=none;align=center;verticalAlign=middle;whiteSpace=wrap;rounded=0;" vertex="1" parent="WIyWlLk6GJQsqaUBKTNV-1">
          <mxGeometry x="-794.21" y="1571.27" width="76.52" height="30" as="geometry" />
        </mxCell>
        <mxCell id="pPHWL7X7k9nsCpByzbIq-247" value="No" style="strokeWidth=1;shadow=0;dashed=0;align=center;html=1;shape=mxgraph.mockup.text.textBox;fontColor=#666666;align=left;fontSize=17;spacingLeft=4;spacingTop=-3;strokeColor=none;mainText=;rounded=0;" vertex="1" parent="WIyWlLk6GJQsqaUBKTNV-1">
          <mxGeometry x="-710" y="1571.27" width="77.61" height="35" as="geometry" />
        </mxCell>
        <mxCell id="pPHWL7X7k9nsCpByzbIq-248" value="Back" style="strokeWidth=1;shadow=0;dashed=0;align=center;html=1;shape=mxgraph.mockup.forms.rrect;rSize=5;strokeColor=none;fontColor=#ffffff;fillColor=#66bbff;fontSize=16;fontStyle=1;rounded=0;" vertex="1" parent="WIyWlLk6GJQsqaUBKTNV-1">
          <mxGeometry x="-479.05" y="1345.45" width="50" height="14.18" as="geometry" />
        </mxCell>
        <mxCell id="pPHWL7X7k9nsCpByzbIq-250" value="Apply" style="strokeWidth=1;shadow=0;dashed=0;align=center;html=1;shape=mxgraph.mockup.forms.rrect;rSize=5;strokeColor=none;fontColor=#ffffff;fillColor=#66bbff;fontSize=16;fontStyle=1;rounded=0;" vertex="1" parent="WIyWlLk6GJQsqaUBKTNV-1">
          <mxGeometry x="-652.0600000000002" y="1654.8999999999999" width="95.11" height="22.73" as="geometry" />
        </mxCell>
        <mxCell id="pPHWL7X7k9nsCpByzbIq-251" value="Title" style="text;html=1;strokeColor=none;fillColor=none;align=center;verticalAlign=middle;whiteSpace=wrap;rounded=0;" vertex="1" parent="WIyWlLk6GJQsqaUBKTNV-1">
          <mxGeometry x="-780" y="1391.27" width="60" height="30" as="geometry" />
        </mxCell>
        <mxCell id="pPHWL7X7k9nsCpByzbIq-255" value="&lt;font style=&quot;font-size: 15px&quot;&gt;I have 2 leaky tapes that need fixing&amp;nbsp;&lt;/font&gt;" style="strokeWidth=1;shadow=0;dashed=0;align=center;html=1;shape=mxgraph.mockup.text.textBox;fontColor=#666666;align=left;fontSize=17;spacingLeft=4;spacingTop=-3;strokeColor=none;mainText=;rounded=0;" vertex="1" parent="WIyWlLk6GJQsqaUBKTNV-1">
          <mxGeometry x="-710.0000000000002" y="1426.2999999999997" width="247.61" height="54.97" as="geometry" />
        </mxCell>
        <mxCell id="pPHWL7X7k9nsCpByzbIq-256" value="Plumber" style="strokeWidth=1;shadow=0;dashed=0;align=center;html=1;shape=mxgraph.mockup.text.textBox;fontColor=#666666;align=left;fontSize=17;spacingLeft=4;spacingTop=-3;strokeColor=none;mainText=;rounded=0;" vertex="1" parent="WIyWlLk6GJQsqaUBKTNV-1">
          <mxGeometry x="-710.0000000000002" y="1486.27" width="77.61" height="35" as="geometry" />
        </mxCell>
        <mxCell id="pPHWL7X7k9nsCpByzbIq-257" value="North Auckland&amp;nbsp;" style="strokeWidth=1;shadow=0;dashed=0;align=center;html=1;shape=mxgraph.mockup.text.textBox;fontColor=#666666;align=left;fontSize=17;spacingLeft=4;spacingTop=-3;strokeColor=none;mainText=;rounded=0;" vertex="1" parent="WIyWlLk6GJQsqaUBKTNV-1">
          <mxGeometry x="-710.0000000000002" y="1531.2699999999998" width="132.61" height="35" as="geometry" />
        </mxCell>
        <mxCell id="pPHWL7X7k9nsCpByzbIq-261" value="" style="endArrow=classic;html=1;rounded=0;dashed=1;fontSize=16;strokeWidth=2;exitX=1;exitY=0.318;exitDx=0;exitDy=0;exitPerimeter=0;entryX=-0.002;entryY=0.731;entryDx=0;entryDy=0;entryPerimeter=0;fillColor=#d5e8d4;strokeColor=#82b366;" edge="1" parent="WIyWlLk6GJQsqaUBKTNV-1" source="pPHWL7X7k9nsCpByzbIq-74" target="pPHWL7X7k9nsCpByzbIq-210">
          <mxGeometry width="50" height="50" relative="1" as="geometry">
            <mxPoint x="-1110" y="1885" as="sourcePoint" />
            <mxPoint x="-1060" y="1835" as="targetPoint" />
            <Array as="points">
              <mxPoint x="-1560" y="1780" />
              <mxPoint x="-1560" y="2489" />
            </Array>
          </mxGeometry>
        </mxCell>
        <mxCell id="pPHWL7X7k9nsCpByzbIq-264" value="Back" style="strokeWidth=1;shadow=0;dashed=0;align=center;html=1;shape=mxgraph.mockup.forms.rrect;rSize=5;strokeColor=none;fontColor=#ffffff;fillColor=#66bbff;fontSize=16;fontStyle=1;rounded=0;" vertex="1" parent="WIyWlLk6GJQsqaUBKTNV-1">
          <mxGeometry x="210" y="1291.27" width="50" height="14.18" as="geometry" />
        </mxCell>
        <mxCell id="pPHWL7X7k9nsCpByzbIq-266" style="edgeStyle=orthogonalEdgeStyle;rounded=0;orthogonalLoop=1;jettySize=auto;html=1;entryX=0.5;entryY=1;entryDx=0;entryDy=0;dashed=1;fontSize=16;startArrow=none;startFill=0;endArrow=classic;endFill=1;strokeWidth=1;" edge="1" parent="WIyWlLk6GJQsqaUBKTNV-1" source="pPHWL7X7k9nsCpByzbIq-136" target="pPHWL7X7k9nsCpByzbIq-184">
          <mxGeometry relative="1" as="geometry">
            <Array as="points">
              <mxPoint x="-1700" y="1040" />
            </Array>
          </mxGeometry>
        </mxCell>
        <mxCell id="pPHWL7X7k9nsCpByzbIq-279" value="" style="endArrow=none;html=1;rounded=0;dashed=1;fontSize=16;strokeWidth=2;fillColor=#d5e8d4;strokeColor=#82b366;endFill=0;startArrow=classic;startFill=1;exitX=0.999;exitY=0.4;exitDx=0;exitDy=0;exitPerimeter=0;" edge="1" parent="WIyWlLk6GJQsqaUBKTNV-1" source="pPHWL7X7k9nsCpByzbIq-136" target="pPHWL7X7k9nsCpByzbIq-14">
          <mxGeometry width="50" height="50" relative="1" as="geometry">
            <mxPoint x="-2150" y="1060" as="sourcePoint" />
            <mxPoint x="-1528.5499999999997" y="741.71" as="targetPoint" />
            <Array as="points">
              <mxPoint x="-1880" y="1060" />
              <mxPoint x="-1880" y="1270" />
              <mxPoint x="-1764" y="1270" />
            </Array>
          </mxGeometry>
        </mxCell>
        <mxCell id="pPHWL7X7k9nsCpByzbIq-280" style="edgeStyle=orthogonalEdgeStyle;rounded=0;orthogonalLoop=1;jettySize=auto;html=1;entryX=0.575;entryY=-0.007;entryDx=0;entryDy=0;entryPerimeter=0;startArrow=none;startFill=0;endArrow=classic;endFill=1;strokeWidth=2;dashed=1;fillColor=#d5e8d4;strokeColor=#82b366;exitX=0.492;exitY=1.018;exitDx=0;exitDy=0;exitPerimeter=0;" edge="1" parent="WIyWlLk6GJQsqaUBKTNV-1" source="pPHWL7X7k9nsCpByzbIq-134" target="pPHWL7X7k9nsCpByzbIq-136">
          <mxGeometry relative="1" as="geometry">
            <mxPoint x="-1999.904827586207" y="864.4779220779221" as="sourcePoint" />
            <mxPoint x="-2060.002" y="955.52" as="targetPoint" />
            <Array as="points">
              <mxPoint x="-1990" y="880" />
              <mxPoint x="-2340" y="880" />
            </Array>
          </mxGeometry>
        </mxCell>
        <mxCell id="pPHWL7X7k9nsCpByzbIq-289" value="ALL JOBS" style="whiteSpace=wrap;html=1;shadow=0;strokeWidth=1;spacing=6;spacingTop=-4;" vertex="1" parent="WIyWlLk6GJQsqaUBKTNV-1">
          <mxGeometry x="-1190" y="1120" width="130" height="60" as="geometry" />
        </mxCell>
        <mxCell id="pPHWL7X7k9nsCpByzbIq-301" value="" style="strokeWidth=1;shadow=0;dashed=0;align=center;html=1;shape=mxgraph.mockup.containers.window;align=left;verticalAlign=top;spacingLeft=8;strokeColor2=#008cff;strokeColor3=#c4c4c4;fontColor=#666666;mainText=;fontSize=17;labelBackgroundColor=none;rounded=0;" vertex="1" parent="WIyWlLk6GJQsqaUBKTNV-1">
          <mxGeometry x="-830" y="1770" width="430" height="500" as="geometry" />
        </mxCell>
        <mxCell id="pPHWL7X7k9nsCpByzbIq-302" value="Home" style="fillColor=none;strokeColor=none;fontSize=14;fontColor=#0085FC;rounded=0;" vertex="1" parent="WIyWlLk6GJQsqaUBKTNV-1">
          <mxGeometry x="-543.8317391304347" y="1806.6824812898028" width="74.78260869565217" height="43.35070968462535" as="geometry" />
        </mxCell>
        <mxCell id="pPHWL7X7k9nsCpByzbIq-303" value="JOB # 134" style="strokeWidth=0;shadow=0;dashed=0;align=center;html=1;shape=mxgraph.mockup.text.textBox;fontColor=#666666;align=left;fontSize=17;spacingLeft=4;spacingTop=-3;strokeColor=#666666;mainText=;rounded=0;" vertex="1" parent="WIyWlLk6GJQsqaUBKTNV-1">
          <mxGeometry x="-765.45" y="1818.3599999999997" width="208.5" height="20" as="geometry" />
        </mxCell>
        <mxCell id="pPHWL7X7k9nsCpByzbIq-304" value="Description" style="text;html=1;strokeColor=none;fillColor=none;align=center;verticalAlign=middle;whiteSpace=wrap;rounded=0;" vertex="1" parent="WIyWlLk6GJQsqaUBKTNV-1">
          <mxGeometry x="-785.95" y="1905.03" width="60" height="30" as="geometry" />
        </mxCell>
        <mxCell id="pPHWL7X7k9nsCpByzbIq-305" value="Fix my leaky tapes please" style="strokeWidth=1;shadow=0;dashed=0;align=center;html=1;shape=mxgraph.mockup.text.textBox;fontColor=#666666;align=left;fontSize=17;spacingLeft=4;spacingTop=-3;strokeColor=none;mainText=;rounded=0;" vertex="1" parent="WIyWlLk6GJQsqaUBKTNV-1">
          <mxGeometry x="-710.0000000000002" y="1869.9999999999998" width="224.11" height="27.53" as="geometry" />
        </mxCell>
        <mxCell id="pPHWL7X7k9nsCpByzbIq-306" value="&lt;font style=&quot;font-size: 15px&quot;&gt;I have 2 leaky tapes that need fixing&amp;nbsp;&lt;/font&gt;" style="strokeWidth=1;shadow=0;dashed=0;align=center;html=1;shape=mxgraph.mockup.text.textBox;fontColor=#666666;align=left;fontSize=17;spacingLeft=4;spacingTop=-3;strokeColor=#666666;mainText=;rounded=0;" vertex="1" parent="WIyWlLk6GJQsqaUBKTNV-1">
          <mxGeometry x="-710.0000000000002" y="1905.0299999999997" width="247.61" height="54.97" as="geometry" />
        </mxCell>
        <mxCell id="pPHWL7X7k9nsCpByzbIq-307" value="Location" style="text;html=1;strokeColor=none;fillColor=none;align=center;verticalAlign=middle;whiteSpace=wrap;rounded=0;" vertex="1" parent="WIyWlLk6GJQsqaUBKTNV-1">
          <mxGeometry x="-794.21" y="2010" width="76.52" height="30" as="geometry" />
        </mxCell>
        <mxCell id="pPHWL7X7k9nsCpByzbIq-308" value="North Auckland&amp;nbsp;" style="strokeWidth=1;shadow=0;dashed=0;align=center;html=1;shape=mxgraph.mockup.text.textBox;fontColor=#666666;align=left;fontSize=17;spacingLeft=4;spacingTop=-3;strokeColor=#666666;mainText=;rounded=0;" vertex="1" parent="WIyWlLk6GJQsqaUBKTNV-1">
          <mxGeometry x="-710.0000000000002" y="2009.9999999999998" width="132.61" height="35" as="geometry" />
        </mxCell>
        <mxCell id="pPHWL7X7k9nsCpByzbIq-309" value="Plumber" style="strokeWidth=1;shadow=0;dashed=0;align=center;html=1;shape=mxgraph.mockup.text.textBox;fontColor=#666666;align=left;fontSize=17;spacingLeft=4;spacingTop=-3;strokeColor=#666666;mainText=;rounded=0;" vertex="1" parent="WIyWlLk6GJQsqaUBKTNV-1">
          <mxGeometry x="-710.0000000000002" y="1965" width="77.61" height="35" as="geometry" />
        </mxCell>
        <mxCell id="pPHWL7X7k9nsCpByzbIq-310" value="Service type" style="text;html=1;strokeColor=none;fillColor=none;align=center;verticalAlign=middle;whiteSpace=wrap;rounded=0;" vertex="1" parent="WIyWlLk6GJQsqaUBKTNV-1">
          <mxGeometry x="-794.21" y="1965" width="76.52" height="30" as="geometry" />
        </mxCell>
        <mxCell id="pPHWL7X7k9nsCpByzbIq-311" value="Paid" style="text;html=1;strokeColor=none;fillColor=none;align=center;verticalAlign=middle;whiteSpace=wrap;rounded=0;" vertex="1" parent="WIyWlLk6GJQsqaUBKTNV-1">
          <mxGeometry x="-794.21" y="2050" width="76.52" height="30" as="geometry" />
        </mxCell>
        <mxCell id="pPHWL7X7k9nsCpByzbIq-312" value="No" style="strokeWidth=1;shadow=0;dashed=0;align=center;html=1;shape=mxgraph.mockup.text.textBox;fontColor=#666666;align=left;fontSize=17;spacingLeft=4;spacingTop=-3;strokeColor=none;mainText=;rounded=0;" vertex="1" parent="WIyWlLk6GJQsqaUBKTNV-1">
          <mxGeometry x="-710" y="2050" width="77.61" height="35" as="geometry" />
        </mxCell>
        <mxCell id="pPHWL7X7k9nsCpByzbIq-313" value="Back" style="strokeWidth=1;shadow=0;dashed=0;align=center;html=1;shape=mxgraph.mockup.forms.rrect;rSize=5;strokeColor=none;fontColor=#ffffff;fillColor=#66bbff;fontSize=16;fontStyle=1;rounded=0;" vertex="1" parent="WIyWlLk6GJQsqaUBKTNV-1">
          <mxGeometry x="-479.04999999999995" y="1824.18" width="50" height="14.18" as="geometry" />
        </mxCell>
        <mxCell id="pPHWL7X7k9nsCpByzbIq-314" value="Apply" style="strokeWidth=1;shadow=0;dashed=0;align=center;html=1;shape=mxgraph.mockup.forms.rrect;rSize=5;strokeColor=none;fontColor=#ffffff;fillColor=#66bbff;fontSize=16;fontStyle=1;rounded=0;" vertex="1" parent="WIyWlLk6GJQsqaUBKTNV-1">
          <mxGeometry x="-662.5500000000002" y="2210.59" width="95.11" height="22.73" as="geometry" />
        </mxCell>
        <mxCell id="pPHWL7X7k9nsCpByzbIq-315" value="Title" style="text;html=1;strokeColor=none;fillColor=none;align=center;verticalAlign=middle;whiteSpace=wrap;rounded=0;" vertex="1" parent="WIyWlLk6GJQsqaUBKTNV-1">
          <mxGeometry x="-780" y="1870" width="60" height="30" as="geometry" />
        </mxCell>
        <mxCell id="pPHWL7X7k9nsCpByzbIq-316" value="Message" style="text;html=1;strokeColor=none;fillColor=none;align=center;verticalAlign=middle;whiteSpace=wrap;rounded=0;" vertex="1" parent="WIyWlLk6GJQsqaUBKTNV-1">
          <mxGeometry x="-794.21" y="2100" width="76.52" height="30" as="geometry" />
        </mxCell>
        <mxCell id="pPHWL7X7k9nsCpByzbIq-317" value="&lt;font style=&quot;font-size: 16px&quot;&gt;What do you hope you get out of this?&lt;/font&gt;" style="strokeWidth=1;shadow=0;dashed=0;align=center;html=1;shape=mxgraph.mockup.text.textBox;fontColor=#666666;align=left;fontSize=17;spacingLeft=4;spacingTop=-3;strokeColor=#666666;mainText=;rounded=0;" vertex="1" parent="WIyWlLk6GJQsqaUBKTNV-1">
          <mxGeometry x="-710" y="2100" width="293.56" height="90" as="geometry" />
        </mxCell>
        <mxCell id="pPHWL7X7k9nsCpByzbIq-318" value="&lt;font style=&quot;font-size: 15px&quot;&gt;I have 2 leaky tapes that need fixing&amp;nbsp;&lt;/font&gt;" style="strokeWidth=1;shadow=0;dashed=0;align=center;html=1;shape=mxgraph.mockup.text.textBox;fontColor=#666666;align=left;fontSize=17;spacingLeft=4;spacingTop=-3;strokeColor=none;mainText=;rounded=0;" vertex="1" parent="WIyWlLk6GJQsqaUBKTNV-1">
          <mxGeometry x="-710.0000000000002" y="1905.0299999999997" width="247.61" height="54.97" as="geometry" />
        </mxCell>
        <mxCell id="pPHWL7X7k9nsCpByzbIq-319" value="Plumber" style="strokeWidth=1;shadow=0;dashed=0;align=center;html=1;shape=mxgraph.mockup.text.textBox;fontColor=#666666;align=left;fontSize=17;spacingLeft=4;spacingTop=-3;strokeColor=none;mainText=;rounded=0;" vertex="1" parent="WIyWlLk6GJQsqaUBKTNV-1">
          <mxGeometry x="-710.0000000000002" y="1965" width="77.61" height="35" as="geometry" />
        </mxCell>
        <mxCell id="pPHWL7X7k9nsCpByzbIq-320" value="North Auckland&amp;nbsp;" style="strokeWidth=1;shadow=0;dashed=0;align=center;html=1;shape=mxgraph.mockup.text.textBox;fontColor=#666666;align=left;fontSize=17;spacingLeft=4;spacingTop=-3;strokeColor=none;mainText=;rounded=0;" vertex="1" parent="WIyWlLk6GJQsqaUBKTNV-1">
          <mxGeometry x="-710.0000000000002" y="2009.9999999999998" width="132.61" height="35" as="geometry" />
        </mxCell>
        <mxCell id="pPHWL7X7k9nsCpByzbIq-210" value="" style="strokeWidth=1;shadow=0;dashed=0;align=center;html=1;shape=mxgraph.mockup.containers.window;align=left;verticalAlign=top;spacingLeft=8;strokeColor2=#008cff;strokeColor3=#c4c4c4;fontColor=#666666;mainText=;fontSize=17;labelBackgroundColor=none;rounded=0;" vertex="1" parent="WIyWlLk6GJQsqaUBKTNV-1">
          <mxGeometry x="-1520" y="2149.9999999999995" width="430" height="463.32" as="geometry" />
        </mxCell>
        <mxCell id="pPHWL7X7k9nsCpByzbIq-212" value="Home" style="fillColor=none;strokeColor=none;fontSize=14;fontColor=#0085FC;rounded=0;" vertex="1" parent="WIyWlLk6GJQsqaUBKTNV-1">
          <mxGeometry x="-1234.2317391304348" y="2165.0024812898027" width="74.78260869565217" height="43.35070968462535" as="geometry" />
        </mxCell>
        <mxCell id="pPHWL7X7k9nsCpByzbIq-224" value="You have been selected!" style="strokeWidth=0;shadow=0;dashed=0;align=center;html=1;shape=mxgraph.mockup.text.textBox;fontColor=#666666;align=left;fontSize=17;spacingLeft=4;spacingTop=-3;strokeColor=#666666;mainText=;rounded=0;" vertex="1" parent="WIyWlLk6GJQsqaUBKTNV-1">
          <mxGeometry x="-1455.45" y="2176.68" width="208.5" height="20" as="geometry" />
        </mxCell>
        <mxCell id="pPHWL7X7k9nsCpByzbIq-173" value="Description" style="text;html=1;strokeColor=none;fillColor=none;align=center;verticalAlign=middle;whiteSpace=wrap;rounded=0;" vertex="1" parent="WIyWlLk6GJQsqaUBKTNV-1">
          <mxGeometry x="-1475.95" y="2263.35" width="60" height="30" as="geometry" />
        </mxCell>
        <mxCell id="pPHWL7X7k9nsCpByzbIq-192" value="Fix my leaky tapes please" style="strokeWidth=1;shadow=0;dashed=0;align=center;html=1;shape=mxgraph.mockup.text.textBox;fontColor=#666666;align=left;fontSize=17;spacingLeft=4;spacingTop=-3;strokeColor=#666666;mainText=;rounded=0;" vertex="1" parent="WIyWlLk6GJQsqaUBKTNV-1">
          <mxGeometry x="-1383.5600000000002" y="2228.3199999999997" width="224.11" height="27.53" as="geometry" />
        </mxCell>
        <mxCell id="pPHWL7X7k9nsCpByzbIq-172" value="&lt;font style=&quot;font-size: 15px&quot;&gt;I have 2 leaky tapes that need fixing&amp;nbsp;&lt;/font&gt;" style="strokeWidth=1;shadow=0;dashed=0;align=center;html=1;shape=mxgraph.mockup.text.textBox;fontColor=#666666;align=left;fontSize=17;spacingLeft=4;spacingTop=-3;strokeColor=#666666;mainText=;rounded=0;" vertex="1" parent="WIyWlLk6GJQsqaUBKTNV-1">
          <mxGeometry x="-1383.5600000000002" y="2263.35" width="247.61" height="54.97" as="geometry" />
        </mxCell>
        <mxCell id="pPHWL7X7k9nsCpByzbIq-227" value="Location" style="text;html=1;strokeColor=none;fillColor=none;align=center;verticalAlign=middle;whiteSpace=wrap;rounded=0;" vertex="1" parent="WIyWlLk6GJQsqaUBKTNV-1">
          <mxGeometry x="-1484.21" y="2368.3199999999997" width="76.52" height="30" as="geometry" />
        </mxCell>
        <mxCell id="pPHWL7X7k9nsCpByzbIq-230" value="North Auckland&amp;nbsp;" style="strokeWidth=1;shadow=0;dashed=0;align=center;html=1;shape=mxgraph.mockup.text.textBox;fontColor=#666666;align=left;fontSize=17;spacingLeft=4;spacingTop=-3;strokeColor=#666666;mainText=;rounded=0;" vertex="1" parent="WIyWlLk6GJQsqaUBKTNV-1">
          <mxGeometry x="-1383.5600000000002" y="2368.3199999999997" width="132.61" height="35" as="geometry" />
        </mxCell>
        <mxCell id="pPHWL7X7k9nsCpByzbIq-229" value="Plumber" style="strokeWidth=1;shadow=0;dashed=0;align=center;html=1;shape=mxgraph.mockup.text.textBox;fontColor=#666666;align=left;fontSize=17;spacingLeft=4;spacingTop=-3;strokeColor=#666666;mainText=;rounded=0;" vertex="1" parent="WIyWlLk6GJQsqaUBKTNV-1">
          <mxGeometry x="-1383.5600000000002" y="2323.3199999999997" width="77.61" height="35" as="geometry" />
        </mxCell>
        <mxCell id="pPHWL7X7k9nsCpByzbIq-225" value="Service type" style="text;html=1;strokeColor=none;fillColor=none;align=center;verticalAlign=middle;whiteSpace=wrap;rounded=0;" vertex="1" parent="WIyWlLk6GJQsqaUBKTNV-1">
          <mxGeometry x="-1484.21" y="2323.3199999999997" width="76.52" height="30" as="geometry" />
        </mxCell>
        <mxCell id="pPHWL7X7k9nsCpByzbIq-231" value="Paid" style="text;html=1;strokeColor=none;fillColor=none;align=center;verticalAlign=middle;whiteSpace=wrap;rounded=0;" vertex="1" parent="WIyWlLk6GJQsqaUBKTNV-1">
          <mxGeometry x="-1484.21" y="2408.3199999999997" width="76.52" height="30" as="geometry" />
        </mxCell>
        <mxCell id="pPHWL7X7k9nsCpByzbIq-232" value="No" style="strokeWidth=1;shadow=0;dashed=0;align=center;html=1;shape=mxgraph.mockup.text.textBox;fontColor=#666666;align=left;fontSize=17;spacingLeft=4;spacingTop=-3;strokeColor=#666666;mainText=;rounded=0;" vertex="1" parent="WIyWlLk6GJQsqaUBKTNV-1">
          <mxGeometry x="-1383.56" y="2408.3199999999997" width="77.61" height="35" as="geometry" />
        </mxCell>
        <mxCell id="pPHWL7X7k9nsCpByzbIq-171" value="Title" style="text;html=1;strokeColor=none;fillColor=none;align=center;verticalAlign=middle;whiteSpace=wrap;rounded=0;" vertex="1" parent="WIyWlLk6GJQsqaUBKTNV-1">
          <mxGeometry x="-1470" y="2250" width="60" height="30" as="geometry" />
        </mxCell>
        <mxCell id="pPHWL7X7k9nsCpByzbIq-263" value="Back" style="strokeWidth=1;shadow=0;dashed=0;align=center;html=1;shape=mxgraph.mockup.forms.rrect;rSize=5;strokeColor=none;fontColor=#ffffff;fillColor=#66bbff;fontSize=16;fontStyle=1;rounded=0;" vertex="1" parent="WIyWlLk6GJQsqaUBKTNV-1">
          <mxGeometry x="-1170" y="2182.5" width="50" height="14.18" as="geometry" />
        </mxCell>
        <mxCell id="pPHWL7X7k9nsCpByzbIq-223" value="Decline" style="strokeWidth=1;shadow=0;dashed=0;align=center;html=1;shape=mxgraph.mockup.forms.rrect;rSize=5;strokeColor=none;fontColor=#ffffff;fillColor=#66bbff;fontSize=16;fontStyle=1;rounded=0;" vertex="1" parent="WIyWlLk6GJQsqaUBKTNV-1">
          <mxGeometry x="-1311.56" y="2485" width="95.11" height="22.73" as="geometry" />
        </mxCell>
        <mxCell id="pPHWL7X7k9nsCpByzbIq-222" value="Accept" style="strokeWidth=1;shadow=0;dashed=0;align=center;html=1;shape=mxgraph.mockup.forms.rrect;rSize=5;strokeColor=none;fontColor=#ffffff;fillColor=#66bbff;fontSize=16;fontStyle=1;rounded=0;" vertex="1" parent="WIyWlLk6GJQsqaUBKTNV-1">
          <mxGeometry x="-1418.06" y="2485" width="95.11" height="22.73" as="geometry" />
        </mxCell>
        <mxCell id="pPHWL7X7k9nsCpByzbIq-321" value="" style="strokeWidth=1;shadow=0;dashed=0;align=center;html=1;shape=mxgraph.mockup.containers.window;align=left;verticalAlign=top;spacingLeft=8;strokeColor2=#008cff;strokeColor3=#c4c4c4;fontColor=#666666;mainText=;fontSize=17;labelBackgroundColor=none;rounded=0;" vertex="1" parent="WIyWlLk6GJQsqaUBKTNV-1">
          <mxGeometry x="-1484.21" y="1300" width="530" height="750" as="geometry" />
        </mxCell>
        <mxCell id="pPHWL7X7k9nsCpByzbIq-322" value="My Profile" style="fillColor=none;strokeColor=none;fontSize=14;fontColor=#0085FC;rounded=0;" vertex="1" parent="WIyWlLk6GJQsqaUBKTNV-1">
          <mxGeometry x="-1144.2143882709806" y="1346.9456764336974" width="92.17391304347827" height="55.47767272727277" as="geometry" />
        </mxCell>
        <mxCell id="pPHWL7X7k9nsCpByzbIq-323" value="Log out" style="fillColor=none;strokeColor=none;fontSize=14;fontColor=#7D868C;rounded=0;" vertex="1" parent="WIyWlLk6GJQsqaUBKTNV-1">
          <mxGeometry x="-1072.0356521739131" y="1346.944068658275" width="92.17391304347827" height="55.47767272727277" as="geometry" />
        </mxCell>
        <mxCell id="pPHWL7X7k9nsCpByzbIq-324" value="Back" style="strokeWidth=1;shadow=0;dashed=0;align=center;html=1;shape=mxgraph.mockup.forms.rrect;rSize=5;strokeColor=none;fontColor=#ffffff;fillColor=#66bbff;fontSize=16;fontStyle=1;rounded=0;" vertex="1" parent="WIyWlLk6GJQsqaUBKTNV-1">
          <mxGeometry x="-1096.18" y="1391.27" width="99.5" height="21.27" as="geometry" />
        </mxCell>
        <mxCell id="pPHWL7X7k9nsCpByzbIq-325" value="" style="strokeWidth=1;shadow=0;dashed=0;align=center;html=1;shape=mxgraph.mockup.forms.rrect;rSize=0;strokeColor=#999999;fillColor=#ffffff;rounded=0;" vertex="1" parent="WIyWlLk6GJQsqaUBKTNV-1">
          <mxGeometry x="-1431.21" y="1470" width="434.53" height="540" as="geometry" />
        </mxCell>
        <mxCell id="pPHWL7X7k9nsCpByzbIq-326" value="My Current Jobs" style="strokeWidth=1;shadow=0;dashed=0;align=center;html=1;shape=mxgraph.mockup.forms.rrect;rSize=0;strokeColor=#999999;fontColor=#008cff;fontSize=17;fillColor=#ffffff;resizeWidth=1;rounded=0;" vertex="1" parent="pPHWL7X7k9nsCpByzbIq-325">
          <mxGeometry width="434.5299999999999" height="30" relative="1" as="geometry" />
        </mxCell>
        <mxCell id="pPHWL7X7k9nsCpByzbIq-327" value="" style="strokeWidth=1;shadow=0;dashed=0;align=center;html=1;shape=mxgraph.mockup.forms.anchor;fontSize=17;fontColor=#666666;align=left;spacingLeft=5;resizeWidth=1;rounded=0;" vertex="1" parent="pPHWL7X7k9nsCpByzbIq-325">
          <mxGeometry width="434.5299999999999" height="20" relative="1" as="geometry">
            <mxPoint y="30" as="offset" />
          </mxGeometry>
        </mxCell>
        <mxCell id="pPHWL7X7k9nsCpByzbIq-328" value="Location: West Auckland" style="strokeWidth=1;shadow=0;dashed=0;align=center;html=1;shape=mxgraph.mockup.forms.anchor;fontSize=17;fontColor=#666666;align=left;spacingLeft=5;resizeWidth=1;rounded=0;" vertex="1" parent="pPHWL7X7k9nsCpByzbIq-325">
          <mxGeometry width="434.5299999999999" height="20" relative="1" as="geometry">
            <mxPoint y="50" as="offset" />
          </mxGeometry>
        </mxCell>
        <mxCell id="pPHWL7X7k9nsCpByzbIq-329" value="#4534 - Help move some water pipes under house" style="strokeWidth=1;shadow=0;dashed=0;align=center;html=1;shape=mxgraph.mockup.forms.rrect;rSize=0;fontSize=17;fontColor=#666666;align=left;spacingLeft=5;fillColor=#ddeeff;strokeColor=none;resizeWidth=1;rounded=0;" vertex="1" parent="pPHWL7X7k9nsCpByzbIq-325">
          <mxGeometry width="434.5299999999999" height="20" relative="1" as="geometry">
            <mxPoint y="30" as="offset" />
          </mxGeometry>
        </mxCell>
        <mxCell id="pPHWL7X7k9nsCpByzbIq-330" value="Locations: North Auckland" style="strokeWidth=1;shadow=0;dashed=0;align=center;html=1;shape=mxgraph.mockup.forms.anchor;fontSize=17;fontColor=#666666;align=left;spacingLeft=5;resizeWidth=1;rounded=0;" vertex="1" parent="pPHWL7X7k9nsCpByzbIq-325">
          <mxGeometry width="434.5299999999999" height="20" relative="1" as="geometry">
            <mxPoint y="200" as="offset" />
          </mxGeometry>
        </mxCell>
        <mxCell id="pPHWL7X7k9nsCpByzbIq-350" value="# 43 Fix my leaky taps" style="strokeWidth=1;shadow=0;dashed=0;align=center;html=1;shape=mxgraph.mockup.forms.rrect;rSize=0;fontSize=17;fontColor=#666666;align=left;spacingLeft=5;fillColor=#ddeeff;strokeColor=none;resizeWidth=1;rounded=0;" vertex="1" parent="pPHWL7X7k9nsCpByzbIq-325">
          <mxGeometry y="180" width="434.5299999999999" height="20" as="geometry" />
        </mxCell>
        <mxCell id="pPHWL7X7k9nsCpByzbIq-351" value="Locations: North Auckland" style="strokeWidth=1;shadow=0;dashed=0;align=center;html=1;shape=mxgraph.mockup.forms.anchor;fontSize=17;fontColor=#666666;align=left;spacingLeft=5;resizeWidth=1;rounded=0;" vertex="1" parent="pPHWL7X7k9nsCpByzbIq-325">
          <mxGeometry y="350" width="434.5299999999999" height="20" as="geometry" />
        </mxCell>
        <mxCell id="pPHWL7X7k9nsCpByzbIq-352" value="# 43 Fix my leaky taps" style="strokeWidth=1;shadow=0;dashed=0;align=center;html=1;shape=mxgraph.mockup.forms.rrect;rSize=0;fontSize=17;fontColor=#666666;align=left;spacingLeft=5;fillColor=#ddeeff;strokeColor=none;resizeWidth=1;rounded=0;" vertex="1" parent="pPHWL7X7k9nsCpByzbIq-325">
          <mxGeometry y="330" width="434.5299999999999" height="20" as="geometry" />
        </mxCell>
        <mxCell id="pPHWL7X7k9nsCpByzbIq-353" value="Locations: North Auckland" style="strokeWidth=1;shadow=0;dashed=0;align=center;html=1;shape=mxgraph.mockup.forms.anchor;fontSize=17;fontColor=#666666;align=left;spacingLeft=5;resizeWidth=1;rounded=0;" vertex="1" parent="pPHWL7X7k9nsCpByzbIq-325">
          <mxGeometry y="500" width="434.5299999999999" height="20" as="geometry" />
        </mxCell>
        <mxCell id="pPHWL7X7k9nsCpByzbIq-354" value="# 43 Fix my leaky taps" style="strokeWidth=1;shadow=0;dashed=0;align=center;html=1;shape=mxgraph.mockup.forms.rrect;rSize=0;fontSize=17;fontColor=#666666;align=left;spacingLeft=5;fillColor=#ddeeff;strokeColor=none;resizeWidth=1;rounded=0;" vertex="1" parent="pPHWL7X7k9nsCpByzbIq-325">
          <mxGeometry y="480" width="434.5299999999999" height="20" as="geometry" />
        </mxCell>
        <mxCell id="pPHWL7X7k9nsCpByzbIq-349" value="There are ${total} available OddJobs in your local community" style="text;html=1;align=center;verticalAlign=middle;resizable=0;points=[];autosize=1;strokeColor=none;fillColor=none;fontSize=16;" vertex="1" parent="WIyWlLk6GJQsqaUBKTNV-1">
          <mxGeometry x="-1445" y="1421.27" width="450" height="20" as="geometry" />
        </mxCell>
      </root>
    </mxGraphModel>
  </diagram>
</mxfile>
